<?xml version="1.0" encoding="utf-8"?>
<!-- Generator: Adobe Illustrator 25.1.0, SVG Export Plug-In . SVG Version: 6.00 Build 0)  -->
<svg version="1.1" id="Слой_1" xmlns="http://www.w3.org/2000/svg" xmlns:xlink="http://www.w3.org/1999/xlink" x="0px" y="0px"
	 viewBox="0 0 190.6 190.6" style="enable-background:new 0 0 190.6 190.6;" xml:space="preserve">
<style type="text/css">
	.st0{fill:#0369A1;}
	.st1{fill:#65A30D;}
</style>
<path class="st0" d="M79.3,77.5H31.9c-0.2,0-0.3,0-0.5,0c-0.1,0-0.1,0-0.2,0.1c-0.1,0-0.2,0-0.2,0.1c-0.1,0-0.2,0.1-0.2,0.1
	c-0.1,0-0.1,0.1-0.2,0.1c-0.1,0.1-0.3,0.2-0.4,0.3l-24,24c-0.1,0.1-0.2,0.2-0.3,0.4c0,0.1-0.1,0.1-0.1,0.2S5.7,103,5.7,103
	c0,0.1-0.1,0.2-0.1,0.2c0,0.1,0,0.1-0.1,0.2c0,0.2,0,0.3,0,0.5v72.1c0,5,4,9,9,9h64.9c5,0,9-4,9-9V86.5
	C88.4,81.5,84.3,77.5,79.3,77.5z M29.4,86v11.4c0,2.2-1.8,4-4,4H14L29.4,86z M83.4,176c0,2.2-1.8,4-4,4H14.5c-2.2,0-4-1.8-4-4v-69.6
	h14.9c5,0,9-4,9-9V82.5h45c2.2,0,4,1.8,4,4V176z"/>
<path class="st1" d="M95.5,20.3c-4.8,0-8.7,3.9-8.7,8.7c0,1.3,0.3,2.5,0.8,3.6l-14.7,13c-1.5-2.6-4.3-4.3-7.5-4.3
	c-3.9,0-7.3,2.6-8.4,6.2H43.5c-1.1-3.6-4.4-6.2-8.4-6.2c-4.8,0-8.7,3.9-8.7,8.7c0,1.5,0.4,2.9,1.1,4.2l-9.2,9.2
	c-1.2-0.7-2.6-1-4.1-1c-4.8,0-8.7,3.9-8.7,8.7s3.8,8.7,8.7,8.7s8.7-3.9,8.7-8.7c0-1.5-0.4-2.9-1-4.1l9.3-9.3c1.2,0.7,2.6,1,4.1,1
	c3.9,0,7.3-2.6,8.4-6.2h13.5c1.1,3.6,4.4,6.2,8.4,6.2c4.4,0,8-3.2,8.6-7.5l16.7-14.7c1.3,0.8,2.9,1.3,4.6,1.3c4.8,0,8.7-3.9,8.7-8.7
	S100.3,20.3,95.5,20.3z M14.2,74.8c-2.1,0-3.7-1.7-3.7-3.7c0-2.1,1.7-3.7,3.7-3.7s3.7,1.7,3.7,3.7C17.9,73.2,16.2,74.8,14.2,74.8z
	 M35.2,53.7c-2.1,0-3.7-1.7-3.7-3.7c0-2.1,1.7-3.7,3.7-3.7s3.7,1.7,3.7,3.7C38.9,52.1,37.2,53.7,35.2,53.7z M65.4,53.7
	c-2.1,0-3.7-1.7-3.7-3.7c0-2.1,1.7-3.7,3.7-3.7c2,0,3.7,1.7,3.7,3.7C69.2,52.1,67.5,53.7,65.4,53.7z M95.5,32.8
	c-2.1,0-3.7-1.7-3.7-3.7s1.7-3.7,3.7-3.7c2.1,0,3.7,1.7,3.7,3.7S97.6,32.8,95.5,32.8z"/>
<path class="st1" d="M129.4,73.1c-1-1-2.6-1-3.5,0l-22.7,22.7H76.4c-1.1-3.6-4.4-6.2-8.4-6.2c-4.8,0-8.7,3.9-8.7,8.7
	s3.9,8.7,8.7,8.7c3.9,0,7.3-2.6,8.4-6.2h27.7c0.7,0,1.3-0.3,1.8-0.7l23.5-23.5C130.4,75.7,130.4,74.1,129.4,73.1z M68.1,102.1
	c-2.1,0-3.7-1.7-3.7-3.7s1.7-3.7,3.7-3.7c2.1,0,3.7,1.7,3.7,3.7S70.1,102.1,68.1,102.1z"/>
<path class="st1" d="M176.4,87h-18.1c-1.4,0-2.5,1.1-2.5,2.5v15.3h-15.6c-1.4,0-2.5,1.1-2.5,2.5v15.4h-15.6c-1.4,0-2.5,1.1-2.5,2.5
	v15.4h-15.7c-1.4,0-2.5,1.1-2.5,2.5v21.2c0,1.4,1.1,2.5,2.5,2.5H122h18.1h0.1h18.1h18.1c1.4,0,2.5-1.1,2.5-2.5V89.5
	C178.9,88.1,177.8,87,176.4,87z M155.8,109.7v52h-13.1v-36.6c0-0.2,0-0.4-0.1-0.5v-14.9C142.6,109.7,155.8,109.7,155.8,109.7z
	 M106.4,145.6h13.1v16.2h-13.1V145.6z M124.6,143.1v-15.4h13.1v34.1h-13.1C124.6,161.8,124.6,143.1,124.6,143.1z M173.9,161.8h-13.1
	v-54.5V92h13.1V161.8z"/>
<g>
	<path class="st0" d="M46.8,103.7h3.9c1.4,0,2.5-1.1,2.5-2.5s-1.1-2.5-2.5-2.5h-3.9c-1.4,0-2.5,1.1-2.5,2.5S45.4,103.7,46.8,103.7z"
		/>
	<path class="st0" d="M46.8,118.7h9.9c1.4,0,2.5-1.1,2.5-2.5s-1.1-2.5-2.5-2.5h-9.9c-1.4,0-2.5,1.1-2.5,2.5S45.4,118.7,46.8,118.7z"
		/>
	<path class="st0" d="M67.8,118.7h3.9c1.4,0,2.5-1.1,2.5-2.5s-1.1-2.5-2.5-2.5h-3.9c-1.4,0-2.5,1.1-2.5,2.5S66.4,118.7,67.8,118.7z"
		/>
	<path class="st0" d="M22.8,118.7h12.7c1.4,0,2.5-1.1,2.5-2.5s-1.1-2.5-2.5-2.5H22.8c-1.4,0-2.5,1.1-2.5,2.5S21.4,118.7,22.8,118.7z
		"/>
	<path class="st0" d="M53.6,158.7H40.8c-1.4,0-2.5,1.1-2.5,2.5s1.1,2.5,2.5,2.5h12.9c1.4,0,2.5-1.1,2.5-2.5S55,158.7,53.6,158.7z"/>
	<path class="st0" d="M29.8,158.7h-7c-1.4,0-2.5,1.1-2.5,2.5s1.1,2.5,2.5,2.5h7c1.4,0,2.5-1.1,2.5-2.5S31.2,158.7,29.8,158.7z"/>
	<path class="st0" d="M71.7,128.7h-31c-1.4,0-2.5,1.1-2.5,2.5s1.1,2.5,2.5,2.5h31c1.4,0,2.5-1.1,2.5-2.5S73.1,128.7,71.7,128.7z"/>
	<path class="st0" d="M22.8,133.7h7c1.4,0,2.5-1.1,2.5-2.5s-1.1-2.5-2.5-2.5h-7c-1.4,0-2.5,1.1-2.5,2.5S21.4,133.7,22.8,133.7z"/>
	<path class="st0" d="M71.7,143.7h-13c-1.4,0-2.5,1.1-2.5,2.5s1.1,2.5,2.5,2.5h13c1.4,0,2.5-1.1,2.5-2.5S73.1,143.7,71.7,143.7z"/>
	<path class="st0" d="M22.8,148.7h24.7c1.4,0,2.5-1.1,2.5-2.5s-1.1-2.5-2.5-2.5H22.8c-1.4,0-2.5,1.1-2.5,2.5S21.4,148.7,22.8,148.7z
		"/>
</g>
<path class="st1" d="M182.7,161.8H79.6c-1.1-3.6-4.4-6.2-8.4-6.2c-4.8,0-8.7,3.9-8.7,8.7s3.9,8.7,8.7,8.7c3.9,0,7.3-2.6,8.4-6.2
	h103.1c1.4,0,2.5-1.1,2.5-2.5S184.1,161.8,182.7,161.8z M71.2,168c-2.1,0-3.7-1.7-3.7-3.7c0-2.1,1.7-3.7,3.7-3.7s3.7,1.7,3.7,3.7
	S73.3,168,71.2,168z"/>
<path class="st1" d="M173.4,71.1c6.9-6.9,11.1-16.5,11.1-27c0-21.2-17.2-38.4-38.4-38.4s-38.4,17.2-38.4,38.4s17.2,38.4,38.4,38.4
	c10.5,0,20.1-4.2,27-11.1c0.1,0,0.1-0.1,0.2-0.1C173.3,71.2,173.4,71.1,173.4,71.1z M152.1,46.5h27.3c-0.5,7.3-3.5,14-8,19.3
	L152.1,46.5z M179.4,41.5h-30.8V10.7C165,11.9,178.2,25.1,179.4,41.5z M112.6,44c0-17.6,13.7-32.1,30.9-33.3V44c0,0.2,0,0.3,0,0.5
	c0,0.1,0,0.1,0.1,0.2c0,0.1,0,0.2,0.1,0.2c0,0.1,0.1,0.2,0.1,0.2c0,0.1,0.1,0.1,0.1,0.2c0.1,0.1,0.2,0.3,0.3,0.4l23.7,23.7
	c-5.9,5-13.5,8.1-21.8,8.1C127.6,77.5,112.6,62.5,112.6,44z"/>
</svg>
