<?xml version="1.0" encoding="utf-8"?>
<!-- Generator: Adobe Illustrator 25.1.0, SVG Export Plug-In . SVG Version: 6.00 Build 0)  -->
<svg version="1.1" id="Слой_1" xmlns="http://www.w3.org/2000/svg" xmlns:xlink="http://www.w3.org/1999/xlink" x="0px" y="0px"
	 viewBox="0 0 190.6 190.6" style="enable-background:new 0 0 190.6 190.6;" xml:space="preserve">
<style type="text/css">
	.st0{fill:#65A30D;}
	.st1{fill:#0369A1;}
</style>
<g>
	<path class="st0" d="M142.1,27.4H87.4c-0.2,0-0.3,0-0.5,0c-0.1,0-0.1,0-0.2,0.1c-0.1,0-0.2,0-0.2,0.1c-0.1,0-0.2,0.1-0.2,0.1
		c-0.1,0-0.1,0.1-0.2,0.1c-0.1,0.1-0.3,0.2-0.4,0.3L58,55.8c-0.1,0.1-0.2,0.2-0.3,0.4c0,0.1-0.1,0.1-0.1,0.2s-0.1,0.2-0.1,0.3
		c0,0.1-0.1,0.2-0.1,0.2c0,0.1-0.1,0.1-0.1,0.2c0,0.2,0,0.3,0,0.5V76h5V60.1h17.6c5.5,0,10-4.5,10-10V32.5h52.2c2.8,0,5,2.3,5,5
		v54.3h5V37.5C152.1,31.9,147.7,27.4,142.1,27.4z M79.9,55.1H65.8L84.9,36v14.1C84.9,52.8,82.6,55.1,79.9,55.1z"/>
	<g>
		<path class="st0" d="M101.6,54h10c1.4,0,2.5-1.1,2.5-2.5S113,49,111.6,49h-10c-1.4,0-2.5,1.1-2.5,2.5S100.2,54,101.6,54z"/>
		<path class="st0" d="M123.2,54h12.7c1.4,0,2.5-1.1,2.5-2.5s-1.1-2.5-2.5-2.5h-12.7c-1.4,0-2.5,1.1-2.5,2.5S121.8,54,123.2,54z"/>
		<path class="st0" d="M104.6,66.9c0,1.4,1.1,2.5,2.5,2.5h11.4c1.4,0,2.5-1.1,2.5-2.5s-1.1-2.5-2.5-2.5h-11.4
			C105.7,64.4,104.6,65.5,104.6,66.9z"/>
		<path class="st0" d="M135.9,64.4h-4.5c-1.4,0-2.5,1.1-2.5,2.5s1.1,2.5,2.5,2.5h4.5c1.4,0,2.5-1.1,2.5-2.5S137.3,64.4,135.9,64.4z"
			/>
		<path class="st0" d="M94.2,64.4H79.5c-1.4,0-2.5,1.1-2.5,2.5s1.1,2.5,2.5,2.5h14.7c1.4,0,2.5-1.1,2.5-2.5S95.6,64.4,94.2,64.4z"/>
		<path class="st0" d="M135.9,78.7h-35.7c-1.4,0-2.5,1.1-2.5,2.5s1.1,2.5,2.5,2.5h35.7c1.4,0,2.5-1.1,2.5-2.5S137.3,78.7,135.9,78.7
			z"/>
		<path class="st0" d="M87.5,78.7h-8c-1.4,0-2.5,1.1-2.5,2.5s1.1,2.5,2.5,2.5h8c1.4,0,2.5-1.1,2.5-2.5S88.9,78.7,87.5,78.7z"/>
	</g>
	<path class="st0" d="M104.8,141.5c4.7-3.1,7.8-8.4,7.8-14.4c0-9.5-7.8-17.3-17.3-17.3S78,117.6,78,127.1c0,6,3.1,11.4,7.8,14.4
		c-7.3,3.5-12.3,11-12.3,19.6c0,1.3,0.1,2.7,0.4,3.9l4.9-0.9c-0.2-1-0.3-2-0.3-3c0-9.2,7.5-16.8,16.8-16.8s16.8,7.5,16.8,16.8
		c0,1-0.1,2-0.3,3l4.9,0.9c0.2-1.3,0.3-2.6,0.3-3.9C117.1,152.5,112.1,145.1,104.8,141.5z M83.1,127.1c0-6.8,5.5-12.3,12.3-12.3
		s12.3,5.5,12.3,12.3s-5.5,12.3-12.3,12.3S83.1,133.9,83.1,127.1z"/>
	<path class="st1" d="M132.1,167.1H58.6c-4.8,0-8.7-3.9-8.7-8.7v-50.1c0-4.8,3.9-8.7,8.7-8.7h73.5c4.8,0,8.7,3.9,8.7,8.7v50.1
		C140.8,163.2,136.9,167.1,132.1,167.1z M58.6,104.6c-2,0-3.7,1.7-3.7,3.7v50.1c0,2,1.7,3.7,3.7,3.7h73.5c2,0,3.7-1.7,3.7-3.7v-50.1
		c0-2-1.7-3.7-3.7-3.7H58.6z"/>
	<path class="st0" d="M43.9,75.9h-5V23.2c0-4.9,4-8.9,8.9-8.9h77.1c4.9,0,8.9,4,8.9,8.9V30h-5v-6.8c0-2.2-1.8-3.9-3.9-3.9H47.8
		c-2.2,0-3.9,1.8-3.9,3.9C43.9,23.2,43.9,75.9,43.9,75.9z"/>
	<path class="st1" d="M162,176.4H28.7c-5.2,0-9.4-4.2-9.4-9.4V82.6c0-5.2,4.2-9.4,9.4-9.4h37.6c0.9,0,1.7,0.5,2.2,1.3L76.6,89H162
		c5.2,0,9.4,4.2,9.4,9.4v68.6C171.4,172.2,167.2,176.4,162,176.4z M28.7,78.4c-2.4,0-4.4,2-4.4,4.4v84.3c0,2.4,2,4.4,4.4,4.4H162
		c2.4,0,4.4-2,4.4-4.4V98.6c0-2.4-2-4.4-4.4-4.4H75.1c-0.9,0-1.7-0.5-2.2-1.3l-8.1-14.5L28.7,78.4L28.7,78.4z"/>
</g>
</svg>
