<?xml version="1.0" encoding="utf-8"?>
<!-- Generator: Adobe Illustrator 25.1.0, SVG Export Plug-In . SVG Version: 6.00 Build 0)  -->
<svg version="1.1" id="Слой_1" xmlns="http://www.w3.org/2000/svg" xmlns:xlink="http://www.w3.org/1999/xlink" x="0px" y="0px"
	 viewBox="0 0 190.6 190.6" style="enable-background:new 0 0 190.6 190.6;" xml:space="preserve">
<style type="text/css">
	.st0{fill:#65A30D;}
	.st1{fill:#0369A1;}
</style>
<g>
	<path class="st0" d="M114.8,117.4l-9.4-0.2c-1.4,0-2.5,1.1-2.6,2.4c0,1.4,1.1,2.5,2.4,2.6l9.4,0.2c0,0,0,0,0.1,0
		c1.4,0,2.5-1.1,2.5-2.4C117.2,118.6,116.1,117.5,114.8,117.4z"/>
	<path class="st0" d="M186.6,66.5c-1-2.7-3-4.9-5.6-6.2c-2.6-1.2-5.6-1.4-8.3-0.4c-2.7,1-4.9,3-6.2,5.6c-0.8,1.8-1.2,3.7-1,5.6
		l-12.9,4.6c-1.4-2.4-3.5-4.4-6.1-5.6c0,0-0.1,0-0.1-0.1l8.3-34.1c0.1,0,0.2,0,0.4,0c1.2,0,2.5-0.2,3.7-0.6c5.7-2,8.6-8.3,6.6-13.9
		c-2-5.7-8.3-8.6-13.9-6.6c-5.7,2-8.6,8.3-6.6,13.9c0.9,2.6,2.8,4.7,5.1,5.9l-8.3,34.2c-1.7-0.1-3.3,0.1-4.9,0.6l-7.9-14.2
		c1.3-1,2.3-2.3,3-3.8c1.2-2.6,1.4-5.6,0.4-8.3s-3-4.9-5.6-6.2c-2.6-1.2-5.6-1.4-8.3-0.4s-4.9,3-6.2,5.6c-1.2,2.6-1.4,5.6-0.4,8.3
		s3,4.9,5.6,6.2c1.5,0.7,3.1,1,4.6,1c0.8,0,1.6-0.1,2.3-0.3l7.9,14.3c-4,3.1-6.1,8.2-5.2,13.2L87.2,99.1c-1.3,0.5-2,1.9-1.5,3.2
		c0.4,1,1.3,1.7,2.4,1.7c0.3,0,0.6,0,0.8-0.1l39.8-14.3c2.5,4.3,7.1,6.9,12,6.9c1.5,0,3.1-0.3,4.7-0.8c0.3-0.1,0.7-0.3,1-0.4
		l10.8,16.3c-0.8,0.8-1.5,1.8-2,2.9c-1.2,2.6-1.4,5.6-0.4,8.3c1,2.7,3,4.9,5.6,6.2c1.5,0.7,3.1,1,4.6,1c1.2,0,2.5-0.2,3.7-0.6
		c2.7-1,4.9-3,6.2-5.6c1.2-2.6,1.4-5.6,0.4-8.3l0,0c-1-2.7-3-4.9-5.6-6.2c-2.6-1.2-5.6-1.4-8.3-0.4l-10.9-16.4
		c1.1-1.1,2.1-2.4,2.8-3.9c1.2-2.6,1.6-5.4,1.1-8.2l12.7-4.6c1.1,1.8,2.7,3.3,4.7,4.2c1.5,0.7,3.1,1,4.6,1c1.2,0,2.5-0.2,3.7-0.6
		c2.7-1,4.9-3,6.2-5.6C187.6,72.2,187.6,69.3,186.6,66.5z M153,19.5c0.7-0.2,1.3-0.3,2-0.3c2.4,0,4.7,1.5,5.6,3.9
		c1.1,3.1-0.5,6.5-3.6,7.5c-3.1,1.1-6.5-0.5-7.5-3.6C148.4,24,150,20.6,153,19.5z M116.3,48.7c-0.5-1.5-0.5-3.1,0.2-4.5
		s1.9-2.5,3.3-3c0.7-0.2,1.3-0.3,2-0.3c0.9,0,1.7,0.2,2.5,0.6c1.4,0.7,2.5,1.9,3,3.3c0.5,1.5,0.5,3.1-0.2,4.5s-1.9,2.5-3.3,3
		C120.8,53.4,117.4,51.8,116.3,48.7z M132.2,85.7c-1.7-4.6,0.8-9.7,5.4-11.3c1-0.4,2-0.5,3-0.5c1.3,0,2.6,0.3,3.8,0.9
		c2.1,1,3.8,2.8,4.6,5c1.7,4.6-0.8,9.7-5.4,11.3C139,92.7,133.9,90.3,132.2,85.7z M165,113.3c0.9,0,1.7,0.2,2.5,0.6
		c1.4,0.7,2.5,1.9,3,3.3l0,0c0.5,1.5,0.5,3.1-0.2,4.5s-1.9,2.5-3.3,3c-1.5,0.5-3.1,0.5-4.5-0.2c-1.4-0.7-2.5-1.9-3-3.3
		c-0.5-1.5-0.5-3.1,0.2-4.5s1.9-2.5,3.3-3C163.6,113.4,164.3,113.3,165,113.3z M181.7,72.7c-0.7,1.4-1.9,2.5-3.3,3
		c-1.5,0.5-3.1,0.5-4.5-0.2c-1.4-0.7-2.5-1.9-3-3.3c-0.5-1.5-0.5-3.1,0.2-4.5s1.9-2.5,3.3-3c0.7-0.2,1.3-0.3,2-0.3
		c0.9,0,1.7,0.2,2.5,0.6c1.4,0.7,2.5,1.9,3,3.3C182.4,69.7,182.3,71.3,181.7,72.7z"/>
	<path class="st0" d="M90.3,80.5c0.6,0,1.2-0.2,1.6-0.6l7.1-6.1c1-0.9,1.2-2.5,0.3-3.5s-2.5-1.2-3.5-0.3l-7.1,6.1
		c-1,0.9-1.2,2.5-0.3,3.5C88.9,80.2,89.6,80.5,90.3,80.5z"/>
</g>
<path class="st1" d="M102.2,133.8L78.4,67.5c-1-2.7-4-4.1-6.7-3.2l-5.8,2.1c-1.3,0.5-2.4,1.4-3,2.7c-0.4,0.9-0.6,1.8-0.5,2.8
	c-3.1,3.9-17.1,20.5-39.4,28.5c-0.1,0-0.2,0.1-0.3,0.2c-0.1,0-0.2,0-0.4,0.1l-7.8,2.8c-4.1,1.5-7.4,4.5-9.3,8.4
	c-1.9,4-2.1,8.4-0.6,12.5L9,136.8c1.5,4.1,4.5,7.4,8.4,9.3c2.2,1,4.6,1.6,7,1.6c0.6,0,1.2,0,1.8-0.1l10.2,28.5
	c0.4,1,1.3,1.7,2.4,1.7c0.3,0,0.6,0,0.8-0.1l15.9-5.7c0.8-0.3,1.4-0.9,1.6-1.7s0-1.7-0.6-2.3l-10.9-12.3l0.5-14.2
	c22-5.3,41-0.4,41.2-0.3l0,0c0.5,0.6,1.1,1,1.7,1.4c0.7,0.3,1.5,0.5,2.2,0.5c0.6,0,1.2-0.1,1.8-0.3l5.8-2.1l0,0
	C101.8,139.6,103.2,136.6,102.2,133.8z M19.7,141.6c-2.8-1.3-4.8-3.6-5.9-6.5l-4.4-12.4c-1-2.9-0.9-6,0.4-8.7s3.6-4.8,6.5-5.9l5.5-2
	l12.1,33.8l-5.5,2C25.5,143,22.4,142.9,19.7,141.6z M41.3,158.2l9.1,10.3l-10,3.6l-9.2-25.7l6.7-2.4c1.1-0.4,2.2-0.8,3.3-1.1
	l-0.5,13.6C40.7,157.1,40.9,157.7,41.3,158.2z M38.5,138.4l-12.2-33.9C45.8,97,58.8,83.9,64.2,77.6l20.7,57.9
	C77.4,134,58.8,131.8,38.5,138.4z M97.4,135.8l-5.8,2.1c-0.1,0-0.1,0-0.2,0c-0.1,0-0.1-0.1-0.1-0.1L67.5,71.5c0-0.1,0-0.1,0-0.2
	s0.1-0.1,0.1-0.1l5.8-2.1h0.1c0.1,0,0.2,0.1,0.2,0.2l23.8,66.3C97.6,135.6,97.5,135.8,97.4,135.8z"/>
</svg>
