<?xml version="1.0" encoding="utf-8"?>
<!-- Generator: Adobe Illustrator 25.1.0, SVG Export Plug-In . SVG Version: 6.00 Build 0)  -->
<svg version="1.1" id="Слой_1" xmlns="http://www.w3.org/2000/svg" xmlns:xlink="http://www.w3.org/1999/xlink" x="0px" y="0px"
	 viewBox="0 0 190.6 190.6" style="enable-background:new 0 0 190.6 190.6;" xml:space="preserve">
<style type="text/css">
	.st0{fill:#0369A1;}
	.st1{fill:#65A30D;}
</style>
<g>
	<path class="st0" d="M175.3,131.9c0-0.1,0.1-0.2,0.1-0.2c0-0.1,0.1-0.1,0.1-0.2c0-0.2,0-0.3,0-0.5V56h-5v72.5h-28.8
		c-7.8,0-14.2,6.4-14.2,14.2v28.8H29.4c-5.1,0-9.2-4.1-9.2-9.2V56c0-5.1,4.1-9.2,9.2-9.2h29.1v-5H29.4c-7.8,0-14.2,6.4-14.2,14.2
		v106.3c0,7.8,6.4,14.2,14.2,14.2h100.6c0.2,0,0.3,0,0.5,0c0.1,0,0.1,0,0.2-0.1c0.1,0,0.2,0,0.2-0.1c0.1,0,0.2-0.1,0.2-0.1
		c0.1,0,0.1-0.1,0.2-0.1c0.1-0.1,0.3-0.2,0.4-0.3l43.1-43.1c0.1-0.1,0.2-0.2,0.3-0.4c0-0.1,0.1-0.1,0.1-0.2
		C175.2,132.1,175.2,132,175.3,131.9z M141.6,133.5h25.3L132.4,168v-25.3C132.4,137.6,136.5,133.5,141.6,133.5z"/>
	<path class="st1" d="M112.4,87.7H78.3c-5.1,0-9.3-4.2-9.3-9.3V64.7c0-5.1,4.2-9.3,9.3-9.3h34.1c5.1,0,9.3,4.2,9.3,9.3v13.7
		C121.7,83.5,117.5,87.7,112.4,87.7z M78.2,60.4c-2.4,0-4.3,1.9-4.3,4.3v13.7c0,2.4,1.9,4.3,4.3,4.3h34.1c2.4,0,4.3-1.9,4.3-4.3
		V64.7c0-2.4-1.9-4.3-4.3-4.3H78.2z"/>
	<path class="st1" d="M112.4,46.4H78.3c-5.1,0-9.3-4.2-9.3-9.3V23.4c0-5.1,4.2-9.3,9.3-9.3h34.1c5.1,0,9.3,4.2,9.3,9.3v13.7
		C121.7,42.2,117.5,46.4,112.4,46.4z M78.2,19.1c-2.4,0-4.3,1.9-4.3,4.3v13.7c0,2.4,1.9,4.3,4.3,4.3h34.1c2.4,0,4.3-1.9,4.3-4.3
		V23.4c0-2.4-1.9-4.3-4.3-4.3H78.2z"/>
	<path class="st1" d="M112.4,128.8H78.3c-5.1,0-9.3-4.2-9.3-9.3v-13.7c0-5.1,4.2-9.3,9.3-9.3h34.1c5.1,0,9.3,4.2,9.3,9.3v13.7
		C121.7,124.6,117.5,128.8,112.4,128.8z M78.2,101.5c-2.4,0-4.3,1.9-4.3,4.3v13.7c0,2.4,1.9,4.3,4.3,4.3h34.1c2.4,0,4.3-1.9,4.3-4.3
		v-13.7c0-2.4-1.9-4.3-4.3-4.3H78.2z"/>
	<path class="st1" d="M75,158.8H40.9c-5.1,0-9.3-4.2-9.3-9.3c0-5.2,4.2-9.3,9.3-9.3H75c5.1,0,9.3,4.2,9.3,9.3
		C84.3,154.6,80.1,158.8,75,158.8z M40.8,145.1c-2.4,0-4.3,1.9-4.3,4.3s1.9,4.3,4.3,4.3h34.1c2.4,0,4.3-1.9,4.3-4.3
		s-1.9-4.3-4.3-4.3H40.8z"/>
	<g>
		<path class="st1" d="M95.2,145.9h17.7c1.4,0,2.5-1.1,2.5-2.5s-1.1-2.5-2.5-2.5H95.2c-1.4,0-2.5,1.1-2.5,2.5S93.8,145.9,95.2,145.9
			z"/>
		<path class="st1" d="M99.2,154.4h-4.3c-1.4,0-2.5,1.1-2.5,2.5s1.1,2.5,2.5,2.5h4.3c1.4,0,2.5-1.1,2.5-2.5S100.5,154.4,99.2,154.4z
			"/>
		<path class="st1" d="M112.9,154.4h-4.3c-1.4,0-2.5,1.1-2.5,2.5s1.1,2.5,2.5,2.5h4.3c1.4,0,2.5-1.1,2.5-2.5
			S114.3,154.4,112.9,154.4z"/>
	</g>
	<path class="st1" d="M152.1,27.5h-19.1c-1.4,0-2.5,1.1-2.5,2.5s1.1,2.5,2.5,2.5h19.1c1.8,0,3.3,1.5,3.3,3.3v30
		c0,1.8-1.5,3.3-3.3,3.3h-12.4l6-6c1-1,1-2.6,0-3.5c-1-1-2.6-1-3.5,0l-10.3,10.3c-0.1,0.1-0.2,0.2-0.3,0.4c0,0.1-0.1,0.1-0.1,0.2
		s-0.1,0.2-0.1,0.2c0,0.1-0.1,0.2-0.1,0.3c0,0.1,0,0.1-0.1,0.2c0,0.2,0,0.3,0,0.5l0,0l0,0c0,0.2,0,0.3,0,0.5c0,0.1,0,0.1,0.1,0.2
		c0,0.1,0,0.2,0.1,0.2c0,0.1,0.1,0.2,0.1,0.3c0,0.1,0.1,0.1,0.1,0.2c0.1,0.1,0.2,0.3,0.3,0.4l10.3,10.3c0.5,0.5,1.1,0.7,1.8,0.7
		s1.3-0.2,1.8-0.7c1-1,1-2.6,0-3.5l-6-6h12.3c4.6,0,8.3-3.7,8.3-8.3V36C160.4,31.2,156.7,27.5,152.1,27.5z"/>
	<path class="st1" d="M60.2,112.7c0-0.1,0-0.1-0.1-0.2c0-0.1,0-0.2-0.1-0.3c0-0.1-0.1-0.2-0.1-0.2c0-0.1-0.1-0.1-0.1-0.2
		c-0.1-0.1-0.2-0.3-0.3-0.4l-10.3-10.3c-1-1-2.6-1-3.5,0c-1,1-1,2.6,0,3.5l6,6H39.3c-1.8,0-3.3-1.5-3.3-3.3v-30
		c0-1.8,1.5-3.3,3.3-3.3h19.1c1.4,0,2.5-1.1,2.5-2.5S59.8,69,58.4,69H39.3c-4.6,0-8.3,3.7-8.3,8.3v30c0,4.6,3.7,8.3,8.3,8.3h12.3
		l-6,6c-1,1-1,2.6,0,3.5c0.5,0.5,1.1,0.7,1.8,0.7s1.3-0.2,1.8-0.7l10.3-10.3c0.1-0.1,0.2-0.2,0.3-0.4c0-0.1,0.1-0.1,0.1-0.2
		s0.1-0.2,0.1-0.2c0-0.1,0.1-0.2,0.1-0.3c0-0.1,0-0.1,0.1-0.2c0-0.2,0-0.3,0-0.5l0,0l0,0C60.2,113,60.2,112.8,60.2,112.7z"/>
</g>
</svg>
