<?xml version="1.0" encoding="utf-8"?>
<!-- Generator: Adobe Illustrator 25.1.0, SVG Export Plug-In . SVG Version: 6.00 Build 0)  -->
<svg version="1.1" id="Слой_1" xmlns="http://www.w3.org/2000/svg" xmlns:xlink="http://www.w3.org/1999/xlink" x="0px" y="0px"
	 viewBox="0 0 305.2 223.9" style="enable-background:new 0 0 305.2 223.9;" xml:space="preserve">
<style type="text/css">
	.st0{fill-rule:evenodd;clip-rule:evenodd;fill:#059669;}
	.st1{fill:#059669;}
	.st2{fill:none;}
	.st3{fill:#699672;}
	.st4{fill:#0369A1;}
</style>
<g>
	<g>
		<polygon class="st0" points="186.5,200.3 186.5,196.7 0,196.7 0,200.4 		"/>
		<path class="st1" d="M266.5,180.3h7v29.8h13.5v-29.8h7v29.8h2.9v13.9h-5.9v-7.8h-24.6V180.3z M249.8,201.9l-4.8-13.3l-4.7,13.3
			H249.8z M262.7,216.1h-7.6l-3-8.1h-13.9l-2.9,8.1h-7.4l13.5-35.8h7.4L262.7,216.1z M207.5,195.2h10.9c-0.3-2.7-1.1-4.9-2.6-6.6
			c-1.4-1.8-3.4-2.7-5.9-2.7c-1.9,0-3.4,0.5-4.7,1.6c-1.3,1.1-2.2,2.5-2.7,4.3l-6.9-1.7c0.7-3.2,2.3-5.7,4.7-7.6
			c2.4-1.9,5.6-2.9,9.4-2.9c5,0,9,1.7,11.8,5.2c2.8,3.5,4.3,8,4.3,13.5c0,3.8-0.7,7-2,9.8c-1.3,2.7-3.1,4.8-5.4,6.3
			c-2.3,1.5-5.1,2.2-8.3,2.2c-7.9,0-12.8-3.9-14.6-11.6l7-2.2c0.4,2.6,1.3,4.5,2.7,5.7c1.4,1.2,3.1,1.9,5.1,1.9
			c2.1,0,3.8-0.7,5.3-2.2c1.5-1.5,2.4-3.8,2.8-7.1h-10.9V195.2z"/>
	</g>
	<g>
		<path class="st2" d="M62.5,139.3c0.4-1.2,0.6-2.5,0.6-3.9c0-2-0.4-3.7-1.2-5.2c0.8,1.5,1.2,3.2,1.2,5.2
			C63,136.7,62.8,138,62.5,139.3z"/>
		<path class="st2" d="M59.8,120.2c-0.6,0.9-1.4,1.7-2.4,2.5v0C58.3,121.9,59.1,121,59.8,120.2z"/>
		<path class="st2" d="M49.6,100.6c1.7-2.1,3.9-4.4,4.8-4.9c4.6-2.6,8,0.5,11.6,1.7c5.9,1.8,13.1,1.2,15.2-5.8
			c0.5-1.5,2.1-3.9,3.3-4.5c-0.4,2.1-2.8,8.2-4.8,10c-3.4,3-6.4,3-11.2,1.7c-8.2-2.2-10.8-4.2-16.3,1.1c-0.3,0.3-0.7,0.7-1.1,1
			c2,0.3,3.8,0.9,5.4,1.7c0.4-0.7,0.8-1.3,1.2-1.7c0.7,0.2,7.6,2.6,8.2,3.4c-0.6,0.4-1.5,0.3-2.2,0.3l-4.2,0c0,0,0,0,0.1,0
			c1.7,1.5,3,3.1,3.8,4.9c0.5-0.2,1-0.4,1.7-0.6c3.9-1.2,7.7-1,11.5,0.5c0.4,0.2,0.8,0.3,1.2,0.5l1.7-4.5c-0.9-0.5-1.8-0.9-2.3-1
			c0.4-0.9,0.8-0.9,1.6-1.5c1.7-1.1,4.1-2.6,5.3-4.1c1.3-1.6,3.2-5.8,3.7-8.4l0.6,0c-0.2,3.3,0.1,4.3-1.4,7c-1,1.7-2,2.7-3.1,3.9
			h6.1l2.4-7.2c1.6-4.1,2.2-5.9,6.1-7.8c3.4-1.7,6.4-2.8,10-3.9c2.7-0.8,3.8,0.4,4.8,1.8c6.3,8.9,12,15.7,25,17.2c0,0,0,0,0,0h9.8
			c1.7,0,3,1.3,3,3v0.2c1.4,0.1,3.1,0,4.9-0.3c8.2-1.2,11.1-5.1,15.3-5.6c2.7-0.3,4.2,0.5,6.7,0.6c3.9,0.2,10-1,13.4,0
			c7.9,2.4,15.3,1.5,22.4-2.9c5.4-3.4,6.9,2.1,15.2,5h7.1c1,0,1.9,0.5,2.4,1.3c1.5-0.1,2.6-0.2,4.4,0.7c1.4,0.7,1.6,0.4,1.6,1.9
			c-0.7,0.7-2.9,1.2-5.5,2.2v5.2c3.2-1.4,5.9-2.7,9.2-4.6c1.5-0.8,3.3-1.5,4.6-2.6c-0.5-0.9-6.7-5.6-8-6.5c-2-1.4-2.6-1.7-5.4-1.2
			c-6.7,1.2-11.6-1.1-16.3-4.9c-1.3-1-2.8-2.1-5.1-2.2c-3-0.1-3.6,0.8-5.5,1.5c-0.2,0.1-0.5,0.2-0.7,0.3l-0.6,0.5
			c-6,2.1-8.2,3.6-16.4,2.4c-1.7-0.2-7-1.9-7.9-1.7c-1.1,0.3-1.9,0.9-3.6,1.2c-5.4,0.9-9.2-1.6-12.6-1.8c-2.4-0.2-3,1.7-6.2,3.4
			c-4.4,2.5-10.2,3.8-16.1,2.9c-3.1-0.5-4.7-1.2-7.3-2.5c-2.8-1.4-11.2,0.9-19.9-9.2c-3.9-4.4-4.5-8.5-6.5-10.2
			c-0.3,1.3-1.5,2.2-2.9,2.2h-8.6c-1.7,0.8-3.9,1.7-4.7,1.8l-0.3-1.2l1.5-0.6H88.7L84.3,82c-1,0.1-0.3,0.2-0.6-0.2
			c-0.5-0.5,0.4-1.3,1.8-2.1h-5.8c-0.3,0-0.6-0.1-0.8-0.1c-0.6,2.6-1.1,5.8-1.4,7.3c-1,4.8-1.2,6.6-6.8,6.5C67.7,93.3,65.1,93,63,91
			c-0.6-0.5-0.8-1.1-1.5-1.6c-3.1-2.2-8,0.6-9.7,2.1l-0.6,0.6l-7.2,8.4c0.7,0,1.4-0.1,2.2-0.1C47.4,100.4,48.5,100.5,49.6,100.6z"/>
		<path class="st2" d="M58.9,144.5c-1,0.9-2.3,1.6-3.7,2.1C56.6,146.1,57.8,145.3,58.9,144.5c1.7-1.5,2.9-3.2,3.6-5.2
			C61.8,141.3,60.6,143,58.9,144.5z"/>
		<path class="st2" d="M33,143.5c0.5,0.6,1.1,1.2,1.7,1.6C34.1,144.6,33.5,144.1,33,143.5z"/>
		<path class="st2" d="M46.1,140.9c-0.5,0-1,0-1.4-0.1C45.1,140.9,45.6,140.9,46.1,140.9L46.1,140.9z"/>
		<path class="st2" d="M175.6,127.1l-1.6-4.3l-1.5,4c0.1,0.1,0.2,0.2,0.3,0.3H175.6z"/>
		<path class="st2" d="M53.2,132.1c0.6,0.8,0.8,1.8,0.8,2.9c0,1.2-0.4,2.2-1.1,3.2c0.7-1,1.1-2,1.1-3.2
			C54,133.9,53.8,132.9,53.2,132.1z"/>
		<path class="st2" d="M268.3,81.4c-0.2,0.8-0.9,1.7-1.6,2c-1.2,0.6-1.8,0-3.1-0.1l0-0.5c2.6-0.4,3.8-1.7,3.9-3.6
			c-2.6,0.9-5.4,1.4-8.5,1.4c-2.5,0-4.9-0.3-7.1-0.9c-0.8-0.1-1.6-0.2-3,0c-1.6,0.2-2.8,0.4-4.5,0.5c-3.5,0.1-6.1-0.9-6.9-3.1
			c0.7-0.9,2.5-2.4,4-3.8c-0.7-0.8-1.3-1.6-1.9-2.5c-4.6,0.6-3.5,2.4-4.8,4.1c-2.2,0.2-2-0.4-5.6-1.6c-6.3-2-11.2-1.3-16.2-1.1v4.5
			c0,0.2,0,0.4-0.1,0.6c1.8-0.2,3.4-0.2,4.3-0.3c-0.7-0.6-1.8-0.9-2.7-1.1c-0.2-0.4,0-0.3-0.2-0.6c16.2,0.3,16.4,9.1,21.5,8.7
			c2.7-0.2,4-2.3,8.2-1.4c3.9,0.8,2.9,3,7,3.1c9.8,0.3,0.5,12.6,19.1,1.4c2.5-1.5,3.5-2.6,5.1-4.9c0.7-1,2.6-1.3,3.9-0.7
			c2.5,1.3,3.8,7.9,3.5,11.6c-0.3,3-2.2,5.1-1.3,8.2c0.8,2.9,2.1,2.7-1.9,6.5c-2.5,2.3-3.2,2.1-6.7,3.3c-3.3,1.2-6.2,2.8-9,4.5
			c0.5,0.2,1,0.6,1.3,1l0.6,0.8c0.4-0.3,0.9-0.6,1.5-0.9c2.4-1.2,6.6-1.1,8.3-2.5l6.2-4.4c1.2-0.6,2.2-1.4,2.1-3.2
			c-0.1-3,0.5-1.9,1.6-3.8c-1.3-1.2-3.6-1.3-2.6-4c0.7-2,2.2-2.5,2.6-4.9c0.6-3.1-3.8-4.1-1.5-7.9c0.8-1.2,1.3-1.1,1.8-2.1l-6.8-5.5
			c-1-0.8-2.6-2.2-4.2-3.2c-1.8,1.6-3.8,2.9-6.1,3.8C268.5,79.6,268.5,80.5,268.3,81.4z"/>
		<polygon class="st2" points="109.7,147.2 109.7,147.2 108.7,144.8 108.7,144.8 		"/>
		<polygon class="st2" points="86.5,126.1 89.3,127 87.7,122.8 		"/>
		<path class="st2" d="M69.8,115.4c-1.7,0.3-2.5,1.1-3.9,1.6c-0.6,0.2-1.1,0.3-1.6,0.4c-0.4,1.6-1,3.1-2,4.5
			c-0.2,0.3-0.4,0.5-0.6,0.8c2.1-0.2,4.1-0.7,5.7-1.8c2.4-1.6,4.3-1,6.1-0.2l1.6-4.1C73.6,115.7,72,115,69.8,115.4z"/>
		<path class="st2" d="M54.5,124.5c1.8,0.6,3.3,1.4,4.5,2.3C57.8,125.9,56.2,125.1,54.5,124.5c0.1-0.1,0.3-0.2,0.4-0.2v0
			C54.7,124.4,54.6,124.4,54.5,124.5z"/>
		<path class="st2" d="M46.1,110.5L46.1,110.5c0.5,0,1,0,1.5,0.1C47.1,110.6,46.6,110.5,46.1,110.5z"/>
		<path class="st2" d="M52.7,116.8c-0.1,0.7-0.2,1.4-0.5,1.9C52.5,118.2,52.6,117.5,52.7,116.8z"/>
		<path class="st2" d="M44.8,122.6c-0.1,0-0.2,0-0.3,0C44.6,122.6,44.7,122.6,44.8,122.6L44.8,122.6z"/>
		<polygon class="st2" points="30.6,113.9 35.1,115 35.1,115 		"/>
		<path class="st2" d="M46.3,122.5C46.3,122.5,46.3,122.5,46.3,122.5C46.3,122.5,46.3,122.5,46.3,122.5L46.3,122.5z"/>
		<path class="st2" d="M40.8,112.6c0.5-0.6,1.1-1,1.8-1.4C41.9,111.6,41.3,112.1,40.8,112.6z"/>
		<polygon class="st2" points="43.5,122.6 43.5,122.6 43.5,126.1 43.5,126.1 		"/>
		<rect x="43.5" y="128.8" class="st2" width="0" height="0.4"/>
		<path class="st2" d="M52.7,116.1c0,0.2,0,0.5,0,0.7C52.7,116.6,52.7,116.3,52.7,116.1C52.7,116.1,52.7,116.1,52.7,116.1
			L52.7,116.1C52.7,116.1,52.7,116.1,52.7,116.1z"/>
		<path class="st2" d="M40.5,122.6c0-1.7,1.3-3,3-3h1c0.5,0,1,0,1.4-0.1l0.9-2.4c0.9,0.1,1.6,0.5,2.3,0.9c0.4-0.5,0.6-1.2,0.6-2
			c0-0.3-0.1-0.6-0.2-0.9c-2.1-0.6-4.2-1.2-5.5-0.5c-1.2,0.6-2,2-2.6,3.4c-0.5,1.2-1.7,3.5-1.8,4.3l-0.7-0.1
			c-0.4-1.1-1.4-2.6-2.1-3.6c-0.1-0.1-0.1-0.2-0.2-0.3l-5.8-1.4c0.6,1.5,2.2,4.8,2.4,5.8c0.5,0.8,0.1,0.5,0.9,0.8
			C38.1,124,37,128,37,129c1.6,0.4,2.7,0.6,3.5,0.5c0-0.1,0-0.3,0-0.4V122.6z"/>
		<rect x="38.2" y="114.9" class="st2" width="0" height="1.7"/>
		<path class="st2" d="M52.3,114c0,0,0-0.1,0-0.1C52.3,114,52.3,114,52.3,114L52.3,114z"/>
		<path class="st2" d="M146.9,150.2l-0.1,0.5c-1.9,1.3-4.7,0.5-6.5-0.5h-1c-1.7,0-3-1.3-3-3v-0.3c-0.6-0.7-1.3-1.3-2.3-2.1
			c-1.9-1.5-5.3-3.6-8.6-4.9v4.2c3.4,2.1,8,5.7,9.4,6.8c3.1,2.6,6.9,6.8,10.2,4.5c2.4-1.7,0.5-1.2,4-1.2c0.3,0.2-0.3,0.1,0.7,0.4
			c0.8,0.2,0.3,0,0.8,0l0.2-1.5c0.1-2.9,0.4-2-0.7-3.6c-0.5,0.5-1.2,0.7-2,0.7H146.9z"/>
		<path class="st2" d="M211.9,137.4L211.9,137.4c1.8-6,2.7-14.6,2.7-25.9h12.7v0h-12.7C214.7,122.8,213.7,131.4,211.9,137.4z"/>
		<path class="st2" d="M245.2,134.2c-1.8,2.5-0.6,3.5-0.7,5l4.2-7.3l-0.4-0.7C247.3,132.1,246.1,133,245.2,134.2z"/>
		<path class="st2" d="M223.9,119.4c0.2-0.2,0.4-0.5,0.5-0.7v-4.3h-3.9c-0.5,0.5-0.9,1-1.1,1.3c-0.4,0.5-1.2,1.5-1.9,2.4
			c-0.2,6.4-0.8,11.8-1.8,16.2c0.3-0.3,0.5-0.6,0.7-0.9C219.1,129.7,218.6,126.4,223.9,119.4z"/>
		<path class="st2" d="M52.2,139.1c0.3-0.3,0.6-0.6,0.8-0.9C52.7,138.5,52.5,138.8,52.2,139.1z"/>
		<path class="st2" d="M53.2,132.1c-0.2-0.3-0.5-0.6-0.8-0.9C52.7,131.5,53,131.8,53.2,132.1z"/>
		<path class="st2" d="M211.4,139c-0.1,0.3-0.2,0.6-0.4,0.9h0C211.2,139.6,211.3,139.3,211.4,139C211.4,139,211.4,139,211.4,139z"/>
		<path class="st2" d="M37.7,134.7L37.7,134.7c0.5,1.6,1.1,2.9,1.9,3.8C38.9,137.6,38.3,136.3,37.7,134.7z"/>
		<polygon class="st2" points="271.9,131.9 262.6,145.2 256.1,145.2 256.1,145.2 262.6,145.2 271.9,131.9 264.8,121.6 264.8,121.6 
					"/>
		<polygon class="st2" points="263.5,119.8 263.5,119.8 262.6,118.4 		"/>
		<path class="st2" d="M55.2,146.6c-1.9,0.7-4.2,1.2-6.8,1.3C51,147.8,53.2,147.3,55.2,146.6z"/>
		<path class="st2" d="M59,126.8c0.5,0.4,0.9,0.8,1.3,1.2C59.9,127.6,59.5,127.2,59,126.8z"/>
		<polygon class="st2" points="244.5,145.2 244.5,145.2 251,145.2 260.3,131.9 251,145.2 		"/>
		<rect x="170" y="117" class="st2" width="5.9" height="0"/>
		<path class="st2" d="M208.5,150.2v0.1c0.2,0,0.3-0.1,0.5-0.1H208.5z"/>
		<polygon class="st2" points="161.8,147.2 162.7,144.9 162.7,144.9 		"/>
		<path class="st2" d="M215.5,136.9h4.8c1.1-1.9,2.7-4.6,4.1-6.7v-8.4c-1.8,2.6-3.2,5-4.8,8.3C218.3,133,217.4,135.3,215.5,136.9z"
			/>
		<rect x="161.9" y="140.7" class="st2" width="4.7" height="0"/>
		<polygon class="st2" points="169.4,126.4 168.1,130.1 169.4,126.4 		"/>
		<rect x="170.6" y="121.5" class="st2" width="0" height="3.7"/>
		<path class="st2" d="M186.5,150.2c-1.2,0-2.3-0.7-2.7-1.8c-2.1,0.7-3.8,1.4-6.7,1.7c0-4.2-1.2-7.1-3-9.7h-5.2
			c0.2,0.2,0.3,0.4,0.4,0.5c4.6,6.9,2.1,10.6-0.4,16c1.1,0.9,5.4,2.3,7.5,1.4c1.4-1.6,0.6-2.8,3.4-4.3c2.2-1.2,10-2.9,13.1-2.7
			c1,0.1,1.8,0.2,2.4,0.4v-1.7H186.5z"/>
		<path class="st2" d="M222.6,136.9h1.8v-2.3c-0.2,0.3-0.4,0.5-0.6,0.7C223.4,135.9,223,136.4,222.6,136.9z"/>
		<path class="st2" d="M50,129.8c-1-0.3-2.1-0.5-3.5-0.6C47.8,129.2,49,129.4,50,129.8z"/>
		<path class="st2" d="M217.6,114.5c0,0.7,0,1.4-0.1,2.2c0.5-0.7,1-1.4,1.4-2.2H217.6z"/>
		<path class="st2" d="M221.4,152.1l0.3-0.6c0-0.4,0-0.8,0-1.2h-4.5c1.2,0.4,2.2,0.9,3.6,1.4C221,151.8,220.8,151.8,221.4,152.1z"/>
		<path class="st2" d="M221.7,153.4c-2.9-0.3-3.5-2.7-8.1-2.6c-1.7,0-3.4,0.4-5.1,0.8v4.9c0,0,0,0,0,0c3-1.3,5.1-2.4,10.3,0.4
			c1.2,0.7,4.1,2.5,5.3,2.6c0.6-1.9,1.5-3.6,2.2-5.9c0.3-1,0.7-2.3,1.1-3.5h-4.5L221.7,153.4z"/>
		<path class="st2" d="M239.2,130.1v6.9h0.8c0.7,0,1.4,0.3,1.9,0.7c0.6-1.3,1.1-2.6,1.9-3.7c0.8-1.2,2.2-2.8,3.7-4.1l-2.6-4.6
			C242.3,126.2,240.4,128.4,239.2,130.1z"/>
		<path class="st2" d="M152.6,134.1c-0.5,0.3-1,0.7-1.5,1.1v5.3c0.4-0.2,0.8-0.5,1.2-0.7l2.8-7.2C154.1,133,153.2,133.6,152.6,134.1
			z"/>
		<path class="st2" d="M151,121.3v4.7c1.1-0.8,2.2-1.5,3.3-2.2c1.8-1.1,3.1-1.8,5-2.1l1.2-3c-2.3,0.3-5.1,0.9-5.7,1.1
			C153.3,120.3,152.1,120.8,151,121.3z"/>
		
			<rect x="103.9" y="130.5" transform="matrix(0.9275 -0.3738 0.3738 0.9275 -42.0925 48.4506)" class="st2" width="0" height="4.5"/>
		<path class="st2" d="M156.1,112.4c1.6-0.3,3.4-0.5,5.2-0.6c0.6,0,1.3,0,2,0l0.9-2.4c-2.1,0.6-4.5,1.4-5.4,1.5
			c-3.4,0.7-5.3,0.6-7.7,0.5v2.4C152.7,113.2,154.5,112.7,156.1,112.4z"/>
		<path class="st2" d="M191.8,128.9l2,4.9c1,0.1,2.1,0.2,3.5,0.5c1,0.2,2.2,0.6,3.4,0.9c0.5-1.4,0.9-3,1.2-4.5
			c-0.1,0-0.2-0.1-0.4-0.1C197.3,129.3,194.2,129.1,191.8,128.9z"/>
		<path class="st2" d="M161,112.9c-4.7,0.2-7.5,1.2-9.9,2.1v4.7c1.3-0.4,2.6-0.8,4-1.1c2.2-0.5,3.9-0.6,5.8-0.7l2-5
			C162.2,112.9,161.6,112.9,161,112.9z"/>
		<path class="st2" d="M194.4,135.4l1.2,3c0.5-0.9,1.5-1.5,2.6-1.5h1.7c0.1-0.1,0.1-0.3,0.1-0.4c-1.2-0.3-2.4-0.7-3.6-0.9
			L194.4,135.4z"/>
		<rect x="96.4" y="110.6" class="st2" width="0" height="7.3"/>
		<rect x="100.5" y="119.6" class="st2" width="0" height="9.5"/>
		<rect x="93.6" y="104.5" class="st2" width="0" height="5.6"/>
		<path class="st2" d="M182.8,100.8c-4.2,1.4-7.3-1.8-12.6-0.4c-5.6,1.4-8,6.2-19.2,5.2v4.8c2.6,0.2,5.1,0,7.8-0.5
			c1.7-0.3,3.5-0.9,5-1.4c0.2-0.1,0.4-0.2,0.7-0.2l2.1-5.3c0.4-1.2,1.6-1.9,2.8-1.9h9.2c1.2,0,2.3,0.7,2.8,1.9l0.9,2.1
			c0.8,0,1.7,0,2.3,0c2.3,0.1,4.6,0.1,6.8,0.2c4.2,0.3,6.7,1,10.7,0.8c0.1,0,0.3,0,0.6,0c0.2,0,0.4,0,0.6,0v-1.9
			c0-1.4,1-2.6,2.3-2.9C196.5,103,188.4,99,182.8,100.8z"/>
		<path class="st2" d="M191,107l-8.2-0.4l8.5,21.2c0.7,0.3,1.6,0.4,2.6,0.6c2.5,0.3,4.4-0.4,6.8,0.1c0.5,0.1,1,0.3,1.4,0.4
			c0.1-0.7,0.2-1.4,0.3-2.1c0.6-4.7,0.8-10.8,0.8-18v-1.6C199.1,107.2,195.4,107.2,191,107z"/>
		<path class="st2" d="M213.6,98.2c-2.6,1.6-5.2,2.6-7.7,3c0.1,0,0.3,0,0.4,0h18.6C219,98.4,219.1,94.8,213.6,98.2z"/>
		<path class="st2" d="M76.3,110.7c-1.6-0.6-3.4-1-5.5-1.1c-2-0.1-4,0.3-5.9,0.8c-0.4,0.1-0.7,0.2-1,0.3c0.4,1.2,0.6,2.6,0.6,3.9
			c0,0.3,0,0.5,0,0.8c1.9-0.5,4.1-1.2,6.1-1.3c1.8-0.1,3.4,0.2,4.7,0.8c0.1,0.1,0.2,0.1,0.3,0.2l1.5-4
			C76.8,110.9,76.5,110.8,76.3,110.7z"/>
		<path class="st2" d="M61.3,112.4c0.2,0.7,0.2,1.4,0.2,2.2l0,0C61.5,113.8,61.5,113.1,61.3,112.4z"/>
		<path class="st2" d="M151,132.9c1.4-0.8,3.1-1.5,4.7-2.1l2.5-6.5c-2.6,0.4-5.1,2-7.3,3.5V132.9z"/>
		<path class="st2" d="M241.2,104.9c1.1-0.6,0.5,0,0.7-0.7c-0.6-0.4-1.5-0.5-2.8-0.5c0,0.2,0.1,0.4,0.1,0.6v1.5l1-0.4
			C240.4,105.2,241,105,241.2,104.9z"/>
		<path class="st2" d="M61,111.5c0.1,0.3,0.2,0.6,0.3,0.9C61.2,112.1,61.1,111.8,61,111.5C61,111.5,61,111.5,61,111.5z"/>
		<path class="st2" d="M239.2,128.3C239.2,128.3,239.2,128.3,239.2,128.3c1.1-1.4,1.8-2.4,3.2-3.4c0.7-0.5,1.2-0.8,1.7-1.1l-2.2-3.9
			c-0.1-0.2-0.2-0.5-0.3-0.7c-0.7,0.1-1.6,0.6-2.4,1.2V128.3z"/>
		<path class="st2" d="M196.9,78c-0.5,1-1.5,1.7-2.7,1.7h-2.5c2.5,2.9,8.2,3,12.7,3c-1,1.2-3.7,1.4-5.2,1.4
			c-2.1,0.1-3.9-0.2-5.5-0.8c-2.1-0.8-3.2-2.8-4.6-3.6h-2.5c-0.2,0.1-0.4,0.2-0.6,0.4c-3.3,2.4-1.6,4.1-8.6,2.7
			c-1.8-0.4-3.7-0.5-5.5-0.7c-2.3-0.3-4.1-0.5-3.6-1.9c0.6-0.3-0.2-0.2,0.9-0.2c1.4,0,10.1,1.9,12.9,1.9c0.5-0.9,1.2-1.6,2-2.2h-6.2
			c-0.4,0.4-0.8,0.7-1.3,0.9l0.2-0.9H162c-0.1,0-0.3,0-0.4,0c0,0.1-0.1,0.2-0.1,0.3c-0.3,1.4-1.4,4.4-2.2,5.4
			c-1.5,1.9-3.1,1.6-5.7,1.8c-0.7-0.6-0.2-0.1-0.5-0.7c0.5-0.1,2.5-1.1,3.2-1.4c1.1-0.5,1.9-1,2.6-1.9c1-1.4,0.8-2.8,1.1-4.1
			c-0.7-0.6-1.1-1.4-1.1-2.3v-5l-0.6,0c-1.3,0-1.3-0.1-1.5,1.2c0,1.4-0.3,3.3-0.5,4.6c-0.2,1.5-0.9,3.2-1,4.3l-0.8,0.7
			c-2.5,1.7-4.1-2.1-7.5-3.7c-0.9,0.3-1.8,0.5-2.8,0.6c-1.6,0.2-5,0.3-10.6,0.3H133c0.7,0.6,1.5,1.2,2.1,1.6c3.9,3,3.6,0.8,7.7,0.3
			c0.7,0.6,1.3,1.8,2,2.7c1.7,1.9,6.8,4.5,9.5,5.2c8.1,2,12.4-4.4,14.2-4.7c2.7-0.4,6.5,5.1,15.8,2.1c4.4-1.4,2-2.4,6.7-0.3
			c1.7,0.8,5.2,2.2,7.4,2.2c0.3,0.2,0.1,0.2,0.7,0.4c0.1,0,0.4,0.1,0.4,0.1c-1.5-0.2-3.2,0.1-4.7,0.1c-3.3-0.2-2.4-3.2-11.1-0.9
			c-7,1.8-10.4-2.5-15.3-1.1c-0.2,0-0.4,0.1-0.5,0.1c0,0,0,0-0.1,0c-0.4,0.2-0.3,0.2-0.5,0.3c-3.1,1.3-11.3,9.7-21.9,4.6
			c-1.1-0.5-1.7-1-2.6-1.5c-1.8-0.9-5.2-0.1-7.7-0.7c-4.5-1.1-9.8-6.5-12.5-10.5h-3.5c-0.6,0-1.1-0.2-1.6-0.5
			c2.9,5.1,8.4,11.2,12.6,13.7c4.9,2.9,8.3,1.6,11.2,2.4c2.5,0.7,4.8,3.1,10.4,3.3c11.4,0.5,14.5-8.1,20.4-6.4
			c13.6,3.9,12.5-1.1,17.5,0.3c1.6,0.5,3.3,1.1,5.2,1.5c4.3,0.9,7.9,0.9,11.8-0.7c4.4-1.8,5-4.3,9-4.6c4.6-0.4,7,2.3,9.5,4.1
			c10.1,7.1,15.8,1.2,21.6,5.7c1.4,1.1,2.1,2,3.9,3c1.4,0.8,3,1.4,4.4,2.2c0.3,0.4,0.3,0.5,0.6,0.8c-0.9,1.1-6.9,5.9-8.6,5.9
			l-1.1,0.6c0,0-0.1,0.1-0.2,0.1l-0.3,0.2c-2.5,0.9-4.5,1.6-6.4,2.4v5c0.8-0.4,1.6-0.8,2.5-1.1c0.1-0.3,0.2-0.5,0.3-0.7
			c0.5-0.9,1.5-1.5,2.6-1.5h2.8c5.6-2.6,8.4-5.5,13.8-8.4c3.3-1.7,6.7-3.2,9.8-4.7l0.6-7.8c-1.5,0.3-4.1,1.7-5.6,2.4
			c-7.9,3.5-10,3.4-16.4-2.1l-0.6-0.6c-3.8-3.9-9-2-11.6-2.1c-7.7-0.2-12.4-5.5-15.5-6.3c-1-0.2-5.7-1.2-6.3-1.2
			c-3.9,0.1-6.3,4.1-10.8,4.2l-1.3-0.1c5.3-1.9,4.7-2.9,8-4.4c2.2-1,8.1-2.2,10.8-1.5c3.6,0.9,3.4,3.6,6.8,5.7c3,1.9,6.8,2,10.9,1.9
			c12.4-0.3,10.3,7.1,17.8,7.3c3.4,0.1,10-3.6,13.4-5.3c1.1-0.5,3.4-1.8,4.4-2c0.3,0.2,0.5-0.2,0,0.4c-0.1,0.9-3.2,4.3-3.3,8.1
			c0,1.5,0.5,2.6,0.5,3.4c0,2.7-4.1,1.8-10.1,5.2c-3.7,2.1-8.3,5.8-11.7,7.9c1,0,1.8,0.5,2.4,1.3l0.1,0.1c0.5-0.9,1.5-1.4,2.6-1.4
			h4.3c2-1.3,4.1-2.6,5.3-3.3c5.7-3.4,5.9-0.9,11.5-4.8c3-2,3.5-2.5,3.2-4.8c-0.5-3.3-1.7-2.8-0.2-6.2c1.9-4.3,0.1-9.2-1.3-12.9
			c-1.8,0.4-3.3,1.1-4.3,2.4c-0.7,0.9-2.5,2.5-3.8,3c-0.8,0.3-1,0.4-1.4,0.9c-2,0.5-7.9,3.8-9.3,3.9c-2.9,0.1-5.7-4.3-6.7-6.5
			c-0.1,0-0.2,0.1-0.5,0.2c-1.3,0.4-3.9-0.8-5.1-1.3c-1.6-0.6-4.2-2.1-5.6-2.2c-2.2-0.2-3.3,1.6-6.2,1.7c-2.7,0.1-4.6-1-5.7-2.3
			c-1.5-1.8-1.5-2.7-3.9-3.7c-4.4-1.9-9.3-2.3-13.9-1.1c-0.5,0.7-1.4,1.2-2.4,1.2h-0.9c-0.6,0.3-1.3,0.7-1.9,0.8
			c-0.8,0.3-0.2,0.1-0.4-0.2l0.2-0.7h-5.6c-1.1,0-2-0.6-2.6-1.5c-0.3,0-0.7,0-1-0.1C197.6,78.1,197.2,78.1,196.9,78z"/>
		<path class="st2" d="M110.7,141.6v-8c-1.1-1.1-2.5-2-4.2-2.4L110.7,141.6z"/>
		<path class="st2" d="M104.2,114.5c1.6,0.9,4.2,2.7,6.5,3.9v-5.1c-2.1-1.3-4.2-2.9-6.2-4.3c-3.7-2.6-4.6-2.9-8.4-3.5l2.2,5.4
			C100.4,111.8,102,113.2,104.2,114.5z"/>
		<path class="st2" d="M57.7,106.8c-2.1-1.8-5-2.9-8.8-3.2l0,0C52.6,103.9,55.6,105,57.7,106.8c1.1,1,2,2,2.6,3.1c0,0,0,0,0,0
			C59.6,108.8,58.8,107.7,57.7,106.8z"/>
		<path class="st2" d="M99,112.6l3.5,8.7c4.7,3.3,6.4,2.9,7.7,3.8c-3.3,0.1-5.1,0.2-6.3-0.2l1.9,4.6c1.2,0.1,2,0.1,3.2,0.6
			c0.6,0.2,1.2,0.6,1.7,1v-11.1c-2.4-1.2-5.4-2.9-6.5-3.6C102.4,115.1,100.9,113.7,99,112.6z"/>
		<path class="st2" d="M108.7,110.1c0.9,0.9,1.4,1.4,2,1.9v-6.3c-2.8-1.5-6.4-3.6-8.5-4.7c-1.2-0.6-3.4-1.3-4.2-1.9
			c-0.2-4.6,4.1-9,8.2-9.4c4.2-0.4,5.7,3.3,10.1,7.5c0.9,0.9,2.9,2.5,5,4h10.2c-7.5-2-12.8-7.1-17.4-13.5c-2.3-3.2-2.1-5-6.7-3.3
			c-2.9,1.1-5.9,2-8.5,3.3c-3.6,1.8-3.8,2.7-5.2,6.6c-0.6,1.7-1.7,4.6-2.4,7h1c1.2,0,2.3,0.7,2.8,1.9l0.3,0.6
			c3.1,0.4,5.7,1.3,8.6,2.9C105.6,107.6,107.4,108.9,108.7,110.1z"/>
		<path class="st2" d="M104.3,91.9c-2,1-4.5,3.4-4.6,6.1c1.5,1.2,5.2,2.4,7.2,3.7c1.2,0.7,2.5,1.7,3.8,2.6c0-1.6,1.4-3,3-3h5
			c-0.6-0.5-1.2-1-1.9-1.6C109.9,94,109.4,89.3,104.3,91.9z"/>
		<polygon class="st2" points="175.5,140.4 179.2,147.8 183.3,147.3 180.7,140.4 		"/>
		<rect x="191.9" y="134.9" class="st2" width="0" height="5"/>
		<rect x="236.2" y="135" class="st2" width="0" height="5"/>
		<rect x="189.4" y="128.1" class="st2" width="0" height="5.8"/>
		<rect x="194.6" y="141" class="st2" width="0" height="5.9"/>
		<rect x="183.3" y="105.8" class="st2" width="0" height="20.2"/>
		<rect x="178.8" y="104.2" class="st2" width="0" height="1.1"/>
		<polygon class="st2" points="148,147.2 148,147.2 148,146.3 148,146.3 		"/>
		<rect x="236.2" y="115.2" class="st2" width="0" height="5.4"/>
		<polygon class="st2" points="236.2,122.8 236.2,122.8 236.2,132.2 236.2,132.2 		"/>
		<rect x="233.4" y="111.3" class="st2" width="5.4" height="0"/>
		<polygon class="st2" points="195.9,147.2 195.9,147.1 195.9,147.1 		"/>
		<rect x="236.2" y="104.2" class="st2" width="0" height="2.7"/>
		<path class="st2" d="M136.3,123.7v-5.3c-0.3-0.2-0.7-0.3-1.1-0.5c-1.6-0.5-3.2-0.7-4.8-1.3c-2-0.6-3.6-1.5-4.9-2.3v4.4
			c1.6,0.8,3.2,1.6,4.5,2.4C131.9,122.3,133.9,123.3,136.3,123.7z"/>
		<polygon class="st2" points="148,122.8 148,122.8 148,128 148,128 		"/>
		<rect x="148" y="129.9" class="st2" width="0" height="4.9"/>
		<polygon class="st2" points="148,137.3 148,137.3 148,142 148,142 		"/>
		<polygon class="st2" points="144.5,150.2 145.2,150.4 145.2,150.2 144.4,150.2 		"/>
		<polygon class="st2" points="148,111.3 148,111.3 148,114.6 148,114.6 		"/>
		<rect x="148" y="116.1" transform="matrix(0.8944 -0.4472 0.4472 0.8944 -37.347 78.7106)" class="st2" width="0" height="4.7"/>
		<path class="st2" d="M135.1,129.6c0.4,0.2,0.8,0.4,1.2,0.6v-4.4c-2.6-0.1-4.7-0.3-7.1-1.7c-0.7-0.4-2.3-1.5-3.8-2.5v3.7
			c0.4,0.2,0.7,0.3,1.1,0.5L135.1,129.6z"/>
		<path class="st2" d="M135.6,116.9c0.2,0,0.5,0.1,0.7,0.2v-2.6h-7.4c1,0.5,2,0.9,2.4,1.1C132.6,116.1,134.1,116.6,135.6,116.9z"/>
		<path class="st2" d="M136.3,137v-4.9c-0.4-0.2-0.9-0.5-1.3-0.7c-3.1-1.9-5.4-2.3-8.6-3.4c-0.2-0.1-0.6-0.2-0.9-0.4v4.8
			c2,0.6,3.7,1.4,5.5,2.1C132.2,135,134.4,136.1,136.3,137z"/>
		<path class="st2" d="M131.3,136.5c-1.1-0.4-3.7-1.2-5.9-1.8v3.8c0.4,0.1,0.8,0.2,1.1,0.4c2.2,0.8,3.1,1.4,5.1,2.3
			c0.4,0.4,0.1,0.3,0.9,0.5c0.7,0.7,2.3,1.8,3,2.3c0.2,0.2,0.5,0.4,0.8,0.7v-5.8C134.8,137.9,133.2,137.1,131.3,136.5z"/>
		<rect x="122.4" y="111.5" class="st2" width="16.8" height="0"/>
		<polygon class="st2" points="148,105.3 148,105.3 148,110.1 148,110.1 		"/>
		<path class="st2" d="M51.7,113c-0.2-0.3-0.5-0.6-0.8-0.9c-0.3-0.3-0.6-0.5-1-0.7c0.3,0.2,0.7,0.4,1,0.7
			C51.3,112.4,51.5,112.7,51.7,113z"/>
		<path class="st2" d="M133.4,42.7c-0.2,0-0.5,0-0.7,0h-1.9v4.2h2c0.1-0.3,0.3-0.6,0.4-1C133.4,44.9,133.4,43.8,133.4,42.7z"/>
		<path class="st2" d="M144.3,44.7L144.3,44.7C144.3,44.8,144.3,44.8,144.3,44.7C144.3,44.8,144.3,44.8,144.3,44.7z"/>
		<path class="st2" d="M252.2,55.7c-0.7,0-1.3-0.1-2-0.2c0.1,3.8,1,6.6,2.6,8.5c1.7,1.9,3.6,2.8,6.2,2.8c1.3,0,2.4-0.2,3.4-0.7
			c-0.4-2.4,1.1-3.2,2.1-4.3c1-1.1,0.6-1,2.3-1c0,0,0,0,0,0c0.6-1.8,0.9-3.9,0.9-6.4c0-4.3-0.8-7.5-2.5-9.5c-1.5-1.8-3.5-2.7-6-2.7
			c-0.8,2.3-1.8,4.9-1.3,7.6c0.5,3.4,2.6,5.7,1.4,9.6c-2.8-1.7-7.8-1.6-6.2-3.3l0.3-0.1c0.7-0.1,0.3-0.1,2.4,0.6
			c0.9,0.3,1.8,0.6,2.7,0.8c-0.2-1.2-1-2.7-1.3-3.9c-1.5-5.5-0.6-7.6,0.2-11.2c-1.9,0.3-3.4,1.2-4.7,2.6c-1.6,1.9-2.5,5-2.5,9.2
			C250.9,54.5,251.6,54.9,252.2,55.7z"/>
		<path class="st2" d="M264,65.1c0.4-0.3,0.8-0.7,1.1-1.1c0.2-0.3,0.5-0.6,0.7-0.9l-0.4,0.2C264.9,63.9,264.3,64.2,264,65.1z"/>
		<path class="st2" d="M134.5,46.9c3.4,0,4.4-0.1,4.7-0.1c0,0,0,0,0,0c-0.1-0.4-0.2-0.9-0.3-1.6c-0.1-0.8-0.2-1.6-0.2-2.4
			c-0.7,0-1.9-0.1-3.9-0.1C134.9,44.3,134.8,45.7,134.5,46.9z"/>
		<path class="st2" d="M269.2,75.1c0.7-0.4,1.4-0.9,2.1-1.4h0C270.6,74.3,270,74.8,269.2,75.1z"/>
		<rect x="170.5" y="49.7" class="st2" width="0.3" height="0"/>
		<path class="st2" d="M141.3,44.7c0-1-0.3-1.3-0.4-1.4c0,0,0,0,0,0c0.1,0.8,0.2,1.6,0.3,2.4C141.2,45.5,141.3,45.2,141.3,44.7z"/>
		<path class="st2" d="M152.6,43.5c0-1.9-0.4-3.6-1.3-5.2C152.2,39.8,152.6,41.6,152.6,43.5z"/>
		<path class="st2" d="M148.5,35L148.5,35c0.8,0.7,1.6,1.4,2.2,2.4C150.1,36.4,149.4,35.6,148.5,35z"/>
		<path class="st2" d="M247.2,54.5c0,0.6,0,1.2,0.1,1.8C247.2,55.7,247.2,55.1,247.2,54.5L247.2,54.5z"/>
		<path class="st2" d="M112.5,55.1c1.7-2.2,2.5-5.6,3.7-8.4v-7.6c-1.2,1.1-2.3,2.4-2.9,3.3c-0.9,1.4-1.2,3.5-1.7,5.3
			c0.5,0.5,0.8,1.3,0.8,2.1V55.1z"/>
		<polygon class="st2" points="88.3,49.7 108.3,49.7 108.3,49.7 88.3,49.7 88.3,39.8 88.3,39.8 		"/>
		<polygon class="st2" points="111.1,39.8 111.1,39.8 111.1,32.3 79.7,32.3 79.7,32.3 111.1,32.3 		"/>
		<polygon class="st2" points="168.1,32.3 172.8,32.3 172.8,32.3 168.1,32.3 		"/>
		<path class="st2" d="M256.6,31.6C256.6,31.6,256.6,31.6,256.6,31.6c0.8-0.1,1.5-0.1,2.3-0.1c1.9,0,3.7,0.2,5.3,0.6c0,0,0,0,0,0
			c-1.7-0.4-3.4-0.6-5.3-0.6C258.1,31.5,257.3,31.6,256.6,31.6z"/>
		<path class="st2" d="M273.9,37.6c0.5,0.5,0.9,1,1.3,1.6C274.8,38.7,274.4,38.1,273.9,37.6c-0.6-0.7-1.3-1.3-2-1.8
			C272.6,36.3,273.3,36.9,273.9,37.6z"/>
		<rect x="178.5" y="49.7" class="st2" width="13.2" height="0"/>
		<path class="st2" d="M116.2,59.6v-8.9c-0.7,1.6-1.8,3.6-3.7,5.8v0.6c0,1.7-1.3,3-3,3h-0.3c-0.8,0.9-1.6,1.8-2.2,2.7
			c-1.1,1.6-1.6,2.6-2.6,3.3h7.5c0.1,0,0.2,0,0.4,0C112.3,62.5,114.3,61.2,116.2,59.6z"/>
		<path class="st2" d="M146.7,53.1c1,0.3,2,0.8,2.8,1.3c0,0,0,0,0,0C148.7,53.8,147.7,53.4,146.7,53.1z"/>
		<path class="st2" d="M133.6,76.7c0.5,0,1.1,0,1.6,0C134.7,76.7,134.2,76.7,133.6,76.7L133.6,76.7z"/>
		<path class="st2" d="M173.5,60.9v5.3h13.1c0.6-3.9,2.5-3.7,4.3-6h-16.9c-0.1,0.2-0.3,0.4-0.4,0.7
			C173.6,60.9,173.6,60.9,173.5,60.9z"/>
		<path class="st2" d="M116,61.9c-1.7,2.1-1.4,2.3-1.3,5.6c0,0.3,0,0.6,0,0.9c0.1,0.3,0.2,0.6,0.2,0.9v1.2c0.2,2.1,0.6,4,1.3,5.8
			V61.7C116.1,61.7,116.1,61.8,116,61.9z"/>
		<path class="st2" d="M250.5,65.9c-0.6-0.7-1.2-1.6-1.6-2.5C249.4,64.4,249.9,65.2,250.5,65.9c0.4,0.5,0.9,0.9,1.3,1.3
			C251.4,66.9,251,66.4,250.5,65.9z"/>
		<path class="st2" d="M190,63.1l-0.6,0.7c-0.5,1.1-0.9,1.8-1.1,2.5h3.2c0.1-0.1,0.1-0.2,0.3-0.6c1.9-0.5,2.8-2.8,6.7-1.5V53.9
			c-1.2-1.2-2.1-2.1-3.1-2.8c-0.3-0.6-0.1-0.5-0.6-0.7v1.3c0.1,0.1,0.1,0.1,0.2,0.2c0,1.7,0,2.9-0.2,3.9v1.4c0,1.4-0.9,2.5-2.1,2.9
			C191.8,61.2,190.8,62.3,190,63.1z"/>
		<path class="st2" d="M225,47.1c-0.1,0.4-0.2,0.8-0.3,1.2C224.8,47.9,225,47.5,225,47.1z"/>
		<path class="st2" d="M135,32.3C135,32.3,135,32.3,135,32.3l1.2,0c1.2,0,2.3,0,3.3,0.1c0,0,0,0,0,0c-1,0-2.1-0.1-3.3-0.1H135z"/>
		<path class="st2" d="M198.4,76.7v-11c-0.6-0.4-1.3-0.7-2.4-0.5c-0.8,0.1-1.6,0.5-2.2,1h0.3c1.7,0,3,1.3,3,3v7.3
			C197.6,76.6,198,76.7,198.4,76.7C198.5,76.7,198.4,76.7,198.4,76.7z"/>
		<path class="st2" d="M151.2,18.6c-0.3-0.5,0.4-0.3-0.5-0.4l-0.6,1.7c-0.1,2.7-0.1,1.5,1.1,3.6c1.3,2.4,2,7.3,3.9,11.9
			c0.7,1.6,2.3,4.9,3.8,8V32.3c0-0.6,0.2-1.2,0.5-1.7c-0.2-0.7-0.5-1.5-0.8-2.2C157,24.5,154.1,20.4,151.2,18.6z"/>
		<polygon class="st2" points="171.4,49.7 176.5,49.7 176.5,49.7 171.4,49.7 		"/>
		<path class="st2" d="M220.3,49c0.6-0.2,1-0.6,1.3-1c0.3-0.5,0.5-1.1,0.5-1.8c0-1.2-0.4-1.7-0.6-2.1c-0.5-0.5-1-0.9-1.7-1
			c-0.4-0.1-1.7-0.2-5.6-0.2H213v6.6h1.7C218.9,49.5,220.1,49.1,220.3,49z"/>
		<path class="st2" d="M219.1,52.3c1-0.1,1.8-0.3,2.3-0.5c0.2-0.1,0.4-0.2,0.6-0.3c-0.2,0.1-0.4,0.2-0.6,0.3
			C220.9,52,220.1,52.2,219.1,52.3z"/>
		<path class="st2" d="M130.9,63.4c-0.1-0.2-0.1-0.4-0.1-0.6v3.5h1.2c0-0.1,0-0.1,0-0.2C131.7,64.9,131.2,64.4,130.9,63.4z"/>
		<path class="st2" d="M153.3,81.3l2.6-9.7l0.4-0.9l2.6-0.4v-6.1c-0.4-0.1-0.7-0.3-1.1-0.5c-0.1,0-0.1-0.1-0.2-0.1
			c0,0.1,0,0.1,0,0.2c0,2.5-0.5,4.9-1.6,7.2c-1.1,2.4-2.7,4.3-4.6,5.7c-0.7,0.5-1.5,0.9-2.2,1.3c0.1,0.1,0.2,0.3,0.3,0.4
			C150.5,79.7,151.5,80.7,153.3,81.3z"/>
		<path class="st2" d="M142.4,76.5c-0.3,0-0.6,0-0.9,0C141.8,76.6,142.2,76.5,142.4,76.5C142.4,76.5,142.4,76.5,142.4,76.5z"/>
		<path class="st2" d="M147.1,75.7c-0.2,0.1-0.5,0.1-0.8,0.2v0C146.6,75.8,146.9,75.8,147.1,75.7z"/>
		<path class="st2" d="M133.2,63.2c0.1,1,0.2,2,0.3,3h2.2c4.1,0,5.1-0.2,5.3-0.2c0.6-0.1,1-0.4,1.4-0.8c0.1-0.1,0.5-0.6,0.5-1.9
			c0-0.7-0.1-1.3-0.4-1.8c-0.3-0.4-0.6-0.7-1.2-0.9c-0.2-0.1-1.5-0.5-6.6-0.5h-1.6C133,61.1,133,61.9,133.2,63.2z"/>
		<path class="st2" d="M159,62v-5c-2.4-1.5-4.1-4.2-5.2-6.3c0,0,0-0.1-0.1-0.1c0,0,0,0.1,0,0.1c-0.4,0.6-0.8,1.2-1.3,1.8
			c1.1,0.8,2,1.7,2.8,2.8c1.2,1.7,2,3.6,2.4,5.7c0.1,0,0.2,0.1,0.4,0.2C158.2,61.5,158.5,61.8,159,62z"/>
		<polygon class="st2" points="130.1,32.3 130.1,32.3 133.2,32.3 133.2,32.3 		"/>
		<path class="st2" d="M240.6,42.8c-0.1,0.2-0.2,0.4-0.3,0.5c-0.3,0.6-0.5,1.3-0.7,1.9c0.2-0.7,0.4-1.3,0.7-1.9
			C240.4,43.2,240.5,43,240.6,42.8z"/>
		<polygon class="st2" points="193.3,32.3 193.3,32.3 174.2,32.3 174.2,32.3 		"/>
		<path class="st2" d="M173.5,46.7h2.3c-0.4-1.3-0.9-2.6-1.3-3.9h-1V46.7z"/>
		<path class="st2" d="M138.1,49.9c0.5,0,0.9,0,1.2-0.1v0C139,49.8,138.6,49.9,138.1,49.9z"/>
		<path class="st2" d="M143.7,32.8c-0.1,0-0.2,0-0.3,0v0C143.5,32.7,143.6,32.7,143.7,32.8c1,0.2,1.9,0.5,2.8,0.9v0
			C145.6,33.3,144.7,32.9,143.7,32.8z"/>
		<rect x="162.3" y="32.3" class="st2" width="4.4" height="0"/>
		<path class="st2" d="M133.4,24.5c1.6-1,3.4-1,5.2-1.8c7.7-3.4,4.1-10.3,6.7-14.1c2.1-3.2,7.4-2.1,11.1-1c0.3,4.7,2,6.4,3.9,9.7
			l0.5,0.8c0.5,0.4,4,5.7,4.7,6.8c1.3,2.1,1.8,3.4,2.1,4.5h4.5c-0.6-1.6-1.3-2.8-2.5-5c-1-1.8-1.6-2.1-2-4.4
			c-0.4-1.8-1.4-3.2-2.5-3.9c-0.3-0.5,0-0.3-0.7-0.6l-1.3-1.2c-0.3-0.7-0.1-0.4-0.6-0.7c-0.9-1.8-1.3-2.2-1.3-4.8
			c0.1-2.3,1.3-2.5,3.4-2.9c-0.1,0-0.1-0.2-0.2-0.1L162.9,5c-3.8-1.1-9.9-3.3-13.4-3.6c-2.5-0.2-4.8,2.2-6.5,3.1
			c-3.1,1.7-3.6,1.9-3.5,6.3c0.4,11.3-5.8,6.8-9.5,10.1c-2.1,1.9-4,5.2-5.3,8.4h5.2C130.6,27.3,131.5,25.6,133.4,24.5z"/>
		<path class="st2" d="M159,45.8c-2.3-4.1-5.2-9.5-5.9-11.2c-0.8-2.1-0.9-5.2-1.5-7c-0.3-0.7-0.1-0.4-0.6-0.7c-1.1-2-2.3-2.8-2.3-6
			c0-3.2,1.2-4.6,1.6-6.7l0.5-0.5l0.5,0.2l0.4,0.7c0.2,1,0.1,0.5,0.4,0.8l8.2,13.3c0.2,0.3,0.3,0.5,0.5,0.8c0.4-0.1,0.7-0.2,1.1-0.2
			h3.8c-1-2.6-2.5-5.4-3.6-7c-0.9-1.3-1.6-2-2.3-3.1l-0.5-0.8c-0.9-0.6-2.7-3.5-3.2-4.7c-0.8-2.1-0.7-4.7-2.6-5.8
			c-1.7-1-5.2-0.2-6.5,0.9c-1.8,1.6-1.2,4.2-1.7,6.8c-0.8,4.4-3.4,8-7.6,9.1c-3.1,0.8-4.2-0.2-5.7,2.8c-0.2,0.5-0.5,1.1-0.8,1.8h4.1
			c0.4-0.3,0.7-0.6,1.1-0.9c0.8-0.5,1.7-0.9,2.8-1.3c1.9-0.7,4.3-1.4,6.6-0.9c0.3,0.4,0,0.3,0.7,0.6c0.5,1.3,0.8,2.7,1.1,4
			c0.8,0.4,1.5,0.8,2.2,1.3c1.7,1.2,3,2.8,4.1,4.7c1.1,2,1.7,4.2,1.7,6.7c0,1.9-0.4,3.7-1.1,5.3c1.4,2.2,2.7,4.6,4.4,6.2V45.8z"/>
		<path class="st2" d="M236.1,70.6c0.7-0.4,1.6-0.8,2.7-1.1c-2.3-4-3.5-8.9-3.5-14.7c0-0.4,0-0.7,0-1.1c-0.1,0.2-0.2,0.3-0.2,0.5
			c-1.2,2.3-2.7,4.1-4.5,5.4c-1.8,1.3-3.6,2.2-5.5,2.6c0,0,0,0-0.1,0c-2.3,0.5-5.4,0.7-9.5,0.7H213v6.9c5,0.3,9.8,0.6,14.8,1.2
			C231.4,71.4,233.2,72.4,236.1,70.6z"/>
		<path class="st2" d="M229.1,57.1c0.5-0.4,1.1-0.9,1.5-1.4C230.1,56.2,229.6,56.7,229.1,57.1z"/>
		<path class="st2" d="M271.8,23.9c2.5-3,2.5-1.5,5.4-3.2c1.9-1.1,3.4-2.3,5-3.6c6.2-4.7,8.5-2.5,12.6-4.4c2-0.9,3.7-2,5.4-3.2
			c2.6-1.7,3.4-1.4,2.9-5.5c-4.4-0.6-6.4,2-9.2,3.7c-4.3,2.6-5.6-0.7-10.9,1.1c-3.1,1-6.3,2.4-9.1,4.3c-5.8,3.8-3,2.5-6.4,6.9
			l-0.6,0.7c-0.6,1-1.9,2-2.9,2.7c-0.5,0.3-1.3,0.8-1.8,1l-1.9,1l2,1.6c-0.1,0.2-0.8,0.8-1.7,1.5c2.2,0.1,4.2,0.5,6.1,1.1
			C268.4,27.9,270.1,26,271.8,23.9z"/>
		<path class="st2" d="M137,88.4c3.2,0.9,6.7,1.7,9.6,2.9c2.8,1.2,7.6,2.2,10.3,0.5c-2.2-0.8-4.1-0.1-8.6-2.7
			c-3.9-2.2-4.1-4.5-6.5-4.8c-5.3-0.6-4.2,1.5-8.8-2c-0.9-0.7-2-1.6-2.9-2.6H125c1.2,1.2,2.3,2.7,3.7,4.2
			C131.2,86.6,132.8,87.2,137,88.4z"/>
		<path class="st2" d="M240.2,77.3c1.9,1.4,4.9,1,7.8,0.8c-1.8-0.9-3.4-2-4.9-3.3C241.8,75.7,240.4,76.8,240.2,77.3z"/>
		<rect x="119.2" y="32.3" class="st2" width="3.5" height="0"/>
		<path class="st2" d="M167.9,87.5C168.1,87.4,167.4,87.5,167.9,87.5L167.9,87.5z"/>
		<path class="st2" d="M253.3,87.1C253.3,87.1,253.3,87.1,253.3,87.1C253.7,86.9,251.6,87.4,253.3,87.1z"/>
		<path class="st2" d="M96.6,62.8l-5.3,2.1v1.3h10.3c0,0,0-0.1,0.1-0.1c1.7-1.4,3.4-3.4,5.1-5.1c0.3-0.3,0.6-0.6,0.8-0.8h-6
			C101.1,61.2,99.9,61.7,96.6,62.8z"/>
		<polygon class="st2" points="129,32.3 129,32.3 123.6,32.3 123.6,32.3 		"/>
		<path class="st2" d="M232.5,52.9c0.9-1.9,1.4-4.1,1.4-6.9c0-1.7-0.2-3.2-0.5-4.5c0.4,1.4,0.5,2.9,0.5,4.5
			C233.9,48.7,233.4,51,232.5,52.9z"/>
		<path class="st2" d="M95.9,60.2h-4.6v2.2c0.9-0.5,1.8-1,3-1.5C94.8,60.7,95.4,60.5,95.9,60.2z"/>
		<path class="st2" d="M146.2,30.3c-0.3-2-1.4-3.4-4.8-2.8c-1.5,0.2-2.9,0.9-4.1,1.8c2.9,0,5.2,0.2,6.8,0.5
			C144.9,29.9,145.6,30.1,146.2,30.3z"/>
		<rect x="88.3" y="66.1" class="st2" width="0" height="3.1"/>
		<path class="st2" d="M111.4,42.8c-0.1,0-0.2,0-0.3,0H91.3v3.9h18.2c0.2,0,0.3,0,0.5,0.1c0.1-0.2,0.3-0.4,0.4-0.6
			C111,45,111.3,44.1,111.4,42.8z"/>
		<path class="st2" d="M225.3,33c0.6,0.2,1.2,0.4,1.7,0.6C226.5,33.4,225.9,33.2,225.3,33z"/>
		<path class="st2" d="M224.7,32.8c-1.8-0.3-4.9-0.5-9.5-0.5h-13.7v0h13.7C219.7,32.3,222.9,32.5,224.7,32.8z"/>
		<rect x="88.3" y="57.2" class="st2" width="0" height="7"/>
		<g>
			<path class="st1" d="M244.1,123.8c-0.5,0.3-1,0.5-1.7,1.1c-1.4,1-2.1,2-3.2,3.3c0,0,0,0.1-0.1,0.1v1.7c1.2-1.7,3.1-3.9,5.8-4.9
				L244.1,123.8z"/>
			<path class="st1" d="M247.6,130l-0.1-0.2c-1.5,1.4-2.9,2.9-3.7,4.1c-0.8,1.2-1.3,2.5-1.9,3.7c0.7,0.6,1.1,1.4,1.1,2.3v1.9
				l1.5-2.6c0.1-1.5-1.1-2.5,0.7-5c0.9-1.2,2.1-2.1,3.2-3l-0.4-0.8L247.6,130z"/>
			<path class="st1" d="M174.1,140.4c1.8,2.6,3,5.6,3,9.7c2.9-0.3,4.6-1.1,6.7-1.7c0,0,0-0.1-0.1-0.1l-0.4-1l-4.1,0.4l-3.7-7.3
				H174.1z"/>
			<polygon class="st1" points="108.7,144.8 108.7,144.8 104.7,134.8 			"/>
			<path class="st1" d="M151,121.3c1.1-0.5,2.2-1,3.7-1.5c0.6-0.2,3.4-0.9,5.7-1.1l0.3-0.8c-1.8,0.1-3.6,0.2-5.8,0.7
				c-1.4,0.3-2.7,0.7-4,1.1V121.3z"/>
			<rect x="148" y="120.8" class="st1" width="0" height="2"/>
			<path class="st1" d="M68.5,98.7c4.7,1.3,7.8,1.3,11.2-1.7c2-1.8,4.3-7.9,4.8-10c-1.2,0.6-2.8,3-3.3,4.5c-2.1,7-9.4,7.6-15.2,5.8
				c-3.7-1.1-7-4.3-11.6-1.7c-0.9,0.5-3,2.9-4.8,4.9c0.6,0.1,1.1,0.1,1.6,0.2c0.4-0.4,0.7-0.7,1.1-1C57.8,94.5,60.4,96.5,68.5,98.7z
				"/>
			<path class="st1" d="M219,114.5c-0.5,0.7-1,1.5-1.4,2.2c0,0.5,0,1.1,0,1.6c0.7-0.9,1.5-1.9,1.9-2.4c0.2-0.3,0.7-0.8,1.1-1.3H219z
				"/>
			<path class="st1" d="M227.8,165c-0.4,0.7-0.3,0.9-0.6,1.6c-3.9-0.7-12.8-5.7-16.1-4.8c-1.8,0.5-2.3,1-4.3,1.2
				c-5.6,0.6-9.2-0.3-13.8-2.1c-1.3-5.3-2-4.2-6.5-3.1c-1.7,0.4-2.8-0.8-4.2,0.8c-1,1.2,0,3,0,4.6c-0.8,0.5-3.6,1.6-4.5,1.9
				c-1.7,0.6-2.7-1-4.7-1.3c-0.6-0.1-5.5-0.4-6.1-0.4c-2.1,0.1-2.4,1.6-3.9,2.5c-0.5-2-2-4-2.1-6.3c-0.1-4.1,5-7.4,4.8-11.5
				c0-0.6-0.2-1.2-0.4-1.9l-0.7,2c-0.2,0.5-0.5,0.9-0.9,1.3c0,0.6,0,1.2-0.1,1.7c-0.3,2.5-2.3,3.5-3.5,5.4c-2,3.1-0.2,5.6,1.4,10.4
				c0.4,1.2,1.1,4.8,2.5,2c0.2-0.5,0.4-0.9,0.6-1.3c0.4-0.8,0.7-1.8,1.2-2.5c1.5-2.1,3.5,0.2,5.2,0.5c1.1,0.2,2.5,0.1,3.5,0.3
				c1.3,0.3,1,1.1,2.4,1.1c1.9,0,2.9-2,4.8-2.3c0.5-0.4,0.6-0.2,1.2-0.4l0.4-1.2c0,0,0.1-0.1,0.1-0.1l0.4-3.7l7-0.5
				c1.1,1.7,0.1,4,3.3,4c1.8,0,1.6-0.3,3,0.5c5,3.2,9.6,0.2,15,0c4.1-0.1,7.7,1.9,11.2,3c5.4,1.7,7.1,0.2,7.5-5.2
				C230.2,161.6,228.3,164.1,227.8,165z"/>
			
				<rect x="162" y="143.9" transform="matrix(0.3447 -0.9387 0.9387 0.3447 -28.2354 247.3206)" class="st1" width="2.1" height="0"/>
			<polygon class="st1" points="179,105.2 179,105.2 179.5,106.5 			"/>
			<path class="st1" d="M203.3,106.8v-0.6v-0.1c-0.2,0-0.4,0-0.6,0c-0.3,0-0.5,0-0.6,0c-4,0.2-6.6-0.5-10.7-0.8
				c-2.3-0.1-4.6-0.1-6.8-0.2c-0.7,0-1.5,0-2.3,0l0.6,1.4l8.2,0.4c4.4,0.2,8.1,0.2,12.3,0.1V106.8z"/>
			<path class="st1" d="M213.8,96.3c-7,4.5-14.4,5.4-22.4,2.9c-3.4-1-9.5,0.1-13.4,0c-2.5-0.1-4.1-0.9-6.7-0.6
				c-4.3,0.5-7.1,4.4-15.3,5.6c-1.9,0.3-3.5,0.3-4.9,0.3v1.2c11.2,1,13.6-3.8,19.2-5.2c5.3-1.4,8.4,1.7,12.6,0.4
				c5.6-1.8,13.7,2.2,22.7,0.5c0.1,0,0.2,0,0.3-0.1c2.5-0.5,5.1-1.4,7.7-3c5.5-3.4,5.4,0.2,11.3,3h4.1
				C220.7,98.4,219.2,92.8,213.8,96.3z"/>
			<path class="st1" d="M98.9,87.6c2.6-1.3,5.6-2.2,8.5-3.3c4.6-1.7,4.4,0.1,6.7,3.3c4.6,6.4,9.9,11.5,17.4,13.5h6.7c0,0,0,0,0,0
				c-13-1.5-18.7-8.2-25-17.2c-1-1.4-2.1-2.6-4.8-1.8c-3.6,1.1-6.6,2.1-10,3.9c-3.9,2-4.5,3.7-6.1,7.8l-2.4,7.2h1.5
				c0.7-2.3,1.8-5.3,2.4-7C95.1,90.3,95.3,89.4,98.9,87.6z"/>
			<rect x="148" y="104.2" class="st1" width="0" height="1.1"/>
			<path class="st1" d="M104,106.7c-2.8-1.6-5.5-2.5-8.6-2.9l0.7,1.7c3.8,0.6,4.7,0.9,8.4,3.5c1.9,1.4,4,3,6.2,4.3V112
				c-0.6-0.5-1.1-1-2-1.9C107.4,108.9,105.6,107.6,104,106.7z"/>
			<path class="st1" d="M106.3,89.7c-4.1,0.4-8.4,4.8-8.2,9.4c0.8,0.6,3,1.3,4.2,1.9c2,1.1,5.7,3.2,8.5,4.7v-1.5c0,0,0,0,0,0
				c-1.3-0.9-2.6-1.9-3.8-2.6c-2-1.2-5.7-2.5-7.2-3.7c0-2.6,2.6-5.1,4.6-6.1c5.1-2.5,5.6,2.1,12.5,7.8c0.6,0.5,1.2,1.1,1.9,1.6h2.7
				c-2.1-1.5-4-3.1-5-4C112,93,110.4,89.3,106.3,89.7z"/>
			<path class="st1" d="M241.2,104.9c-0.2,0.1-0.8,0.3-1,0.4l-1,0.4v1.6c2.6-1,4.8-1.5,5.5-2.2c0-1.5-0.3-1.2-1.6-1.9
				c-1.8-0.9-2.9-0.9-4.4-0.7c0.2,0.3,0.4,0.7,0.5,1.1c1.3,0,2.2,0.1,2.8,0.5C241.6,104.9,242.3,104.3,241.2,104.9z"/>
			<path class="st1" d="M272.8,102.3c0-0.8-0.6-1.9-0.5-3.4c0.1-3.8,3.1-7.2,3.3-8.1c0.4-0.7,0.3-0.3,0-0.4c-1,0.3-3.3,1.5-4.4,2
				c-3.4,1.7-10,5.4-13.4,5.3c-7.4-0.2-5.3-7.6-17.8-7.3c-4.1,0.1-7.9,0-10.9-1.9c-3.4-2.1-3.2-4.7-6.8-5.7
				c-2.6-0.7-8.5,0.6-10.8,1.5c-3.4,1.5-2.8,2.4-8,4.4l1.3,0.1c4.5,0,6.9-4.1,10.8-4.2c0.7,0,5.3,1,6.3,1.2
				c3.1,0.7,7.8,6.1,15.5,6.3c2.6,0.1,7.8-1.9,11.6,2.1l0.6,0.6c6.4,5.5,8.5,5.5,16.4,2.1c1.5-0.6,4-2,5.6-2.4l-0.6,7.8
				c-3.2,1.5-6.5,3-9.8,4.7c-5.4,2.8-8.2,5.7-13.8,8.4h3.7c0,0,0.1,0,0.1,0c3.4-2.1,8-5.8,11.7-7.9
				C268.7,104.1,272.8,105,272.8,102.3z"/>
			<path class="st1" d="M239.2,118.7v1.6c0.8-0.6,1.7-1,2.4-1.2c-0.1-0.5-0.1-1,0-1.5C240.8,117.9,240,118.3,239.2,118.7z"/>
			<path class="st1" d="M40.5,129.5c-0.9,0.1-2-0.1-3.5-0.5c0-1.1,1.1-5.1-2.7-5.3c-0.8-0.3-0.4,0-0.9-0.8c-0.2-1-1.8-4.3-2.4-5.8
				l-1.1-0.2c-0.3-0.1-0.6-0.2-0.9-0.4c1,3.3,2.3,7.5,4.2,9.7l2.8,2.9c0.4,0.5,0.3,0.6,0.7,1c0.4,0.4,4.4,2.3,5.2,2.5l0.3-0.8
				C41.3,131.4,40.6,130.5,40.5,129.5z"/>
			<path class="st1" d="M32.9,104.5c0-0.1,0-0.1,0.1-0.2c0.8-2,2.8-2.9,3.9-5c1.9-3.7-1.1-3.2,4.4-4.4c1.9-0.4,1.3-1.1,2.2-2.4
				c0.6-0.8,1.2-1.8,1.9-2.5c2-2.1,10.2-5.4,11.3-6.3c0.5-0.5-0.8-0.4,0.8-0.5c-0.2-0.3-0.1-0.4-0.3-0.7c-3.2,0-3.9,0.1-6.3,1.8
				c-7,4.9-3.9,0.7-9.2,7.6c-2.6,3.4-4.5,2.5-5.1,3.2c-1.1,2.6,0.6,3.3-2.2,5.5c-3.1,2.4-2.5,0.3-3.4,4c-0.4,1.6-0.8,2.7-1.1,3.5
				C30.5,106.9,31.6,105.6,32.9,104.5z"/>
			<path class="st1" d="M27.9,112.5c0.3-0.9,0.6-1.9,1.1-2.8C28,111,27.5,110.8,27.9,112.5z"/>
			<path class="st1" d="M208.5,150.3v1.3c1.7-0.4,3.4-0.8,5.1-0.8c4.7-0.1,5.2,2.3,8.1,2.6l1.2-3.2h-1.2c0,0.4-0.1,0.8,0,1.2
				l-0.3,0.6c-0.6-0.3-0.4-0.2-0.6-0.5c-1.4-0.4-2.4-1-3.6-1.4H209C208.9,150.2,208.7,150.3,208.5,150.3z"/>
			<path class="st1" d="M208,158.2c1.6-0.4,3-1,4-1.2c3.4-0.9,4.7,0.5,6.9,1.8c0.9,0.6,5.3,2.5,6.3,2.7l4-11.3h-1.8
				c-0.4,1.3-0.8,2.6-1.1,3.5c-0.7,2.3-1.6,4-2.2,5.9c-1.2-0.1-4.1-1.9-5.3-2.6c-5.2-2.8-7.3-1.7-10.3-0.4
				C208.5,157.2,208.3,157.8,208,158.2z"/>
			<path class="st1" d="M178.4,158.9c0.3-4.1,5.3-4.5,9.3-5.1c1.9-0.3,4.5-1.2,6.5-0.7c0.4,0.1,0.7,0.2,0.9,0.3v-1.4
				c-0.7-0.2-1.4-0.4-2.4-0.4c-3.1-0.2-10.9,1.5-13.1,2.7c-2.9,1.5-2,2.7-3.4,4.3c-2,0.8-6.3-0.5-7.5-1.4c2.5-5.4,5-9.1,0.4-16
				c-0.1-0.1-0.2-0.3-0.4-0.5h-1.3l-0.2,0.7c1.6,1.9,3.1,4.1,3.3,6.1c0.4,3.4-2.8,8-3.8,10.8l-0.1,0.7c1.3,0.1,0.2,0,0.7,0.3
				l9.3,1.5l1.5,0.2c0-0.2,0-0.9,0-1.1C178.3,158.5,178.2,159.1,178.4,158.9z"/>
			
				<rect x="164.6" y="138" transform="matrix(0.3447 -0.9387 0.9387 0.3447 -21.2467 245.4863)" class="st1" width="1.2" height="0"/>
			<path class="st1" d="M150.3,149.2c-0.1,0.1-0.2,0.2-0.3,0.3c1.1,1.6,0.8,0.8,0.7,3.6l-0.2,1.5c-0.6,0,0,0.2-0.8,0
				c-1-0.2-0.5-0.2-0.7-0.4c-3.4,0-1.6-0.5-4,1.2c-3.3,2.4-7.1-1.8-10.2-4.5c-1.4-1.2-6-4.7-9.4-6.8v2.1c3.7,2.5,9.1,6.8,10.6,8
				c5.5,4.4,3.8,4.3,7.2,3.2c6.4-2.1,4-1.9,8.6,0.1c-0.1-5.1,2-4.3,0.7-7.4C151.7,150.2,150.9,149.8,150.3,149.2z"/>
			<path class="st1" d="M151,142.8l1.2-3c-0.4,0.2-0.8,0.5-1.2,0.7V142.8z"/>
			<path class="st1" d="M146.8,150.7l0.1-0.5h-1.7l0,0.2l-0.7-0.2l-0.1,0h-4.2C142.1,151.2,144.9,152,146.8,150.7z"/>
			<polygon class="st1" points="148,146.3 148,146.3 148,142 148,142 			"/>
			<path class="st1" d="M131.7,141.1c-2-0.9-2.9-1.5-5.1-2.3c-0.3-0.1-0.7-0.2-1.1-0.4v1.5c3.3,1.3,6.7,3.3,8.6,4.9
				c0.9,0.7,1.6,1.4,2.3,2.1v-2.4c-0.3-0.2-0.5-0.5-0.8-0.7c-0.6-0.5-2.3-1.6-3-2.3C131.8,141.4,132.1,141.4,131.7,141.1z"/>
			<path class="st1" d="M136.3,123.7c-2.4-0.5-4.4-1.4-6.3-2.5c-1.4-0.8-3-1.6-4.5-2.4v2.8c1.5,1,3.1,2.1,3.8,2.5
				c2.4,1.4,4.5,1.6,7.1,1.7V123.7z"/>
			<path class="st1" d="M211.4,139C211.4,139,211.4,139,211.4,139c0.2-0.5,0.4-1,0.5-1.6C211.8,137.9,211.6,138.5,211.4,139z"/>
			<path class="st1" d="M215.8,134.4c-0.2,0.9-0.4,1.7-0.6,2.5h0.4c1.8-1.6,2.7-3.9,4.1-6.8c1.5-3.3,2.9-5.7,4.8-8.3v-3.1
				c-0.2,0.2-0.3,0.4-0.5,0.7c-5.3,7-4.8,10.3-7.4,14.1C216.3,133.8,216,134.1,215.8,134.4z"/>
			<polygon class="st1" points="37.4,115.5 37.4,115.5 35.1,115 			"/>
			<path class="st1" d="M46.1,113.5c-2.3,0-3.5,0.9-4.1,3.2c-0.4,1.3-1.6,2.2-2.9,2.2c-0.2,0-0.5,0-0.7-0.1l-1.6-0.4
				c0.1,0.1,0.1,0.2,0.2,0.3c0.6,1,1.7,2.5,2.1,3.6l0.7,0.1c0.1-0.8,1.3-3.1,1.8-4.3c0.6-1.4,1.3-2.8,2.6-3.4
				c1.3-0.7,3.4-0.1,5.5,0.5c-0.1-0.3-0.3-0.6-0.6-0.9C48.4,113.8,47.4,113.5,46.1,113.5z"/>
			<path class="st1" d="M67.3,120.9c-1.6,1.1-3.7,1.6-5.7,1.8c-0.4,0.5-0.8,1-1.3,1.4c0.4,0.3,0.8,0.6,1.2,0.9
				c1.7-0.1,3.4-0.5,5.2-1.4c0.8-0.4,1.5-0.8,2.1-1.2c2-1.4,2.8-1.1,4.1-0.3l0.5-1.4C71.6,119.9,69.8,119.3,67.3,120.9z"/>
			<path class="st1" d="M54.9,124.3c0.9-0.5,1.8-1.1,2.5-1.7v0C56.6,123.2,55.8,123.8,54.9,124.3L54.9,124.3z"/>
			<path class="st1" d="M136.3,137c-1.9-0.8-4-1.9-5.4-2.5c-1.8-0.8-3.5-1.5-5.5-2.1v2.3c2.2,0.6,4.8,1.5,5.9,1.8
				c1.9,0.6,3.5,1.4,5,2.2V137z"/>
			<path class="st1" d="M88.3,90.3l-0.6,0c-0.5,2.6-2.4,6.9-3.7,8.4c-1.2,1.5-3.6,3-5.3,4.1c-0.8,0.5-1.2,0.6-1.6,1.5
				c0.5,0.2,1.4,0.6,2.3,1l0.8-2.2c0.4-1.2,1.6-1.9,2.8-1.9h0.6c1.2-1.2,2.2-2.2,3.1-3.9C88.4,94.6,88.1,93.6,88.3,90.3z"/>
			<path class="st1" d="M136.3,130.2c-0.4-0.2-0.8-0.5-1.2-0.6l-8.6-3.7c-0.3-0.1-0.7-0.3-1.1-0.5v2.2c0.4,0.2,0.7,0.3,0.9,0.4
				c3.3,1.2,5.5,1.6,8.6,3.4c0.4,0.3,0.8,0.5,1.3,0.7V130.2z"/>
			<path class="st1" d="M65.1,108.8c-0.7,0.2-1.2,0.4-1.7,0.6c0.2,0.4,0.4,0.8,0.5,1.3c0.3-0.1,0.6-0.2,1-0.3
				c1.8-0.5,3.9-0.8,5.9-0.8c2.1,0.1,3.8,0.5,5.5,1.1c0.2,0.1,0.6,0.2,0.9,0.4l0.5-1.3c-0.4-0.2-0.8-0.4-1.2-0.5
				C72.8,107.8,69,107.6,65.1,108.8z"/>
			<path class="st1" d="M61,111.5c-0.1-0.4-0.3-0.7-0.4-1.1C60.7,110.7,60.9,111.1,61,111.5C61,111.5,61,111.5,61,111.5z"/>
			<path class="st1" d="M60.3,109.8C60.3,109.8,60.3,109.8,60.3,109.8c0.1,0.2,0.2,0.4,0.3,0.5C60.5,110.2,60.4,110,60.3,109.8z"/>
			<path class="st1" d="M154.3,123.8c-1,0.7-2.2,1.4-3.3,2.2v1.8c2.1-1.5,4.6-3.1,7.3-3.5l1-2.6C157.5,122,156.1,122.7,154.3,123.8z
				"/>
			<polygon class="st1" points="148,129.9 148,129.9 148,128 148,128 			"/>
			<path class="st1" d="M98.3,110.9l0.7,1.7c1.9,1.1,3.4,2.5,5.1,3.7c1.1,0.8,4.1,2.5,6.5,3.6v-1.5c-2.3-1.3-4.9-3.1-6.5-3.9
				C102,113.2,100.4,111.8,98.3,110.9z"/>
			<path class="st1" d="M70.6,114.1c-2,0.1-4.2,0.8-6.1,1.3c0,0.7-0.1,1.4-0.3,2c0.5-0.1,1-0.2,1.6-0.4c1.5-0.5,2.2-1.3,3.9-1.6
				c2.2-0.5,3.9,0.3,5.3,1.2l0.6-1.5c-0.1-0.1-0.2-0.1-0.3-0.2C74.1,114.2,72.4,114,70.6,114.1z"/>
			<path class="st1" d="M201.9,130.6c0.1-0.6,0.2-1.1,0.3-1.7c-0.5-0.2-1-0.3-1.4-0.4c-2.4-0.5-4.3,0.2-6.8-0.1
				c-1-0.1-1.8-0.3-2.6-0.6l0.4,1.1c2.4,0.2,5.5,0.4,9.7,1.6C201.6,130.6,201.7,130.6,201.9,130.6z"/>
			<path class="st1" d="M136.3,117c-0.2-0.1-0.5-0.1-0.7-0.2c-1.5-0.3-2.9-0.7-4.3-1.3c-0.5-0.2-1.4-0.6-2.4-1.1h-3.5v0
				c1.3,0.8,3,1.6,4.9,2.3c1.5,0.5,3.2,0.8,4.8,1.3c0.4,0.1,0.8,0.3,1.1,0.5V117z"/>
			<polygon class="st1" points="103,130.7 103,130.7 102.3,128.8 			"/>
			<path class="st1" d="M105.8,129.5l0.7,1.7c1.7,0.4,3.1,1.3,4.2,2.4v-2.5c-0.5-0.4-1.1-0.7-1.7-1
				C107.8,129.6,107,129.6,105.8,129.5z"/>
			<path class="st1" d="M223.8,135.3c0.2-0.2,0.4-0.5,0.6-0.7v-4.4c-1.4,2.2-3,4.8-4.1,6.7h2.3C223,136.4,223.4,135.9,223.8,135.3z"
				/>
			<path class="st1" d="M66,104.2c-0.7-0.8-7.6-3.2-8.2-3.4c-0.4,0.4-0.8,1-1.2,1.7c1.1,0.5,2.1,1.2,3,1.9l4.2,0
				C64.5,104.5,65.4,104.6,66,104.2z"/>
			<path class="st1" d="M151,115c2.4-0.9,5.2-1.9,9.9-2.1c0.6,0,1.2,0,1.8,0l0.4-1.1c-0.7,0-1.4,0-2,0c-1.8,0.1-3.6,0.3-5.2,0.6
				c-1.6,0.3-3.4,0.9-5,1.4V115z"/>
			<polygon class="st1" points="148,116.1 148,116.1 148,114.6 148,114.6 			"/>
			<polygon class="st1" points="97.8,117.7 98.7,120 97.8,117.7 			"/>
			<path class="st1" d="M110.2,125c-1.3-0.9-3-0.5-7.7-3.8l1.5,3.6C105.1,125.2,106.9,125.2,110.2,125z"/>
			<polygon class="st1" points="148,137.3 148,137.3 148,134.8 148,134.8 			"/>
			<path class="st1" d="M151,135.2c0.5-0.4,1.1-0.8,1.5-1.1c0.7-0.5,1.6-1,2.5-1.5l0.7-1.8c-1.6,0.6-3.3,1.4-4.7,2.1V135.2z"/>
			<polygon class="st1" points="86.5,126.1 86.1,127.1 89.3,127.1 89.3,127 			"/>
			<path class="st1" d="M200.1,136.5c0.2-0.4,0.3-0.9,0.5-1.4c-1.2-0.3-2.3-0.7-3.4-0.9c-1.4-0.3-2.5-0.4-3.5-0.5l0.6,1.6l2.1,0.2
				C197.7,135.9,199,136.2,200.1,136.5z"/>
			<path class="st1" d="M45.9,119.6c1.2-0.1,2.2-0.5,2.8-1c0.2-0.1,0.3-0.3,0.4-0.5c-0.7-0.4-1.5-0.8-2.3-0.9L45.9,119.6z"/>
			<path class="st1" d="M172.4,127.1h0.4c-0.1-0.1-0.2-0.2-0.3-0.3L172.4,127.1z"/>
			<polygon class="st1" points="169.4,126.4 170,125 170,125 			"/>
			<polygon class="st1" points="148,111.3 148,111.3 148,110.1 148,110.1 			"/>
			<path class="st1" d="M151,111.4c2.4,0.1,4.3,0.3,7.7-0.5c0.8-0.2,3.2-0.9,5.4-1.5l0.4-0.9c-0.2,0.1-0.4,0.2-0.7,0.2
				c-1.5,0.5-3.3,1-5,1.4c-2.7,0.5-5.2,0.7-7.8,0.5V111.4z"/>
			<path class="st1" d="M231.3,159.5l0.3,0.3l0.2-0.4c-0.2-0.1-0.3-0.1-0.5-0.2C231.3,159.3,231.3,159.4,231.3,159.5z"/>
			<rect x="108.3" y="49.7" class="st1" width="1.1" height="0"/>
			<path class="st1" d="M113.3,42.4c0.6-0.9,1.7-2.1,2.9-3.3v-2.7c-0.8,0.4-1.5,0.9-2.1,1.5v2c0,1.5-1.2,2.8-2.7,3
				c-0.1,1.3-0.4,2.2-1,3.3c-0.1,0.2-0.2,0.4-0.4,0.6c0.6,0.1,1.2,0.4,1.7,0.9C112.2,45.8,112.4,43.8,113.3,42.4z"/>
			<path class="st1" d="M140.9,46.1c0.1-0.1,0.2-0.2,0.3-0.4c0-0.8-0.1-1.6-0.3-2.4c-0.3-0.3-0.8-0.4-1.2-0.5c-0.1,0-0.4,0-0.9-0.1
				c0,0.8,0,1.6,0.2,2.4c0.1,0.7,0.2,1.2,0.3,1.6C140.4,46.6,140.8,46.3,140.9,46.1z"/>
			<path class="st1" d="M139.3,49.8c0.1,0,0.2,0,0.3,0c0.4,0,0.8-0.1,1.1-0.2c-0.3,0.1-0.7,0.2-1.1,0.2
				C139.5,49.8,139.4,49.8,139.3,49.8L139.3,49.8z"/>
			<path class="st1" d="M84.3,82l4.4-2.3h-3.2c-1.4,0.8-2.3,1.6-1.8,2.1C84,82.2,83.3,82.1,84.3,82z"/>
			<path class="st1" d="M151.2,18.6c2.9,1.9,5.8,5.9,7.5,9.9c0.3,0.7,0.6,1.4,0.8,2.2c0.3-0.5,0.8-0.9,1.4-1.1
				c-0.2-0.3-0.3-0.5-0.5-0.8l-8.2-13.3c-0.3-0.3-0.3,0.2-0.4-0.8l-0.4-0.7l-0.5-0.2l-0.5,0.5c-0.4,2.2-1.6,3.6-1.6,6.7
				c0,3.2,1.1,4,2.3,6c0.5,0.3,0.3-0.1,0.6,0.7c0.7,1.8,0.7,4.8,1.5,7c0.7,1.7,3.6,7.1,5.9,11.2v-2.3c-1.6-3.1-3.2-6.4-3.8-8
				c-1.9-4.7-2.6-9.5-3.9-11.9c-1.2-2.1-1.2-0.9-1.1-3.6l0.6-1.7C151.6,18.3,150.9,18.1,151.2,18.6z"/>
			<polygon class="st1" points="123.6,32.3 122.7,32.3 122.7,32.3 123.6,32.3 			"/>
			<rect x="129" y="32.3" class="st1" width="1.1" height="0"/>
			<polygon class="st1" points="135,32.3 133.2,32.3 133.2,32.3 135,32.3 			"/>
			<polygon class="st1" points="168.1,32.3 168.1,32.3 166.8,32.3 166.8,32.3 			"/>
			<path class="st1" d="M146.5,26.9c-0.7-0.3-0.4-0.2-0.7-0.6c-2.4-0.4-4.7,0.3-6.6,0.9c-1.1,0.4-2,0.8-2.8,1.3
				c-0.4,0.2-0.8,0.6-1.1,0.9h0.9c0.4,0,0.9,0,1.3,0c1.2-0.9,2.5-1.5,4.1-1.8c3.4-0.6,4.4,0.8,4.8,2.8c0.5,0.2,0.9,0.3,1.4,0.5
				C147.3,29.5,147,28.1,146.5,26.9z"/>
			<rect x="162" y="32.3" class="st1" width="0.4" height="0"/>
			<path class="st1" d="M148.5,35L148.5,35c-0.2-0.1-0.3-0.3-0.5-0.4c-0.5-0.4-1.1-0.7-1.6-0.9v0c0.6,0.3,1.1,0.6,1.6,0.9
				C148.2,34.7,148.4,34.8,148.5,35z"/>
			<path class="st1" d="M143.4,32.7c-1-0.2-2.3-0.3-3.9-0.3c0,0,0,0,0,0C141.1,32.4,142.4,32.6,143.4,32.7L143.4,32.7z"/>
			<path class="st1" d="M130,20.9c3.7-3.3,9.9,1.3,9.5-10.1c-0.2-4.3,0.3-4.5,3.5-6.3c1.7-1,4-3.4,6.5-3.1c3.6,0.3,9.6,2.5,13.4,3.6
				l1.6,0.6c0,0,0.1,0.1,0.2,0.1c-2.1,0.3-3.3,0.5-3.4,2.9c-0.1,2.6,0.3,3,1.3,4.8c0.4,0.3,0.3,0.1,0.6,0.7l1.3,1.2
				c0.6,0.3,0.4,0.1,0.7,0.6c1,0.7,2.1,2.2,2.5,3.9c0.5,2.3,1.1,2.6,2,4.4c1.2,2.2,1.9,3.4,2.5,5h1.7c-0.8-3.6-2.3-6.6-4.2-9.8
				c-1.1-1.9-1.9-3.9-4-5.4c-2.3-1.6-3-2.7-3-6.5c1.4,0.3,2.3,1.4,3.5,1.6l0.4,0.1l0-0.6l-0.9-4.9l-0.5-0.6l-4.5-0.1l-0.2-1.6
				c-0.9,0.2-1.1,0.3-2,0c0,0-0.1,0-0.2-0.1c0-0.1-0.1-0.1-0.2-0.1c-2,0-6.3-0.7-7.8-1.4h-2.4c-0.9,0.5-2.2,0.8-3.2,1.4
				c-1.1,0.7-1.7,1.3-2.6,1.8c-0.3,0.4-0.1,0.3-0.7,0.5c-1.1,1.1-2.7,1.4-3,3.1c-0.6,3.4,1.6,7.7-1.8,10.2c-1.6,1.2-3.1,0.7-5.1,1.2
				c-5.5,1.3-6.2,6.9-7.5,11.2h0.8C126,26.1,127.9,22.8,130,20.9z"/>
			<polygon class="st1" points="172.8,32.3 174.2,32.3 174.2,32.3 172.8,32.3 			"/>
			<path class="st1" d="M160.7,18l-0.5-0.8c-1.8-3.3-3.5-4.9-3.9-9.7c-3.7-1.1-9-2.2-11.1,1c-2.6,3.8,1,10.8-6.7,14.1
				c-1.8,0.8-3.5,0.8-5.2,1.8c-1.9,1.1-2.7,2.8-3.4,4.9h1.3c0.3-0.7,0.6-1.3,0.8-1.8c1.5-3,2.6-2,5.7-2.8c4.2-1.1,6.8-4.7,7.6-9.1
				c0.5-2.6-0.1-5.2,1.7-6.8c1.3-1.1,4.7-2,6.5-0.9c1.9,1.1,1.8,3.7,2.6,5.8c0.5,1.2,2.3,4.1,3.2,4.7l0.5,0.8
				c0.7,1.1,1.4,1.8,2.3,3.1c1.1,1.6,2.5,4.4,3.6,7h1.8c-0.3-1.1-0.8-2.4-2.1-4.5C164.7,23.7,161.2,18.4,160.7,18z"/>
			<path class="st1" d="M98.4,80.4l0.3,1.2c0.8-0.1,3-1,4.7-1.8h-3.5L98.4,80.4z"/>
			<path class="st1" d="M116.2,61.7v-2.1c-1.9,1.6-3.9,2.9-3.9,6.6c1.2,0.1,2.1,1,2.5,2.1c0-0.3,0-0.6,0-0.9
				c-0.1-3.3-0.4-3.5,1.3-5.6C116.1,61.8,116.1,61.7,116.2,61.7z"/>
			<path class="st1" d="M245,98.9c1.2,0.8,7.4,5.6,8,6.5c-1.3,1.1-3.1,1.8-4.6,2.6c-3.2,1.8-6,3.1-9.2,4.6v1.2
				c1.9-0.8,4-1.4,6.4-2.4l0.3-0.2c0,0,0.1-0.1,0.2-0.1l1.1-0.6c1.7,0,7.7-4.8,8.6-5.9c-0.2-0.4-0.2-0.4-0.6-0.8
				c-1.4-0.8-3.1-1.4-4.4-2.2c-1.8-1-2.5-1.9-3.9-3c-5.8-4.5-11.5,1.4-21.6-5.7c-2.6-1.8-4.9-4.5-9.5-4.1c-3.9,0.4-4.6,2.9-9,4.6
				c-3.9,1.6-7.5,1.6-11.8,0.7c-1.9-0.4-3.6-1-5.2-1.5c-5-1.4-3.8,3.6-17.5-0.3c-5.9-1.7-9,6.9-20.4,6.4c-5.6-0.2-7.9-2.6-10.4-3.3
				c-2.9-0.8-6.3,0.5-11.2-2.4c-4.2-2.5-9.7-8.5-12.6-13.7c-0.8-0.5-1.4-1.5-1.4-2.5v-0.5c-0.7-1.8-1.1-3.7-1.3-5.8v6.3
				c0,0.3,0,0.5-0.1,0.8c2,1.7,2.6,5.8,6.5,10.2c8.7,10,17.1,7.8,19.9,9.2c2.6,1.3,4.2,2,7.3,2.5c6,0.9,11.7-0.4,16.1-2.9
				c3.2-1.8,3.8-3.6,6.2-3.4c3.5,0.3,7.3,2.7,12.6,1.8c1.7-0.3,2.4-0.9,3.6-1.2c0.9-0.2,6.2,1.5,7.9,1.7c8.2,1.2,10.4-0.4,16.4-2.4
				l0.6-0.5c0.2-0.1,0.4-0.2,0.7-0.3c1.9-0.6,2.6-1.6,5.5-1.5c2.3,0.1,3.8,1.1,5.1,2.2c4.8,3.8,9.6,6.2,16.3,4.9
				C242.3,97.2,242.9,97.5,245,98.9z"/>
			<path class="st1" d="M154.6,82.6l0.8-0.7c0.1-1.1,0.8-2.7,1-4.3c0.2-1.3,0.5-3.3,0.5-4.6c0.1-1.2,0.2-1.1,1.5-1.2l0.6,0v-1.3
				l-2.6,0.4l-0.4,0.9l-2.6,9.7c-1.8-0.6-2.8-1.6-3.8-2.9c-0.1-0.1-0.2-0.3-0.3-0.4c-0.7,0.3-1.4,0.6-2.2,0.8
				C150.4,80.5,152.1,84.3,154.6,82.6z"/>
			<path class="st1" d="M125,79.7h-2.3c2.6,3.9,8,9.4,12.5,10.5c2.5,0.6,5.8-0.2,7.7,0.7c0.9,0.5,1.5,1,2.6,1.5
				c10.6,5.1,18.8-3.2,21.9-4.6c0.2-0.2,0.1-0.1,0.5-0.3c0,0,0.1,0,0.1,0c-0.6,0.1,0.2-0.1,0,0c0.1,0,0.2,0,0.5-0.1
				c4.9-1.4,8.3,2.9,15.3,1.1c8.7-2.3,7.8,0.7,11.1,0.9c1.6,0.1,3.2-0.3,4.7-0.1c-0.1,0-0.4-0.1-0.4-0.1c-0.5-0.2-0.4-0.1-0.7-0.4
				c-2.2-0.1-5.7-1.4-7.4-2.2c-4.7-2.2-2.3-1.2-6.7,0.3c-9.3,3-13.1-2.6-15.8-2.1c-1.9,0.3-6.2,6.7-14.2,4.7
				c-2.6-0.6-7.8-3.2-9.5-5.2c-0.8-0.9-1.3-2.1-2-2.7c-4.1,0.4-3.8,2.7-7.7-0.3c-0.6-0.4-1.3-1-2.1-1.6H130c0.9,1,2,1.9,2.9,2.6
				c4.6,3.4,3.5,1.4,8.8,2c2.4,0.3,2.6,2.6,6.5,4.8c4.5,2.5,6.4,1.9,8.6,2.7c-2.7,1.8-7.6,0.8-10.3-0.5c-2.8-1.2-6.3-2-9.6-2.9
				c-4.2-1.1-5.8-1.8-8.3-4.4C127.3,82.4,126.1,80.9,125,79.7z"/>
			<path class="st1" d="M146.3,75.9L146.3,75.9c-0.8,0.2-1.5,0.4-2.4,0.5c-0.4,0-0.9,0.1-1.5,0.1c0,0,0,0,0,0c0.6,0,1.1-0.1,1.5-0.1
				C144.8,76.3,145.6,76.1,146.3,75.9z"/>
			<path class="st1" d="M207.2,80.6c0.6-0.1,1.3-0.5,1.9-0.8H207l-0.2,0.7C207.1,80.7,206.4,80.9,207.2,80.6z"/>
			<path class="st1" d="M272.7,111.1c3.5-1.2,4.3-1.1,6.7-3.3c4.1-3.7,2.8-3.6,1.9-6.5c-0.9-3,1-5.2,1.3-8.2
				c0.3-3.6-1-10.3-3.5-11.6c-1.2-0.6-3.2-0.3-3.9,0.7c-1.7,2.3-2.6,3.4-5.1,4.9c-18.7,11.1-9.4-1.2-19.1-1.4
				c-4.1-0.1-3.1-2.3-7-3.1c-4.2-0.9-5.5,1.2-8.2,1.4c-5.2,0.4-5.4-8.4-21.5-8.7c0.2,0.3,0.1,0.2,0.2,0.6c0.8,0.2,2,0.6,2.7,1.1
				c-0.8,0.1-2.5,0.1-4.3,0.3c-0.1,0.4-0.3,0.8-0.5,1.2c4.5-1.2,9.5-0.8,13.9,1.1c2.4,1,2.4,1.8,3.9,3.7c1.1,1.3,3,2.4,5.7,2.3
				c2.8-0.1,4-1.9,6.2-1.7c1.5,0.1,4,1.6,5.6,2.2c1.2,0.4,3.8,1.7,5.1,1.3c0.3-0.1,0.5-0.2,0.5-0.2c0,0,0,0,0,0
				c-1.7,0.3,0.4-0.2,0,0c1,2.1,3.8,6.6,6.7,6.5c1.4-0.1,7.3-3.4,9.3-3.9c0.5-0.6,0.6-0.6,1.4-0.9c1.3-0.5,3-2,3.8-3
				c1-1.3,2.6-2.1,4.3-2.4c1.4,3.8,3.3,8.7,1.3,12.9c-1.6,3.5-0.3,2.9,0.2,6.2c0.3,2.3-0.2,2.8-3.2,4.8c-5.6,3.8-5.8,1.3-11.5,4.8
				c-1.2,0.7-3.4,2-5.3,3.3h2.2c0.4,0,0.8,0.1,1.2,0.3C266.4,113.9,269.4,112.3,272.7,111.1z"/>
			<path class="st1" d="M299.4,2.6c-3.2,1-3.2,2.8-5.3,4.1c-2.9,1.9-4.8-0.1-7.6-0.2c-3-0.1-11.3,3.5-13.8,5.2
				c-0.9,0.6-1.8,1.2-2.9,1.9c-2.9,1.8,0.1,3.7-6.1,8c-1,0.7-5.1,3.1-5.8,3.9c0.5,1.1,0.9,1.1,1.1,2.5c-0.3,0.2-0.8,0.4-1.3,0.6
				c0.4,0,0.9,0,1.3,0c0.6,0,1.1,0,1.7,0.1c0.9-0.7,1.5-1.3,1.7-1.5l-2-1.6l1.9-1c0.5-0.3,1.4-0.7,1.8-1c1-0.7,2.3-1.7,2.9-2.7
				l0.6-0.7c3.4-4.4,0.6-3,6.4-6.9c2.9-1.9,6-3.3,9.1-4.3c5.3-1.7,6.5,1.5,10.9-1.1c2.8-1.7,4.8-4.3,9.2-3.7
				c0.5,4.1-0.3,3.8-2.9,5.5c-1.8,1.2-3.5,2.3-5.4,3.2c-4.1,1.9-6.5-0.3-12.6,4.4c-1.7,1.3-3.1,2.5-5,3.6c-2.9,1.7-2.9,0.2-5.4,3.2
				c-1.7,2.1-3.4,3.9-5.1,5.7c0.9,0.3,1.7,0.6,2.6,1c1.7-1.9,2.8-3.9,4.5-5.5c2.3-2.1,4.6-3.5,6.9-5.3c0.8-0.6,1.4-1.3,2.3-1.8
				c3.5-2.2,8.4-2.3,12.5-3.8c1.7-0.6,4.3-1.5,5.8-2.3c3-1.5,2.4-2.1,4-4.3V5.2C304.7,4.2,304.8,0.9,299.4,2.6z"/>
			<path class="st1" d="M264.2,32.1C264.2,32.1,264.2,32.1,264.2,32.1c0.9,0.2,1.7,0.4,2.5,0.7C266,32.5,265.1,32.3,264.2,32.1z"/>
			<path class="st1" d="M256.6,31.6c-0.7,0.1-1.3,0.1-1.9,0.3C255.3,31.8,255.9,31.7,256.6,31.6C256.6,31.6,256.6,31.6,256.6,31.6z"
				/>
			<path class="st1" d="M271.3,73.8L271.3,73.8c0.4-0.3,0.8-0.6,1.2-0.9C272.1,73.2,271.7,73.5,271.3,73.8z"/>
			<path class="st1" d="M284.8,88.1c0.5-1.7,2.5-3.7,1-5.8c-1.1-1.6-2.4-2.3-3.9-3.8c-1.1-1.1-3.9-3.3-5.9-4.9
				c-0.4,0.5-0.9,0.9-1.4,1.4c1.6,1,3.2,2.5,4.2,3.2l6.8,5.5c-0.6,1.1-1,0.9-1.8,2.1c-2.4,3.8,2,4.8,1.5,7.9
				c-0.4,2.4-1.8,2.9-2.6,4.9c-1,2.7,1.3,2.8,2.6,4c-1.1,1.9-1.7,0.9-1.6,3.8c0.1,1.8-1,2.6-2.1,3.2l-6.2,4.4
				c-1.8,1.3-5.9,1.3-8.3,2.5c-0.6,0.3-1.1,0.6-1.5,0.9l1.1,1.5c0.4-0.6,1.1-1,3.3-1.7c1.7-0.5,3.3-0.9,5.1-1.3
				c3.2-0.7,2.9-1.5,4.2-2.1c0.3-0.5-0.3-0.2,0.7-0.6c1.1-1.7,4.5-3.8,5.8-5.8c2.3-3.4,0.2-5.9-1.7-7.9c0.3-0.8,1.1-1.9,1.6-2.7
				C289.2,91.1,284.9,89.4,284.8,88.1z"/>
			<path class="st1" d="M49.5,92.2l-0.6,0.7c-0.7,0.5-4.3,4.4-7.3,8c0.7-0.1,1.5-0.2,2.3-0.3l7.2-8.4l0.6-0.6
				c1.7-1.4,6.6-4.2,9.7-2.1c0.8,0.5,1,1.1,1.5,1.6c2.1,2,4.7,2.3,7.7,2.3c5.6,0.1,5.8-1.7,6.8-6.5c0.3-1.5,0.8-4.7,1.4-7.3
				c-0.6-0.2-1.2-0.5-1.6-1.1c-0.1,1.4-0.3,2.7-0.4,4c-0.4,2.7-0.8,7.2-2.5,9.2c-0.9,1-1.8,0.7-3.4,0.6c-6.7-0.4-6-3.6-10.9-4.9
				c-2.5-0.7-4.4-0.3-6.4,0.8C52.5,88.9,50.2,91.2,49.5,92.2z"/>
			<path class="st1" d="M229.3,73.3c3.7,1.2,3.4,1.9,5.6,1.6c1.3-1.7,0.1-3.5,4.8-4.1c-0.3-0.4-0.6-0.9-0.8-1.3
				c-1.1,0.3-2.1,0.7-2.7,1.1c-2.9,1.8-4.7,0.9-8.3,0.5c-5-0.6-9.8-0.8-14.8-1.2v2.3C218.1,71.9,223,71.2,229.3,73.3z"/>
			<path class="st1" d="M237.6,77c0.8,2.1,3.4,3.2,6.9,3.1c1.7-0.1,2.9-0.3,4.5-0.5c1.4-0.1,2.2-0.1,3,0c-1.4-0.4-2.8-0.9-4-1.5
				c-2.8,0.2-5.9,0.6-7.8-0.8c0.2-0.5,1.6-1.6,2.9-2.5c-0.4-0.4-0.9-0.8-1.3-1.3c-0.1-0.1-0.1-0.2-0.2-0.2
				C240.1,74.7,238.3,76.2,237.6,77z"/>
			<path class="st1" d="M168.1,80.2c-0.4,1.5,1.3,1.7,3.6,1.9c1.8,0.2,3.7,0.4,5.5,0.7c7,1.4,5.3-0.3,8.6-2.7
				c0.2-0.2,0.4-0.3,0.6-0.4H184c-0.8,0.6-1.5,1.3-2,2.2c-2.9,0-11.5-1.9-12.9-1.9C168,80,168.8,79.8,168.1,80.2z"/>
			<path class="st1" d="M191.6,79.7H189c1.3,0.8,2.5,2.8,4.6,3.6c1.7,0.7,3.5,0.9,5.5,0.8c1.4-0.1,4.2-0.2,5.2-1.4
				C199.9,82.7,194.1,82.6,191.6,79.7z"/>
			<path class="st1" d="M194.7,50.4c0.5,0.2,0.3,0.1,0.6,0.7c1,0.7,2,1.6,3.1,2.8v-2.2c-0.2-0.2-0.3-0.4-0.5-0.5
				c-0.7-0.7-2-1.5-3.3-2.1c0,0.2,0.1,0.4,0.1,0.6V50.4z"/>
			<path class="st1" d="M194.7,51.7v4.2c0.2-1.1,0.2-2.2,0.2-3.9C194.8,51.8,194.8,51.8,194.7,51.7z"/>
			<path class="st1" d="M189.4,63.8l0.6-0.7c0.8-0.8,1.8-1.8,2.6-3c-0.3,0.1-0.6,0.1-0.9,0.1H191c-1.8,2.3-3.8,2.1-4.3,6h1.6
				C188.5,65.5,188.9,64.9,189.4,63.8z"/>
			<path class="st1" d="M116.2,46.7c-1.2,2.8-2,6.2-3.7,8.4v1.4c1.9-2.2,3-4.2,3.7-5.8V46.7z"/>
			<path class="st1" d="M101.6,66.2h2.8c0.9-0.7,1.5-1.7,2.6-3.3c0.6-0.9,1.4-1.8,2.2-2.7h-1.6c-0.3,0.3-0.6,0.6-0.8,0.8
				c-1.7,1.7-3.5,3.6-5.1,5.1C101.7,66.1,101.6,66.2,101.6,66.2z"/>
			<path class="st1" d="M176.5,80.6c0.4-0.2,0.9-0.5,1.3-0.9h-1.1L176.5,80.6z"/>
			<path class="st1" d="M153.6,87.2c2.5-0.2,4.2,0.1,5.7-1.8c0.8-1,1.9-4,2.2-5.4c0-0.1,0.1-0.2,0.1-0.3c-0.6-0.1-1.1-0.3-1.5-0.7
				c-0.3,1.4-0.1,2.8-1.1,4.1c-0.7,0.9-1.5,1.4-2.6,1.9c-0.7,0.3-2.7,1.3-3.2,1.4C153.4,87.1,152.9,86.5,153.6,87.2z"/>
			
				<rect x="88.3" y="64.2" transform="matrix(0.8944 -0.4472 0.4472 0.8944 -19.8017 46.3571)" class="st1" width="0" height="1.9"/>
			<path class="st1" d="M101.7,60.2h-5.8c-0.5,0.3-1.1,0.5-1.6,0.7c-1.2,0.4-2.1,0.9-3,1.5v2.6l5.3-2.1
				C99.9,61.7,101.1,61.2,101.7,60.2z"/>
			<path class="st1" d="M259.2,59.4c1.2-3.9-0.8-6.2-1.4-9.6c-0.4-2.7,0.5-5.3,1.3-7.6c-0.1,0-0.1,0-0.2,0c-0.6,0-1.1,0-1.6,0.1
				c-0.8,3.6-1.7,5.7-0.2,11.2c0.3,1.1,1.1,2.7,1.3,3.9c-1-0.2-1.8-0.5-2.7-0.8c-2.1-0.6-1.7-0.7-2.4-0.6l-0.3,0.1
				C251.4,57.8,256.4,57.6,259.2,59.4z"/>
			<path class="st1" d="M149.5,54.3C149.5,54.3,149.5,54.3,149.5,54.3c1.2,0.7,2.3,1.7,3.1,2.8c0.8,1.1,1.3,2.3,1.7,3.6
				c-0.3-1.3-0.9-2.5-1.7-3.6C151.8,56,150.8,55.1,149.5,54.3z"/>
			<path class="st1" d="M157.7,63.6c0.1,0,0.1,0.1,0.2,0.1c0.3,0.2,0.7,0.3,1.1,0.5V62c-0.4-0.3-0.8-0.5-1.1-0.9
				c-0.2-0.1-0.3-0.1-0.4-0.2C157.6,61.9,157.7,62.7,157.7,63.6z"/>
			<path class="st1" d="M159,55c-1.6-1.6-3-4-4.4-6.2c-0.3,0.6-0.6,1.3-0.9,1.9c0,0,0,0.1,0.1,0.1c1.1,2.1,2.8,4.8,5.2,6.3V55z"/>
			<path class="st1" d="M130.8,60.3v2.4c0,0.2,0.1,0.4,0.1,0.6c0.3,1,0.7,1.5,1,2.7c0,0.1,0,0.1,0,0.2h1.5c-0.1-1-0.2-2-0.3-3
				c-0.1-1.3-0.1-2.1-0.1-2.9H130.8z"/>
			<path class="st1" d="M262.4,66.1c0.6-0.3,1.1-0.6,1.6-1c0.2-0.9,0.9-1.2,1.3-1.8l0.4-0.2c0.4-0.7,0.8-1.4,1-2.3c0,0,0,0,0,0
				c-1.7,0-1.2-0.1-2.3,1C263.5,63,262,63.8,262.4,66.1z"/>
			<path class="st1" d="M191.4,66.2h2.5c0.6-0.5,1.3-0.9,2.2-1c1.1-0.1,1.8,0.1,2.4,0.5v-1.7c-3.9-1.3-4.8,1-6.7,1.5
				C191.6,66,191.6,66.1,191.4,66.2z"/>
			<path class="st1" d="M178,46.7c-0.2-0.7-0.5-1.4-0.8-2.1c-0.5-0.9-0.9-1.3-1.2-1.8h-1.5c0.4,1.3,0.9,2.5,1.3,3.9H178z"/>
			<polygon class="st1" points="176.5,49.7 178.5,49.7 178.5,49.7 176.5,49.7 			"/>
			<path class="st1" d="M134.9,42.7c-0.4,0-0.9,0-1.4,0c0,1.1,0,2.2-0.3,3.2c-0.1,0.4-0.2,0.7-0.4,1h0.6c0.4,0,0.8,0,1.2,0
				C134.8,45.7,134.9,44.3,134.9,42.7z"/>
			<path class="st1" d="M252.2,55.7c-0.6-0.7-1.3-1.1-2-1.5c0,0.1,0,0.2,0,0.4c0,0.3,0,0.7,0,1C250.9,55.6,251.5,55.6,252.2,55.7z"
				/>
			<path class="st1" d="M197.2,76.7c0,0.5-0.1,0.9-0.3,1.3c0.3,0.1,0.7,0.1,1,0.2c0.4,0.1,0.7,0.1,1,0.1c-0.3-0.4-0.4-0.9-0.4-1.5
				c-0.4-0.1-0.9-0.2-1.3-0.3V76.7z"/>
			<path class="st1" d="M173.5,60.2v0.7c0,0,0.1,0,0.1-0.1c0.1-0.3,0.3-0.5,0.4-0.7H173.5z"/>
			<path class="st1" d="M263.6,83.3c1.2,0.1,1.8,0.7,3.1,0.1c0.7-0.3,1.4-1.2,1.6-2c0.3-0.9,0.3-1.7,0.3-2.6
				c-0.4,0.1-0.7,0.3-1.1,0.4c-0.2,1.9-1.3,3.2-3.9,3.6L263.6,83.3z"/>
		</g>
		<polygon class="st3" points="170.8,49.7 170.8,49.7 171.4,49.7 171.4,49.7 		"/>
		<g>
			<path class="st4" d="M210,76.7v-4.5v-2.6V60v0h5.6c1.4,0,2.7,0,3.9-0.1c0.4,0,0.9,0,1.3-0.1c1.1-0.1,2-0.2,2.9-0.3
				c0.3,0,0.6-0.1,0.8-0.1c0.4-0.1,0.7-0.2,1.1-0.3c0.3-0.1,0.6-0.2,0.8-0.3c0.5-0.2,0.9-0.5,1.4-0.8c0.4-0.2,0.7-0.4,1.1-0.7
				c0.1,0,0.1-0.1,0.2-0.1c0.5-0.4,1.1-0.9,1.5-1.4c0.4-0.5,0.8-0.9,1.1-1.5c0.3-0.4,0.5-0.9,0.8-1.3c0.9-1.9,1.4-4.1,1.4-6.9
				c0-1.7-0.2-3.2-0.5-4.5c-0.1-0.5-0.3-0.9-0.4-1.3c-0.4-1-0.9-1.9-1.5-2.8c-0.6-0.8-1.3-1.6-2-2.2s-1.5-1.1-2.3-1.5
				c-0.6-0.3-1.1-0.5-1.7-0.6c-0.2-0.1-0.4-0.1-0.7-0.2c-1.8-0.3-4.9-0.5-9.5-0.5h-13.7v22v3.1v7.5v2.6v8.7v0.5h1.8H210z M210,39.8
				L210,39.8l4.1,0c2.7,0,4.6,0.1,5.7,0.2c0.2,0,0.3,0,0.4,0.1c0.8,0.2,1.5,0.4,2.1,0.8c0.2,0.1,0.4,0.3,0.6,0.4
				c0.3,0.2,0.5,0.5,0.7,0.7c0.2,0.3,0.4,0.5,0.6,0.8c0.4,0.7,0.6,1.4,0.7,2.3c0,0.3,0,0.6,0,0.9c0,0.3,0,0.7-0.1,1
				c-0.1,0.4-0.2,0.8-0.3,1.2c-0.1,0.4-0.3,0.7-0.5,1.1c0,0.1-0.1,0.2-0.1,0.2c-0.2,0.3-0.3,0.5-0.5,0.7c0,0,0,0,0,0
				c-0.3,0.3-0.6,0.5-0.9,0.8c-0.2,0.1-0.4,0.3-0.6,0.4s-0.4,0.2-0.6,0.3c-0.5,0.2-1.3,0.4-2.3,0.5c-0.6,0.1-1.3,0.1-2.1,0.2
				c-0.7,0-1.5,0-2.3,0H210V39.8z"/>
			<polygon class="st4" points="88.3,69.2 88.3,69.2 88.3,66.1 88.3,64.2 88.3,57.2 88.3,57.2 99.6,57.2 102.5,57.2 109.5,57.2 
				109.5,50.5 109.5,49.7 108.3,49.7 88.3,49.7 88.3,39.8 88.3,39.8 88.3,39.8 111.1,39.8 111.1,32.3 79.7,32.3 79.7,70 79.7,70 
				79.7,76.7 79.8,76.7 106.6,76.7 111.3,76.7 111.9,76.7 111.9,76.6 111.9,69.2 109,69.2 			"/>
			<path class="st4" d="M69,70.7c0.4-0.6,0.8-1.3,1.2-2c0.2-0.5,0.5-0.9,0.7-1.4c0.6-1.3,1.1-2.7,1.5-4.3l-8.3-2.7
				c-0.1,0.5-0.2,1-0.4,1.4c-0.7,2.5-1.8,4.4-3.2,5.7c-0.6,0.6-1.3,1-2,1.4c-1.2,0.6-2.5,0.9-3.9,0.9c-1.2,0-2.2-0.2-3.2-0.5
				c-0.3-0.1-0.7-0.2-1-0.4c-0.7-0.3-1.4-0.8-2-1.3c-0.2-0.2-0.4-0.4-0.6-0.6c-0.3-0.3-0.5-0.5-0.8-0.8c-1.9-2.4-2.9-6.4-2.9-12
				c0-2.6,0.2-4.9,0.7-6.8s1.2-3.5,2.2-4.6c0.2-0.3,0.5-0.6,0.8-0.8c0.3-0.3,0.5-0.5,0.8-0.7c0.6-0.4,1.2-0.8,1.8-1.1
				c0.6-0.3,1.3-0.5,2-0.7c0.7-0.1,1.5-0.2,2.2-0.2c2.3,0,4.2,0.7,5.8,2c1.6,1.3,2.6,3.2,3.1,5.4l8.5-2.1c-0.1-0.4-0.2-0.9-0.4-1.3
				c-0.4-1.3-0.9-2.4-1.4-3.4c-0.2-0.3-0.4-0.7-0.6-1c-0.3-0.5-0.6-0.9-0.9-1.3c-0.3-0.4-0.7-0.8-1-1.2c-0.4-0.4-0.8-0.8-1.3-1.1
				c-0.9-0.7-1.8-1.3-2.8-1.8c-0.3-0.2-0.6-0.3-0.9-0.4c-1-0.4-2-0.7-3.1-1c-0.7-0.2-1.5-0.3-2.2-0.4c-0.4,0-0.8-0.1-1.2-0.1
				c-0.4,0-0.8,0-1.2,0c-2.2,0-4.3,0.3-6.2,0.9c-1.9,0.6-3.6,1.4-5.2,2.6c-1.1,0.8-2,1.7-2.9,2.7c-1.8,2-3.2,4.5-4.1,7.4
				c-0.5,1.4-0.8,3-1,4.6s-0.3,3.4-0.3,5.2c0,2.6,0.3,5,0.8,7.2c0.3,1.5,0.8,2.8,1.4,4.1c0.8,1.8,1.8,3.4,3.1,4.9
				c0.1,0.1,0.2,0.2,0.2,0.3c0,0,0,0,0,0c1,1.1,2.1,2.1,3.3,2.9c0.4,0.3,0.8,0.5,1.2,0.8c2.7,1.6,5.9,2.4,9.4,2.4
				c4.5,0,8.3-1.2,11.3-3.6C67.1,73,68.1,71.9,69,70.7z"/>
			<path class="st4" d="M273.9,37.6c-0.6-0.7-1.3-1.3-2-1.8c-0.4-0.4-0.9-0.7-1.3-1c-1.2-0.8-2.5-1.4-3.8-1.9
				c-0.8-0.3-1.6-0.5-2.5-0.7c-1.7-0.4-3.4-0.6-5.3-0.6c-0.8,0-1.6,0-2.3,0.1c-0.7,0.1-1.3,0.1-1.9,0.3c-0.8,0.1-1.6,0.3-2.3,0.5
				c-0.1,0-0.2,0.1-0.4,0.1c-0.8,0.2-1.5,0.5-2.2,0.8c-2,0.9-3.8,2.2-5.5,4c-0.4,0.4-0.8,0.9-1.2,1.4c-1,1.3-1.8,2.7-2.5,4.2
				c-0.1,0.2-0.2,0.4-0.3,0.5c-0.3,0.6-0.5,1.3-0.7,1.9c-0.2,0.7-0.4,1.4-0.5,2.1c-0.2,0.8-0.3,1.5-0.4,2.4c-0.2,1.6-0.3,3.2-0.3,5
				c0,0.9,0,1.7,0.1,2.6c0.1,0.8,0.1,1.7,0.3,2.4c0.2,1.6,0.6,3.1,1,4.5c0.1,0.4,0.3,0.8,0.4,1.2c0.5,1.2,1.1,2.3,1.7,3.3
				c0.4,0.6,0.8,1.2,1.3,1.8c0.1,0.2,0.3,0.3,0.4,0.5c0.1,0.1,0.2,0.3,0.3,0.4c0.4,0.4,0.8,0.9,1.3,1.3c0.6,0.5,1.1,1,1.7,1.4
				c1.1,0.8,2.3,1.4,3.5,1.9c1.3,0.5,2.6,0.9,4,1.1c1.4,0.3,2.9,0.4,4.5,0.4c2.3,0,4.5-0.3,6.5-0.9c0.5-0.1,0.9-0.3,1.4-0.5
				c0,0,0.1,0,0.1,0c0.7-0.3,1.4-0.6,2.1-0.9c0.1,0,0.1-0.1,0.2-0.1c0.7-0.4,1.4-0.9,2.1-1.4c0.4-0.3,0.8-0.6,1.2-0.9
				c0.4-0.3,0.8-0.7,1.1-1.1c0.1-0.1,0.2-0.2,0.3-0.3c1.9-2,3.3-4.4,4.2-7.3c0.4-1.3,0.7-2.7,1-4.1c0.1-0.9,0.2-1.7,0.3-2.6
				s0.1-1.8,0.1-2.8c0-6.3-1.4-11.5-4.3-15.4C274.8,38.7,274.4,38.1,273.9,37.6z M270.7,54.4c0,1.6-0.1,3.2-0.3,4.5s-0.6,2.6-1,3.7
				c-0.3,0.7-0.6,1.4-1,2.1c-0.3,0.4-0.6,0.9-0.9,1.3c-0.1,0.1-0.2,0.2-0.3,0.3c-0.5,0.5-0.9,1-1.4,1.3c-0.1,0.1-0.2,0.2-0.3,0.2
				c-0.1,0-0.1,0.1-0.2,0.1c-0.1,0.1-0.3,0.2-0.4,0.3c-0.5,0.3-1,0.5-1.5,0.7c0,0,0,0,0,0c0,0-0.1,0-0.1,0c-0.2,0.1-0.3,0.1-0.5,0.2
				c-0.7,0.2-1.5,0.4-2.3,0.5c-0.4,0-0.8,0.1-1.3,0.1c-0.4,0-0.8,0-1.3-0.1c-0.8-0.1-1.6-0.2-2.3-0.5c-0.7-0.2-1.4-0.6-2.1-1
				c-0.5-0.3-1-0.7-1.4-1c-0.5-0.4-0.9-0.8-1.3-1.3c-0.6-0.7-1.2-1.6-1.6-2.5c-0.1-0.3-0.3-0.6-0.4-1c-0.3-0.9-0.6-1.8-0.8-2.9
				s-0.3-2.1-0.4-3.3c0-0.6-0.1-1.2-0.1-1.8v0c0-0.2,0-0.3,0-0.5c0-0.5,0-1,0.1-1.5c0-0.3,0.1-0.6,0.1-1v0c0-0.4,0.1-0.8,0.1-1.1
				s0.1-0.7,0.2-1.1c0.1-0.6,0.2-1.1,0.4-1.6c0.1-0.4,0.3-0.9,0.4-1.3c0.1-0.2,0.2-0.4,0.3-0.6c0.1-0.2,0.2-0.4,0.3-0.7
				c0.2-0.4,0.4-0.8,0.7-1.1c0.2-0.4,0.5-0.7,0.8-1c2.2-2.5,5-3.8,8.5-3.8c3.5,0,6.4,1.3,8.5,3.8c1.1,1.3,1.9,2.8,2.4,4.7
				c0.4,1.4,0.7,3,0.8,4.8C270.7,53.1,270.7,53.7,270.7,54.4L270.7,54.4z"/>
			<polygon class="st4" points="177.3,76.7 180,76.7 192.7,76.7 194.2,76.7 194.2,75.2 194.2,69.2 192.4,69.2 191.2,69.2 
				187.8,69.2 186.5,69.2 173.9,69.2 170.5,69.2 170.5,68.4 170.5,63.4 170.5,61.7 170.5,57.2 174.2,57.2 176,57.2 191.7,57.2 
				191.7,49.7 178.5,49.7 176.5,49.7 171.4,49.7 170.8,49.7 170.5,49.7 170.5,49.7 170.5,39.8 170.5,39.8 173.9,39.8 175.1,39.8 
				193.3,39.8 193.3,32.3 174.2,32.3 172.8,32.3 168.1,32.3 166.8,32.3 162.3,32.3 162,32.3 162,41.5 162,49 162,50.8 162,56.7 
				162,58.1 162,63.2 162,64.9 162,69.9 162,71.4 162,76.3 162,76.7 171.8,76.7 			"/>
			<path class="st4" d="M153.4,69.7c0.4-1,0.8-1.9,1-2.9c0.2-1,0.3-2,0.3-3c0-0.3,0-0.6,0-0.9c-0.1-0.8-0.2-1.5-0.4-2.2
				c-0.3-1.3-0.9-2.5-1.7-3.6c-0.8-1.1-1.9-2-3.1-2.8c-0.8-0.5-1.8-0.9-2.8-1.3c0.5-0.2,0.9-0.5,1.3-0.7c0.1,0,0.1-0.1,0.1-0.1
				c0.6-0.4,1.1-0.8,1.5-1.3c0.1-0.1,0.2-0.2,0.3-0.4c0.4-0.4,0.7-0.9,1-1.4c0.2-0.3,0.3-0.5,0.4-0.8c0.1-0.3,0.2-0.5,0.4-0.8
				c0.3-0.7,0.5-1.5,0.6-2.3c0-0.1,0.1-0.2,0.1-0.3c0.1-0.5,0.1-1,0.1-1.5c0-1.9-0.4-3.6-1.3-5.2c-0.2-0.3-0.4-0.7-0.6-1
				c-0.6-0.9-1.4-1.7-2.2-2.4c-0.2-0.1-0.3-0.3-0.5-0.4c-0.5-0.4-1.1-0.7-1.6-0.9c-0.9-0.4-1.8-0.7-2.8-0.9c-0.1,0-0.2,0-0.3,0
				c-1-0.2-2.3-0.3-3.9-0.3c-1,0-2.1-0.1-3.3-0.1H135h-1.8h-3.1H129h-5.4h-1h-3.5v2.9v0v1.7v0v5.5v0v2.7v0v10.7v0V58v0v18.7h8.7h2.2
				h3.5c0.5,0,1.1,0,1.6,0c0.8,0,1.5,0,2.1,0c0.2,0,0.3,0,0.5,0c1.4,0,2.7-0.1,3.7-0.1c0.3,0,0.7,0,0.9,0c0.6,0,1.1-0.1,1.5-0.1
				c0.9-0.1,1.6-0.3,2.4-0.5c0.3-0.1,0.5-0.1,0.8-0.2c0.8-0.3,1.5-0.7,2.1-1.1c0.2-0.1,0.3-0.2,0.5-0.3c0.4-0.3,0.8-0.6,1.1-0.9
				s0.7-0.7,1-1.1c0.3-0.4,0.6-0.8,0.9-1.2C152.9,70.7,153.2,70.2,153.4,69.7z M144.2,43.8c0,0.3,0.1,0.6,0.1,1v0c0,0,0,0.1,0,0.1
				c0,1.4-0.4,2.5-1.2,3.4c-0.5,0.5-1.1,0.9-1.8,1.2c-0.2,0.1-0.3,0.1-0.5,0.2c-0.3,0.1-0.7,0.2-1.1,0.2c-0.1,0-0.2,0-0.3,0
				c-0.3,0-0.7,0-1.2,0.1c-0.9,0-2.1,0.1-3.6,0.1c-0.4,0-0.8,0-1.2,0h0h-0.2h-2.5h-3V39.7v0h4.9c0.2,0,0.4,0,0.5,0
				c0.6,0,1.1,0,1.6,0c0.8,0,1.5,0,2.1,0c0.2,0,0.4,0,0.6,0c0.2,0,0.4,0,0.6,0s0.4,0,0.6,0c0.1,0,0.2,0,0.3,0c0.4,0,0.7,0,0.9,0.1
				c0.2,0,0.3,0.1,0.4,0.1c0.3,0,0.5,0.1,0.8,0.2c0.2,0.1,0.5,0.2,0.7,0.3c0.5,0.3,1,0.6,1.3,1C143.8,42.1,144.1,42.8,144.2,43.8z
				 M141.6,68.9c-0.3,0.1-0.8,0.1-1.4,0.2c-1,0.1-2.5,0.1-4.5,0.1h-2h-1.4h-4.5V57.3h3.7h2.2h1.1h0c0.5,0,1,0,1.4,0
				c0.4,0,0.9,0,1.3,0c0.8,0,1.5,0.1,2.2,0.1c1,0.1,1.7,0.2,2.3,0.3c0.2,0,0.4,0.1,0.5,0.1c0.6,0.2,1.1,0.5,1.5,0.8
				c0.4,0.3,0.8,0.7,1.1,1.2c0.6,0.9,0.9,2.1,0.9,3.4c0,0.4,0,0.8-0.1,1.1c0,0.3-0.1,0.5-0.2,0.8c-0.2,0.7-0.5,1.4-1,1.9
				c-0.2,0.2-0.4,0.4-0.6,0.6c-0.2,0.2-0.5,0.4-0.7,0.5C142.8,68.6,142.2,68.8,141.6,68.9z"/>
			<polygon class="st4" points="19.3,52.4 13.8,60.6 23,74.6 29.3,74.6 29.3,74.6 21.8,60.6 29.3,47 29.3,47 23,47 			"/>
			<polygon class="st4" points="18,47 18,47 11.6,47 2.5,60.6 11.6,74.6 18,74.6 18,74.6 10.5,60.6 			"/>
			<rect x="285.2" y="56.4" class="st4" width="16" height="8.5"/>
			<polygon class="st4" points="257.2,127.3 256.1,125.8 253.9,122.6 252.6,120.7 251,118.4 244.5,118.4 246.9,122.6 248.1,124.8 
				249.9,127.9 250.6,129.1 252.2,131.9 244.5,145.2 251,145.2 260.3,131.9 			"/>
			<polygon class="st4" points="126.5,104.2 122.8,104.2 113.7,104.2 113.7,104.5 113.7,105.1 113.7,135.4 113.7,138.5 113.7,144 
				113.7,146.6 113.7,147.2 122.4,147.2 122.4,147 122.4,146.8 122.4,144.5 122.4,142.6 122.4,138.9 122.4,137.7 122.4,133.9 
				122.4,131.6 122.4,126.4 122.4,124.1 122.4,119.8 122.4,117.5 122.4,112.8 122.4,111.8 122.4,111.5 122.4,111.5 139.3,111.5 
				139.3,111.5 139.3,118 139.3,119.8 139.3,125.9 139.3,131.7 139.3,138.1 139.3,146.7 139.3,147.2 139.6,147.2 145.2,147.2 
				147.4,147.2 148,147.2 148,146.3 148,142 148,137.3 148,134.8 148,129.9 148,128 148,122.8 148,120.8 148,116.1 148,114.6 
				148,111.3 148,110.1 148,105.3 148,104.2 144.2,104.2 			"/>
			<path class="st4" d="M60.9,128.7c-0.2-0.2-0.4-0.4-0.6-0.7c-0.4-0.4-0.9-0.8-1.3-1.2c-1.2-0.9-2.7-1.7-4.5-2.3
				c0.1-0.1,0.3-0.2,0.4-0.2c0.9-0.5,1.8-1.1,2.5-1.7c1-0.8,1.8-1.6,2.4-2.5c0.6-0.8,1-1.7,1.3-2.6c0.2-0.5,0.3-1,0.4-1.5
				c0-0.1,0-0.2,0-0.3c0-0.4,0.1-0.8,0.1-1.2c0-0.8-0.1-1.5-0.2-2.2c-0.1-0.3-0.2-0.6-0.3-0.9c-0.1-0.4-0.3-0.7-0.4-1.1
				c-0.1-0.2-0.2-0.4-0.3-0.5c-0.6-1.1-1.5-2.1-2.6-3.1c-2.1-1.8-5-2.9-8.8-3.2c-0.3,0-0.6-0.1-0.9-0.1c-0.2,0-0.4,0-0.7,0
				c-0.4,0-0.8,0-1.2,0c-1.9,0-3.6,0.2-5.1,0.5c-0.9,0.2-1.8,0.5-2.6,0.8c-4,1.6-6.6,4.7-7.8,9.2l4.5,1.1l2.3,0.5l1.6,0.4
				c0.3-0.9,0.6-1.7,1-2.4c0.2-0.3,0.4-0.6,0.7-0.9c0.5-0.6,1.1-1,1.8-1.4c0.3-0.2,0.7-0.3,1.1-0.4c0.7-0.2,1.6-0.3,2.5-0.3h0
				c0.5,0,1,0,1.5,0.1c0.9,0.1,1.8,0.4,2.5,0.8c0.3,0.2,0.7,0.4,1,0.7c0.3,0.3,0.5,0.6,0.8,0.9c0.2,0.3,0.4,0.6,0.5,0.9
				c0,0,0,0.1,0,0.1c0.3,0.6,0.4,1.3,0.4,2c0,0,0,0,0,0.1c0,0.2,0,0.5,0,0.7c-0.1,0.7-0.2,1.4-0.5,1.9c-0.1,0.3-0.3,0.6-0.5,0.9
				c-0.3,0.4-0.6,0.7-1,1.1c-0.1,0-0.1,0.1-0.1,0.1c-0.2,0.1-0.4,0.3-0.6,0.4c-0.4,0.3-0.8,0.5-1.3,0.7c-0.7,0.3-1.5,0.5-2.4,0.6
				c0,0,0,0,0,0c-0.5,0.1-1,0.1-1.6,0.1c-0.1,0-0.2,0-0.3,0h-1v3.5v2.6v0.4h2c0.4,0,0.7,0,1,0c1.3,0.1,2.5,0.3,3.5,0.6
				c0.7,0.3,1.4,0.6,1.9,1c0.2,0.1,0.3,0.3,0.5,0.4c0.3,0.3,0.6,0.6,0.8,0.9c0.6,0.8,0.8,1.8,0.8,2.9c0,1.2-0.4,2.2-1.1,3.2
				c-0.2,0.3-0.5,0.6-0.8,0.9c-1,0.9-2.3,1.4-4.1,1.7c-0.6,0.1-1.2,0.1-1.9,0.1c-0.5,0-1,0-1.4-0.1c-1.4-0.1-2.6-0.5-3.6-1.1
				c-0.5-0.3-1-0.7-1.4-1.2c-0.7-0.9-1.4-2.2-1.9-3.8l-8,2.6c0.2,0.5,0.3,1,0.5,1.5c0.7,1.9,1.6,3.5,2.7,4.7
				c0.5,0.6,1.1,1.2,1.7,1.6c0.3,0.2,0.6,0.4,1,0.6c2.6,1.5,6.2,2.3,10.7,2.3c0.7,0,1.4,0,2-0.1c2.6-0.1,4.9-0.6,6.8-1.3
				c1.4-0.5,2.7-1.3,3.7-2.1c1.7-1.5,2.9-3.2,3.6-5.2c0.4-1.2,0.6-2.5,0.6-3.9c0-2-0.4-3.7-1.2-5.2
				C61.6,129.6,61.3,129.1,60.9,128.7z"/>
			<path class="st4" d="M236.2,135v-2.7v-9.4v-2.2v-5.4V114v-5.4V107v-2.7h-17.2h-0.6h-2.9h-4.1h-5v2v0.4v2.1
				c0,3.7-0.1,7.1-0.2,10.2s-0.4,5.8-0.6,8.2c-0.1,0.9-0.3,1.9-0.4,2.8c-0.1,0.6-0.2,1.1-0.3,1.6c-0.1,0.3-0.1,0.5-0.2,0.8
				c-0.3,1.2-0.6,2.4-1,3.6c-0.2,0.5-0.3,0.9-0.5,1.4c-0.3,0.9-0.7,1.8-1.1,2.6h-3.7v0.2v1.5v4.7v1.3v5.6v2.2v0.8v0.3h0.3h2.1h4.9
				v-4.2v-1.4v-3.7h16.6h1.9h4.1h1.9h2.6v9.1v0.3h0.8h6.6v-12.2v-3.4v-1h-3.8V135z M227.4,111.5v19.3v9.2H211h0
				c0.1-0.3,0.2-0.6,0.4-0.9c0.2-0.5,0.4-1,0.5-1.6c1.8-6,2.7-14.6,2.7-25.9L227.4,111.5L227.4,111.5z"/>
			<path class="st4" d="M195.7,146.7l-2.2-5.5l-0.6-1.5l-1.9-4.6l-0.6-1.4l-2.2-5.4l-1.2-3.1l-7.5-18.7l-0.5-1.3l-0.4-1h-9.2
				l-1.1,2.8l-0.6,1.5l-1.3,3.3l-0.6,1.4l-1.7,4.4l-0.4,1.1l-1.1,2.7l-1.2,3.1l-2.1,5.3l-0.6,1.5l-2,5.1l-1.2,3.1l-2.9,7.5l-0.1,0.2
				h3.4h5.8l0.8-2.3l0.7-2l1.6-4.4l0.4-1.1h0v0h0.7h5.6h2.6h3.9h3.7h0.8l1.2,3.1l0.5,1.3l2,5.2l0.1,0.2h3h6.4l0-0.1L195.7,146.7z
				 M169.4,126.4l0.5-1.4l1.3-3.4l0.7-1.8l2-5.5l2.8,7.4l1.1,2.9l2.1,5.6h-6.7h-0.8h-4.3L169.4,126.4z"/>
			<path class="st4" d="M104.7,134.8l-1.7-4.1l-0.8-1.9l-3.6-8.8l-0.9-2.3l-2.7-6.8l-0.4-1l-2.1-5.2l-0.2-0.5h-3.5h-5.7l-0.5,1.4
				l-0.5,1.3l-1.6,4.2l-0.6,1.5l-1.7,4.2l-0.5,1.4l-1.4,3.5l-0.6,1.7l-9.3,23.9h9.3l3.6-9.8h17.3l3.7,9.8h9.4l-1-2.4L104.7,134.8z
				 M81.8,130.1l1-2.8l0.8-2.2l1.2-3.2l0.6-1.5l1.3-3.7l0.6-1.5l0.4-1l0.3,0.8l0.6,1.7l1.5,3.8l0.8,2.2l2,5.2l0.8,2.1l0,0.1H81.8z"
				/>
			<polygon class="st4" points="263.5,119.8 262.6,118.4 259.9,118.4 256.3,118.4 256.1,118.4 256.2,118.5 256.2,118.6 256.4,118.9 
				257.8,121.4 259.3,124 260.4,125.9 263.8,131.9 256.1,145.2 262.6,145.2 271.9,131.9 264.8,121.6 			"/>
		</g>
	</g>
</g>
</svg>
