<?xml version="1.0" encoding="utf-8"?>
<!-- Generator: Adobe Illustrator 25.1.0, SVG Export Plug-In . SVG Version: 6.00 Build 0)  -->
<svg version="1.1" id="Слой_1" xmlns="http://www.w3.org/2000/svg" xmlns:xlink="http://www.w3.org/1999/xlink" x="0px" y="0px"
	 viewBox="0 0 302.8 170.1" style="enable-background:new 0 0 302.8 170.1;" xml:space="preserve">
<style type="text/css">
	.st0{fill:none;}
	.st1{fill:#059669;}
	.st2{fill:#699672;}
	.st3{fill:#0369A1;}
</style>
<g>
	<g>
		<path class="st0" d="M60,139.3c0.4-1.2,0.6-2.5,0.6-3.9c0-2-0.4-3.7-1.2-5.2c0.8,1.5,1.2,3.2,1.2,5.2
			C60.6,136.7,60.4,138,60,139.3z"/>
		<path class="st0" d="M57.3,120.2c-0.6,0.9-1.4,1.7-2.4,2.5v0C55.9,121.9,56.7,121,57.3,120.2z"/>
		<path class="st0" d="M47.1,100.6c1.7-2.1,3.9-4.4,4.8-4.9c4.6-2.6,8,0.5,11.6,1.7c5.9,1.8,13.1,1.2,15.2-5.8
			c0.5-1.5,2.1-3.9,3.3-4.5c-0.4,2.1-2.8,8.2-4.8,10c-3.4,3-6.4,3-11.2,1.7c-8.2-2.2-10.8-4.2-16.3,1.1c-0.3,0.3-0.7,0.7-1.1,1
			c2,0.3,3.8,0.9,5.4,1.7c0.4-0.7,0.8-1.3,1.2-1.7c0.7,0.2,7.6,2.6,8.2,3.4c-0.6,0.4-1.5,0.3-2.2,0.3l-4.2,0c0,0,0,0,0.1,0
			c1.7,1.5,3,3.1,3.8,4.9c0.5-0.2,1-0.4,1.7-0.6c3.9-1.2,7.7-1,11.5,0.5c0.4,0.2,0.8,0.3,1.2,0.5l1.7-4.5c-0.9-0.5-1.8-0.9-2.3-1
			c0.4-0.9,0.8-0.9,1.6-1.5c1.7-1.1,4.1-2.6,5.3-4.1c1.3-1.6,3.2-5.8,3.7-8.4l0.6,0c-0.2,3.3,0.1,4.3-1.4,7c-1,1.7-2,2.7-3.1,3.9
			h6.1l2.4-7.2c1.6-4.1,2.2-5.9,6.1-7.8c3.4-1.7,6.4-2.8,10-3.9c2.7-0.8,3.8,0.4,4.8,1.8c6.3,8.9,12,15.7,25,17.2c0,0,0,0,0,0h9.8
			c1.7,0,3,1.3,3,3v0.2c1.4,0.1,3.1,0,4.9-0.3c8.2-1.2,11.1-5.1,15.3-5.6c2.7-0.3,4.2,0.5,6.7,0.6c3.9,0.2,10-1,13.4,0
			c7.9,2.4,15.3,1.5,22.4-2.9c5.4-3.4,6.9,2.1,15.2,5h7.1c1,0,1.9,0.5,2.4,1.3c1.5-0.1,2.6-0.2,4.4,0.7c1.4,0.7,1.6,0.4,1.6,1.9
			c-0.7,0.7-2.9,1.2-5.5,2.2v5.2c3.2-1.4,5.9-2.7,9.2-4.6c1.5-0.8,3.3-1.5,4.6-2.6c-0.5-0.9-6.7-5.6-8-6.5c-2-1.4-2.6-1.7-5.4-1.2
			c-6.7,1.2-11.6-1.1-16.3-4.9c-1.3-1-2.8-2.1-5.1-2.2c-3-0.1-3.6,0.8-5.5,1.5c-0.2,0.1-0.5,0.2-0.7,0.3l-0.6,0.5
			c-6,2.1-8.2,3.6-16.4,2.4c-1.7-0.2-7-1.9-7.9-1.7c-1.1,0.3-1.9,0.9-3.6,1.2c-5.4,0.9-9.2-1.6-12.6-1.8c-2.4-0.2-3,1.7-6.2,3.4
			c-4.4,2.5-10.2,3.8-16.1,2.9c-3.1-0.5-4.7-1.2-7.3-2.5c-2.8-1.4-11.2,0.9-19.9-9.2c-3.9-4.4-4.5-8.5-6.5-10.2
			c-0.3,1.3-1.5,2.2-2.9,2.2h-8.6c-1.7,0.8-3.9,1.7-4.7,1.8l-0.3-1.2l1.5-0.6H86.2L81.8,82c-1,0.1-0.3,0.2-0.6-0.2
			c-0.5-0.5,0.4-1.3,1.8-2.1h-5.8c-0.3,0-0.6-0.1-0.8-0.1c-0.6,2.6-1.1,5.8-1.4,7.3c-1,4.8-1.2,6.6-6.8,6.5
			c-3.1-0.1-5.6-0.4-7.7-2.3C60,90.5,59.7,90,59,89.4c-3.1-2.2-8,0.6-9.7,2.1l-0.6,0.6l-7.2,8.4c0.7,0,1.4-0.1,2.2-0.1
			C44.9,100.4,46,100.5,47.1,100.6z"/>
		<path class="st0" d="M56.4,144.5c-1,0.9-2.3,1.6-3.7,2.1C54.1,146.1,55.4,145.3,56.4,144.5c1.7-1.5,2.9-3.2,3.6-5.2
			C59.3,141.3,58.1,143,56.4,144.5z"/>
		<path class="st0" d="M30.5,143.5c0.5,0.6,1.1,1.2,1.7,1.6C31.6,144.6,31.1,144.1,30.5,143.5z"/>
		<path class="st0" d="M43.6,140.9c-0.5,0-1,0-1.4-0.1C42.7,140.9,43.1,140.9,43.6,140.9L43.6,140.9z"/>
		<path class="st0" d="M173.1,127.1l-1.6-4.3l-1.5,4c0.1,0.1,0.2,0.2,0.3,0.3H173.1z"/>
		<path class="st0" d="M50.7,132.1c0.6,0.8,0.8,1.8,0.8,2.9c0,1.2-0.4,2.2-1.1,3.2c0.7-1,1.1-2,1.1-3.2
			C51.6,133.9,51.3,132.9,50.7,132.1z"/>
		<path class="st0" d="M265.8,81.4c-0.2,0.8-0.9,1.7-1.6,2c-1.2,0.6-1.8,0-3.1-0.1l0-0.5c2.6-0.4,3.8-1.7,3.9-3.6
			c-2.6,0.9-5.4,1.4-8.5,1.4c-2.5,0-4.9-0.3-7.1-0.9c-0.8-0.1-1.6-0.2-3,0c-1.6,0.2-2.8,0.4-4.5,0.5c-3.5,0.1-6.1-0.9-6.9-3.1
			c0.7-0.9,2.5-2.4,4-3.8c-0.7-0.8-1.3-1.6-1.9-2.5c-4.6,0.6-3.5,2.4-4.8,4.1c-2.2,0.2-2-0.4-5.6-1.6c-6.3-2-11.2-1.3-16.2-1.1v4.5
			c0,0.2,0,0.4-0.1,0.6c1.8-0.2,3.4-0.2,4.3-0.3c-0.7-0.6-1.8-0.9-2.7-1.1c-0.2-0.4,0-0.3-0.2-0.6c16.2,0.3,16.4,9.1,21.5,8.7
			c2.7-0.2,4-2.3,8.2-1.4c3.9,0.8,2.9,3,7,3.1c9.8,0.3,0.5,12.6,19.1,1.4c2.5-1.5,3.5-2.6,5.1-4.9c0.7-1,2.6-1.3,3.9-0.7
			c2.5,1.3,3.8,7.9,3.5,11.6c-0.3,3-2.2,5.1-1.3,8.2c0.8,2.9,2.1,2.7-1.9,6.5c-2.5,2.3-3.2,2.1-6.7,3.3c-3.3,1.2-6.2,2.8-9,4.5
			c0.5,0.2,1,0.6,1.3,1l0.6,0.8c0.4-0.3,0.9-0.6,1.5-0.9c2.4-1.2,6.6-1.1,8.3-2.5l6.2-4.4c1.2-0.6,2.2-1.4,2.1-3.2
			c-0.1-3,0.5-1.9,1.6-3.8c-1.3-1.2-3.6-1.3-2.6-4c0.7-2,2.2-2.5,2.6-4.9c0.6-3.1-3.8-4.1-1.5-7.9c0.8-1.2,1.3-1.1,1.8-2.1l-6.8-5.5
			c-1-0.8-2.6-2.2-4.2-3.2c-1.8,1.6-3.8,2.9-6.1,3.8C266.1,79.6,266,80.5,265.8,81.4z"/>
		<polygon class="st0" points="107.2,147.2 107.2,147.2 106.2,144.8 106.2,144.8 		"/>
		<polygon class="st0" points="84.1,126.1 86.8,127 85.3,122.8 		"/>
		<path class="st0" d="M67.3,115.4c-1.7,0.3-2.5,1.1-3.9,1.6c-0.6,0.2-1.1,0.3-1.6,0.4c-0.4,1.6-1,3.1-2,4.5
			c-0.2,0.3-0.4,0.5-0.6,0.8c2.1-0.2,4.1-0.7,5.7-1.8c2.4-1.6,4.3-1,6.1-0.2l1.6-4.1C71.2,115.7,69.5,115,67.3,115.4z"/>
		<path class="st0" d="M52,124.5c1.8,0.6,3.3,1.4,4.5,2.3C55.3,125.9,53.8,125.1,52,124.5c0.1-0.1,0.3-0.2,0.4-0.2v0
			C52.3,124.4,52.1,124.4,52,124.5z"/>
		<path class="st0" d="M43.6,110.5L43.6,110.5c0.5,0,1,0,1.5,0.1C44.6,110.6,44.1,110.5,43.6,110.5z"/>
		<path class="st0" d="M50.2,116.8c-0.1,0.7-0.2,1.4-0.5,1.9C50,118.2,50.1,117.5,50.2,116.8z"/>
		<path class="st0" d="M42.3,122.6c-0.1,0-0.2,0-0.3,0C42.1,122.6,42.2,122.6,42.3,122.6L42.3,122.6z"/>
		<polygon class="st0" points="28.1,113.9 32.6,115 32.6,115 		"/>
		<path class="st0" d="M43.9,122.5C43.9,122.5,43.9,122.5,43.9,122.5C43.9,122.5,43.9,122.5,43.9,122.5L43.9,122.5z"/>
		<path class="st0" d="M38.3,112.6c0.5-0.6,1.1-1,1.8-1.4C39.4,111.6,38.8,112.1,38.3,112.6z"/>
		<polygon class="st0" points="41,122.6 41,122.6 41,126.1 41,126.1 		"/>
		<rect x="41" y="128.8" class="st0" width="0" height="0.4"/>
		<path class="st0" d="M50.2,116.1c0,0.2,0,0.5,0,0.7C50.2,116.6,50.2,116.3,50.2,116.1C50.2,116.1,50.2,116.1,50.2,116.1
			L50.2,116.1C50.2,116.1,50.2,116.1,50.2,116.1z"/>
		<path class="st0" d="M38,122.6c0-1.7,1.3-3,3-3h1c0.5,0,1,0,1.4-0.1l0.9-2.4c0.9,0.1,1.6,0.5,2.3,0.9c0.4-0.5,0.6-1.2,0.6-2
			c0-0.3-0.1-0.6-0.2-0.9c-2.1-0.6-4.2-1.2-5.5-0.5c-1.2,0.6-2,2-2.6,3.4c-0.5,1.2-1.7,3.5-1.8,4.3l-0.7-0.1
			c-0.4-1.1-1.4-2.6-2.1-3.6c-0.1-0.1-0.1-0.2-0.2-0.3l-5.8-1.4c0.6,1.5,2.2,4.8,2.4,5.8c0.5,0.8,0.1,0.5,0.9,0.8
			c3.9,0.3,2.7,4.3,2.7,5.3c1.6,0.4,2.7,0.6,3.5,0.5c0-0.1,0-0.3,0-0.4V122.6z"/>
		<rect x="35.8" y="114.9" class="st0" width="0" height="1.7"/>
		<path class="st0" d="M49.8,114c0,0,0-0.1,0-0.1C49.8,114,49.8,114,49.8,114L49.8,114z"/>
		<path class="st0" d="M144.4,150.2l-0.1,0.5c-1.9,1.3-4.7,0.5-6.5-0.5h-1c-1.7,0-3-1.3-3-3v-0.3c-0.6-0.7-1.3-1.3-2.3-2.1
			c-1.9-1.5-5.3-3.6-8.6-4.9v4.2c3.4,2.1,8,5.7,9.4,6.8c3.1,2.6,6.9,6.8,10.2,4.5c2.4-1.7,0.5-1.2,4-1.2c0.3,0.2-0.3,0.1,0.7,0.4
			c0.8,0.2,0.3,0,0.8,0l0.2-1.5c0.1-2.9,0.4-2-0.7-3.6c-0.5,0.5-1.2,0.7-2,0.7H144.4z"/>
		<path class="st0" d="M209.5,137.4L209.5,137.4c1.8-6,2.7-14.6,2.7-25.9h12.7v0h-12.7C212.2,122.8,211.3,131.4,209.5,137.4z"/>
		<path class="st0" d="M242.7,134.2c-1.8,2.5-0.6,3.5-0.7,5l4.2-7.3l-0.4-0.7C244.8,132.1,243.6,133,242.7,134.2z"/>
		<path class="st0" d="M221.4,119.4c0.2-0.2,0.4-0.5,0.5-0.7v-4.3h-3.9c-0.5,0.5-0.9,1-1.1,1.3c-0.4,0.5-1.2,1.5-1.9,2.4
			c-0.2,6.4-0.8,11.8-1.8,16.2c0.3-0.3,0.5-0.6,0.7-0.9C216.6,129.7,216.1,126.4,221.4,119.4z"/>
		<path class="st0" d="M49.7,139.1c0.3-0.3,0.6-0.6,0.8-0.9C50.3,138.5,50,138.8,49.7,139.1z"/>
		<path class="st0" d="M50.7,132.1c-0.2-0.3-0.5-0.6-0.8-0.9C50.2,131.5,50.5,131.8,50.7,132.1z"/>
		<path class="st0" d="M208.9,139c-0.1,0.3-0.2,0.6-0.4,0.9h0C208.7,139.6,208.8,139.3,208.9,139C208.9,139,208.9,139,208.9,139z"/>
		<path class="st0" d="M35.3,134.7L35.3,134.7c0.5,1.6,1.1,2.9,1.9,3.8C36.4,137.6,35.8,136.3,35.3,134.7z"/>
		<polygon class="st0" points="269.5,131.9 260.1,145.2 253.6,145.2 253.6,145.2 260.1,145.2 269.5,131.9 262.3,121.6 262.3,121.6 
					"/>
		<polygon class="st0" points="261.1,119.8 261.1,119.8 260.1,118.4 		"/>
		<path class="st0" d="M52.7,146.6c-1.9,0.7-4.2,1.2-6.8,1.3C48.5,147.8,50.8,147.3,52.7,146.6z"/>
		<path class="st0" d="M56.5,126.8c0.5,0.4,0.9,0.8,1.3,1.2C57.5,127.6,57,127.2,56.5,126.8z"/>
		<polygon class="st0" points="242,145.2 242,145.2 248.5,145.2 257.9,131.9 248.5,145.2 		"/>
		<rect x="167.5" y="117" class="st0" width="5.9" height="0"/>
		<path class="st0" d="M206.1,150.2v0.1c0.2,0,0.3-0.1,0.5-0.1H206.1z"/>
		<polygon class="st0" points="159.3,147.2 160.2,144.9 160.2,144.9 		"/>
		<path class="st0" d="M213.1,136.9h4.8c1.1-1.9,2.7-4.6,4.1-6.7v-8.4c-1.8,2.6-3.2,5-4.8,8.3C215.8,133,214.9,135.3,213.1,136.9z"
			/>
		<rect x="159.4" y="140.7" class="st0" width="4.7" height="0"/>
		<polygon class="st0" points="167,126.4 165.6,130.1 167,126.4 		"/>
		<rect x="168.1" y="121.5" class="st0" width="0" height="3.7"/>
		<path class="st0" d="M184,150.2c-1.2,0-2.3-0.7-2.7-1.8c-2.1,0.7-3.8,1.4-6.7,1.7c0-4.2-1.2-7.1-3-9.7h-5.2
			c0.2,0.2,0.3,0.4,0.4,0.5c4.6,6.9,2.1,10.6-0.4,16c1.1,0.9,5.4,2.3,7.5,1.4c1.4-1.6,0.6-2.8,3.4-4.3c2.2-1.2,10-2.9,13.1-2.7
			c1,0.1,1.8,0.2,2.4,0.4v-1.7H184z"/>
		<path class="st0" d="M220.1,136.9h1.8v-2.3c-0.2,0.3-0.4,0.5-0.6,0.7C220.9,135.9,220.5,136.4,220.1,136.9z"/>
		<path class="st0" d="M47.5,129.8c-1-0.3-2.1-0.5-3.5-0.6C45.4,129.2,46.5,129.4,47.5,129.8z"/>
		<path class="st0" d="M215.2,114.5c0,0.7,0,1.4-0.1,2.2c0.5-0.7,1-1.4,1.4-2.2H215.2z"/>
		<path class="st0" d="M218.9,152.1l0.3-0.6c0-0.4,0-0.8,0-1.2h-4.5c1.2,0.4,2.2,0.9,3.6,1.4C218.5,151.8,218.4,151.8,218.9,152.1z"
			/>
		<path class="st0" d="M219.2,153.4c-2.9-0.3-3.5-2.7-8.1-2.6c-1.7,0-3.4,0.4-5.1,0.8v4.9c0,0,0,0,0,0c3-1.3,5.1-2.4,10.3,0.4
			c1.2,0.7,4.1,2.5,5.3,2.6c0.6-1.9,1.5-3.6,2.2-5.9c0.3-1,0.7-2.3,1.1-3.5h-4.5L219.2,153.4z"/>
		<path class="st0" d="M236.7,130.1v6.9h0.8c0.7,0,1.4,0.3,1.9,0.7c0.6-1.3,1.1-2.6,1.9-3.7c0.8-1.2,2.2-2.8,3.7-4.1l-2.6-4.6
			C239.8,126.2,237.9,128.4,236.7,130.1z"/>
		<path class="st0" d="M150.1,134.1c-0.5,0.3-1,0.7-1.5,1.1v5.3c0.4-0.2,0.8-0.5,1.2-0.7l2.8-7.2C151.7,133,150.8,133.6,150.1,134.1
			z"/>
		<path class="st0" d="M148.6,121.3v4.7c1.1-0.8,2.2-1.5,3.3-2.2c1.8-1.1,3.1-1.8,5-2.1l1.2-3c-2.3,0.3-5.1,0.9-5.7,1.1
			C150.8,120.3,149.7,120.8,148.6,121.3z"/>
		
			<rect x="101.4" y="130.5" transform="matrix(0.9275 -0.3738 0.3738 0.9275 -42.2715 47.5276)" class="st0" width="0" height="4.5"/>
		<path class="st0" d="M153.6,112.4c1.6-0.3,3.4-0.5,5.2-0.6c0.6,0,1.3,0,2,0l0.9-2.4c-2.1,0.6-4.5,1.4-5.4,1.5
			c-3.4,0.7-5.3,0.6-7.7,0.5v2.4C150.2,113.2,152,112.7,153.6,112.4z"/>
		<path class="st0" d="M189.3,128.9l2,4.9c1,0.1,2.1,0.2,3.5,0.5c1,0.2,2.2,0.6,3.4,0.9c0.5-1.4,0.9-3,1.2-4.5
			c-0.1,0-0.2-0.1-0.4-0.1C194.9,129.3,191.7,129.1,189.3,128.9z"/>
		<path class="st0" d="M158.5,112.9c-4.7,0.2-7.5,1.2-9.9,2.1v4.7c1.3-0.4,2.6-0.8,4-1.1c2.2-0.5,3.9-0.6,5.8-0.7l2-5
			C159.7,112.9,159.1,112.9,158.5,112.9z"/>
		<path class="st0" d="M191.9,135.4l1.2,3c0.5-0.9,1.5-1.5,2.6-1.5h1.7c0.1-0.1,0.1-0.3,0.1-0.4c-1.2-0.3-2.4-0.7-3.6-0.9
			L191.9,135.4z"/>
		<rect x="94" y="110.6" class="st0" width="0" height="7.3"/>
		<rect x="98" y="119.6" class="st0" width="0" height="9.5"/>
		<rect x="91.1" y="104.5" class="st0" width="0" height="5.6"/>
		<path class="st0" d="M180.4,100.8c-4.2,1.4-7.3-1.8-12.6-0.4c-5.6,1.4-8,6.2-19.2,5.2v4.8c2.6,0.2,5.1,0,7.8-0.5
			c1.7-0.3,3.5-0.9,5-1.4c0.2-0.1,0.4-0.2,0.7-0.2l2.1-5.3c0.4-1.2,1.6-1.9,2.8-1.9h9.2c1.2,0,2.3,0.7,2.8,1.9l0.9,2.1
			c0.8,0,1.7,0,2.3,0c2.3,0.1,4.6,0.1,6.8,0.2c4.2,0.3,6.7,1,10.7,0.8c0.1,0,0.3,0,0.6,0c0.2,0,0.4,0,0.6,0v-1.9
			c0-1.4,1-2.6,2.3-2.9C194,103,186,99,180.4,100.8z"/>
		<path class="st0" d="M188.5,107l-8.2-0.4l8.5,21.2c0.7,0.3,1.6,0.4,2.6,0.6c2.5,0.3,4.4-0.4,6.8,0.1c0.5,0.1,1,0.3,1.4,0.4
			c0.1-0.7,0.2-1.4,0.3-2.1c0.6-4.7,0.8-10.8,0.8-18v-1.6C196.6,107.2,192.9,107.2,188.5,107z"/>
		<path class="st0" d="M211.1,98.2c-2.6,1.6-5.2,2.6-7.7,3c0.1,0,0.3,0,0.4,0h18.6C216.6,98.4,216.6,94.8,211.1,98.2z"/>
		<path class="st0" d="M73.8,110.7c-1.6-0.6-3.4-1-5.5-1.1c-2-0.1-4,0.3-5.9,0.8c-0.4,0.1-0.7,0.2-1,0.3c0.4,1.2,0.6,2.6,0.6,3.9
			c0,0.3,0,0.5,0,0.8c1.9-0.5,4.1-1.2,6.1-1.3c1.8-0.1,3.4,0.2,4.7,0.8c0.1,0.1,0.2,0.1,0.3,0.2l1.5-4
			C74.4,110.9,74,110.8,73.8,110.7z"/>
		<path class="st0" d="M58.8,112.4c0.2,0.7,0.2,1.4,0.2,2.2l0,0C59.1,113.8,59,113.1,58.8,112.4z"/>
		<path class="st0" d="M148.6,132.9c1.4-0.8,3.1-1.5,4.7-2.1l2.5-6.5c-2.6,0.4-5.1,2-7.3,3.5V132.9z"/>
		<path class="st0" d="M238.7,104.9c1.1-0.6,0.5,0,0.7-0.7c-0.6-0.4-1.5-0.5-2.8-0.5c0,0.2,0.1,0.4,0.1,0.6v1.5l1-0.4
			C237.9,105.2,238.5,105,238.7,104.9z"/>
		<path class="st0" d="M58.5,111.5c0.1,0.3,0.2,0.6,0.3,0.9C58.7,112.1,58.7,111.8,58.5,111.5C58.5,111.5,58.5,111.5,58.5,111.5z"/>
		<path class="st0" d="M236.7,128.3C236.7,128.3,236.7,128.3,236.7,128.3c1.1-1.4,1.8-2.4,3.2-3.4c0.7-0.5,1.2-0.8,1.7-1.1l-2.2-3.9
			c-0.1-0.2-0.2-0.5-0.3-0.7c-0.7,0.1-1.6,0.6-2.4,1.2V128.3z"/>
		<path class="st0" d="M194.4,78c-0.5,1-1.5,1.7-2.7,1.7h-2.5c2.5,2.9,8.2,3,12.7,3c-1,1.2-3.7,1.4-5.2,1.4
			c-2.1,0.1-3.9-0.2-5.5-0.8c-2.1-0.8-3.2-2.8-4.6-3.6h-2.5c-0.2,0.1-0.4,0.2-0.6,0.4c-3.3,2.4-1.6,4.1-8.6,2.7
			c-1.8-0.4-3.7-0.5-5.5-0.7c-2.3-0.3-4.1-0.5-3.6-1.9c0.6-0.3-0.2-0.2,0.9-0.2c1.4,0,10.1,1.9,12.9,1.9c0.5-0.9,1.2-1.6,2-2.2h-6.2
			c-0.4,0.4-0.8,0.7-1.3,0.9l0.2-0.9h-14.8c-0.1,0-0.3,0-0.4,0c0,0.1-0.1,0.2-0.1,0.3c-0.3,1.4-1.4,4.4-2.2,5.4
			c-1.5,1.9-3.1,1.6-5.7,1.8c-0.7-0.6-0.2-0.1-0.5-0.7c0.5-0.1,2.5-1.1,3.2-1.4c1.1-0.5,1.9-1,2.6-1.9c1-1.4,0.8-2.8,1.1-4.1
			c-0.7-0.6-1.1-1.4-1.1-2.3v-5l-0.6,0c-1.3,0-1.3-0.1-1.5,1.2c0,1.4-0.3,3.3-0.5,4.6c-0.2,1.5-0.9,3.2-1,4.3l-0.8,0.7
			c-2.5,1.7-4.1-2.1-7.5-3.7c-0.9,0.3-1.8,0.5-2.8,0.6c-1.6,0.2-5,0.3-10.6,0.3h-0.6c0.7,0.6,1.5,1.2,2.1,1.6c3.9,3,3.6,0.8,7.7,0.3
			c0.7,0.6,1.3,1.8,2,2.7c1.7,1.9,6.8,4.5,9.5,5.2c8.1,2,12.4-4.4,14.2-4.7c2.7-0.4,6.5,5.1,15.8,2.1c4.4-1.4,2-2.4,6.7-0.3
			c1.7,0.8,5.2,2.2,7.4,2.2c0.3,0.2,0.1,0.2,0.7,0.4c0.1,0,0.4,0.1,0.4,0.1c-1.5-0.2-3.2,0.1-4.7,0.1c-3.3-0.2-2.4-3.2-11.1-0.9
			c-7,1.8-10.4-2.5-15.3-1.1c-0.2,0-0.4,0.1-0.5,0.1c0,0,0,0-0.1,0c-0.4,0.2-0.3,0.2-0.5,0.3c-3.1,1.3-11.3,9.7-21.9,4.6
			c-1.1-0.5-1.7-1-2.6-1.5c-1.8-0.9-5.2-0.1-7.7-0.7c-4.5-1.1-9.8-6.5-12.5-10.5h-3.5c-0.6,0-1.1-0.2-1.6-0.5
			c2.9,5.1,8.4,11.2,12.6,13.7c4.9,2.9,8.3,1.6,11.2,2.4c2.5,0.7,4.8,3.1,10.4,3.3c11.4,0.5,14.5-8.1,20.4-6.4
			c13.6,3.9,12.5-1.1,17.5,0.3c1.6,0.5,3.3,1.1,5.2,1.5c4.3,0.9,7.9,0.9,11.8-0.7c4.4-1.8,5-4.3,9-4.6c4.6-0.4,7,2.3,9.5,4.1
			c10.1,7.1,15.8,1.2,21.6,5.7c1.4,1.1,2.1,2,3.9,3c1.4,0.8,3,1.4,4.4,2.2c0.3,0.4,0.3,0.5,0.6,0.8c-0.9,1.1-6.9,5.9-8.6,5.9
			l-1.1,0.6c0,0-0.1,0.1-0.2,0.1l-0.3,0.2c-2.5,0.9-4.5,1.6-6.4,2.4v5c0.8-0.4,1.6-0.8,2.5-1.1c0.1-0.3,0.2-0.5,0.3-0.7
			c0.5-0.9,1.5-1.5,2.6-1.5h2.8c5.6-2.6,8.4-5.5,13.8-8.4c3.3-1.7,6.7-3.2,9.8-4.7l0.6-7.8c-1.5,0.3-4.1,1.7-5.6,2.4
			c-7.9,3.5-10,3.4-16.4-2.1l-0.6-0.6c-3.8-3.9-9-2-11.6-2.1c-7.7-0.2-12.4-5.5-15.5-6.3c-1-0.2-5.7-1.2-6.3-1.2
			c-3.9,0.1-6.3,4.1-10.8,4.2l-1.3-0.1c5.3-1.9,4.7-2.9,8-4.4c2.2-1,8.1-2.2,10.8-1.5c3.6,0.9,3.4,3.6,6.8,5.7c3,1.9,6.8,2,10.9,1.9
			c12.4-0.3,10.3,7.1,17.8,7.3c3.4,0.1,10-3.6,13.4-5.3c1.1-0.5,3.4-1.8,4.4-2c0.3,0.2,0.5-0.2,0,0.4c-0.1,0.9-3.2,4.3-3.3,8.1
			c0,1.5,0.5,2.6,0.5,3.4c0,2.7-4.1,1.8-10.1,5.2c-3.7,2.1-8.3,5.8-11.7,7.9c1,0,1.8,0.5,2.4,1.3l0.1,0.1c0.5-0.9,1.5-1.4,2.6-1.4
			h4.3c2-1.3,4.1-2.6,5.3-3.3c5.7-3.4,5.9-0.9,11.5-4.8c3-2,3.5-2.5,3.2-4.8c-0.5-3.3-1.7-2.8-0.2-6.2c1.9-4.3,0.1-9.2-1.3-12.9
			c-1.8,0.4-3.3,1.1-4.3,2.4c-0.7,0.9-2.5,2.5-3.8,3c-0.8,0.3-1,0.4-1.4,0.9c-2,0.5-7.9,3.8-9.3,3.9c-2.9,0.1-5.7-4.3-6.7-6.5
			c-0.1,0-0.2,0.1-0.5,0.2c-1.3,0.4-3.9-0.8-5.1-1.3c-1.6-0.6-4.2-2.1-5.6-2.2c-2.2-0.2-3.3,1.6-6.2,1.7c-2.7,0.1-4.6-1-5.7-2.3
			c-1.5-1.8-1.5-2.7-3.9-3.7c-4.4-1.9-9.3-2.3-13.9-1.1c-0.5,0.7-1.4,1.2-2.4,1.2h-0.9c-0.6,0.3-1.3,0.7-1.9,0.8
			c-0.8,0.3-0.2,0.1-0.4-0.2l0.2-0.7H199c-1.1,0-2-0.6-2.6-1.5c-0.3,0-0.7,0-1-0.1C195.1,78.1,194.7,78.1,194.4,78z"/>
		<path class="st0" d="M108.2,141.6v-8c-1.1-1.1-2.5-2-4.2-2.4L108.2,141.6z"/>
		<path class="st0" d="M101.8,114.5c1.6,0.9,4.2,2.7,6.5,3.9v-5.1c-2.1-1.3-4.2-2.9-6.2-4.3c-3.7-2.6-4.6-2.9-8.4-3.5l2.2,5.4
			C97.9,111.8,99.5,113.2,101.8,114.5z"/>
		<path class="st0" d="M55.2,106.8c-2.1-1.8-5-2.9-8.8-3.2l0,0C50.1,103.9,53.1,105,55.2,106.8c1.1,1,2,2,2.6,3.1c0,0,0,0,0,0
			C57.2,108.8,56.3,107.7,55.2,106.8z"/>
		<path class="st0" d="M96.5,112.6l3.5,8.7c4.7,3.3,6.4,2.9,7.7,3.8c-3.3,0.1-5.1,0.2-6.3-0.2l1.9,4.6c1.2,0.1,2,0.1,3.2,0.6
			c0.6,0.2,1.2,0.6,1.7,1v-11.1c-2.4-1.2-5.4-2.9-6.5-3.6C99.9,115.1,98.4,113.7,96.5,112.6z"/>
		<path class="st0" d="M106.2,110.1c0.9,0.9,1.4,1.4,2,1.9v-6.3c-2.8-1.5-6.4-3.6-8.5-4.7c-1.2-0.6-3.4-1.3-4.2-1.9
			c-0.2-4.6,4.1-9,8.2-9.4c4.2-0.4,5.7,3.3,10.1,7.5c0.9,0.9,2.9,2.5,5,4H129c-7.5-2-12.8-7.1-17.4-13.5c-2.3-3.2-2.1-5-6.7-3.3
			c-2.9,1.1-5.9,2-8.5,3.3c-3.6,1.8-3.8,2.7-5.2,6.6c-0.6,1.7-1.7,4.6-2.4,7h1c1.2,0,2.3,0.7,2.8,1.9l0.3,0.6
			c3.1,0.4,5.7,1.3,8.6,2.9C103.2,107.6,104.9,108.9,106.2,110.1z"/>
		<path class="st0" d="M101.8,91.9c-2,1-4.5,3.4-4.6,6.1c1.5,1.2,5.2,2.4,7.2,3.7c1.2,0.7,2.5,1.7,3.8,2.6c0-1.6,1.4-3,3-3h5
			c-0.6-0.5-1.2-1-1.9-1.6C107.5,94,106.9,89.3,101.8,91.9z"/>
		<polygon class="st0" points="173,140.4 176.8,147.8 180.8,147.3 178.2,140.4 		"/>
		<rect x="189.5" y="134.9" class="st0" width="0" height="5"/>
		<rect x="233.7" y="135" class="st0" width="0" height="5"/>
		<rect x="186.9" y="128.1" class="st0" width="0" height="5.8"/>
		<rect x="192.1" y="141" class="st0" width="0" height="5.9"/>
		<rect x="180.8" y="105.8" class="st0" width="0" height="20.2"/>
		<rect x="176.3" y="104.2" class="st0" width="0" height="1.1"/>
		<polygon class="st0" points="145.6,147.2 145.6,147.2 145.6,146.3 145.6,146.3 		"/>
		<rect x="233.7" y="115.2" class="st0" width="0" height="5.4"/>
		<polygon class="st0" points="233.7,122.8 233.7,122.8 233.7,132.2 233.7,132.2 		"/>
		<rect x="231" y="111.3" class="st0" width="5.4" height="0"/>
		<polygon class="st0" points="193.4,147.2 193.4,147.1 193.4,147.1 		"/>
		<rect x="233.7" y="104.2" class="st0" width="0" height="2.7"/>
		<path class="st0" d="M133.8,123.7v-5.3c-0.3-0.2-0.7-0.3-1.1-0.5c-1.6-0.5-3.2-0.7-4.8-1.3c-2-0.6-3.6-1.5-4.9-2.3v4.4
			c1.6,0.8,3.2,1.6,4.5,2.4C129.4,122.3,131.4,123.3,133.8,123.7z"/>
		<polygon class="st0" points="145.6,122.8 145.6,122.8 145.6,128 145.6,128 		"/>
		<rect x="145.6" y="129.9" class="st0" width="0" height="4.9"/>
		<polygon class="st0" points="145.6,137.3 145.6,137.3 145.6,142 145.6,142 		"/>
		<polygon class="st0" points="142,150.2 142.7,150.4 142.7,150.2 142,150.2 		"/>
		<polygon class="st0" points="145.6,111.3 145.6,111.3 145.6,114.6 145.6,114.6 		"/>
		
			<rect x="145.6" y="116.1" transform="matrix(0.8944 -0.4472 0.4472 0.8944 -37.6077 77.6063)" class="st0" width="0" height="4.7"/>
		<path class="st0" d="M132.6,129.6c0.4,0.2,0.8,0.4,1.2,0.6v-4.4c-2.6-0.1-4.7-0.3-7.1-1.7c-0.7-0.4-2.3-1.5-3.8-2.5v3.7
			c0.4,0.2,0.7,0.3,1.1,0.5L132.6,129.6z"/>
		<path class="st0" d="M133.1,116.9c0.2,0,0.5,0.1,0.7,0.2v-2.6h-7.4c1,0.5,2,0.9,2.4,1.1C130.2,116.1,131.6,116.6,133.1,116.9z"/>
		<path class="st0" d="M133.8,137v-4.9c-0.4-0.2-0.9-0.5-1.3-0.7c-3.1-1.9-5.4-2.3-8.6-3.4c-0.2-0.1-0.6-0.2-0.9-0.4v4.8
			c2,0.6,3.7,1.4,5.5,2.1C129.8,135,131.9,136.1,133.8,137z"/>
		<path class="st0" d="M128.9,136.5c-1.1-0.4-3.7-1.2-5.9-1.8v3.8c0.4,0.1,0.8,0.2,1.1,0.4c2.2,0.8,3.1,1.4,5.1,2.3
			c0.4,0.4,0.1,0.3,0.9,0.5c0.7,0.7,2.3,1.8,3,2.3c0.2,0.2,0.5,0.4,0.8,0.7v-5.8C132.3,137.9,130.7,137.1,128.9,136.5z"/>
		<rect x="120" y="111.5" class="st0" width="16.8" height="0"/>
		<polygon class="st0" points="145.6,105.3 145.6,105.3 145.6,110.1 145.6,110.1 		"/>
		<path class="st0" d="M49.3,113c-0.2-0.3-0.5-0.6-0.8-0.9c-0.3-0.3-0.6-0.5-1-0.7c0.3,0.2,0.7,0.4,1,0.7
			C48.8,112.4,49.1,112.7,49.3,113z"/>
		<path class="st0" d="M131,42.7c-0.2,0-0.5,0-0.7,0h-1.9v4.2h2c0.1-0.3,0.3-0.6,0.4-1C130.9,44.9,131,43.8,131,42.7z"/>
		<path class="st0" d="M141.8,44.7L141.8,44.7C141.8,44.8,141.8,44.8,141.8,44.7C141.8,44.8,141.8,44.8,141.8,44.7z"/>
		<path class="st0" d="M249.7,55.7c-0.7,0-1.3-0.1-2-0.2c0.1,3.8,1,6.6,2.6,8.5c1.7,1.9,3.6,2.8,6.2,2.8c1.3,0,2.4-0.2,3.4-0.7
			c-0.4-2.4,1.1-3.2,2.1-4.3c1-1.1,0.6-1,2.3-1c0,0,0,0,0,0c0.6-1.8,0.9-3.9,0.9-6.4c0-4.3-0.8-7.5-2.5-9.5c-1.5-1.8-3.5-2.7-6-2.7
			c-0.8,2.3-1.8,4.9-1.3,7.6c0.5,3.4,2.6,5.7,1.4,9.6c-2.8-1.7-7.8-1.6-6.2-3.3L251,56c0.7-0.1,0.3-0.1,2.4,0.6
			c0.9,0.3,1.8,0.6,2.7,0.8c-0.2-1.2-1-2.7-1.3-3.9c-1.5-5.5-0.6-7.6,0.2-11.2c-1.9,0.3-3.4,1.2-4.7,2.6c-1.6,1.9-2.5,5-2.5,9.2
			C248.4,54.5,249.1,54.9,249.7,55.7z"/>
		<path class="st0" d="M261.6,65.1c0.4-0.3,0.8-0.7,1.1-1.1c0.2-0.3,0.5-0.6,0.7-0.9l-0.4,0.2C262.5,63.9,261.8,64.2,261.6,65.1z"/>
		<path class="st0" d="M132.1,46.9c3.4,0,4.4-0.1,4.7-0.1c0,0,0,0,0,0c-0.1-0.4-0.2-0.9-0.3-1.6c-0.1-0.8-0.2-1.6-0.2-2.4
			c-0.7,0-1.9-0.1-3.9-0.1C132.4,44.3,132.4,45.7,132.1,46.9z"/>
		<path class="st0" d="M266.8,75.1c0.7-0.4,1.4-0.9,2.1-1.4h0C268.2,74.3,267.5,74.8,266.8,75.1z"/>
		<rect x="168.1" y="49.7" class="st0" width="0.3" height="0"/>
		<path class="st0" d="M138.8,44.7c0-1-0.3-1.3-0.4-1.4c0,0,0,0,0,0c0.1,0.8,0.2,1.6,0.3,2.4C138.8,45.5,138.8,45.2,138.8,44.7z"/>
		<path class="st0" d="M150.2,43.5c0-1.9-0.4-3.6-1.3-5.2C149.7,39.8,150.2,41.6,150.2,43.5z"/>
		<path class="st0" d="M146.1,35L146.1,35c0.8,0.7,1.6,1.4,2.2,2.4C147.6,36.4,146.9,35.6,146.1,35z"/>
		<path class="st0" d="M244.7,54.5c0,0.6,0,1.2,0.1,1.8C244.8,55.7,244.7,55.1,244.7,54.5L244.7,54.5z"/>
		<path class="st0" d="M110,55.1c1.7-2.2,2.5-5.6,3.7-8.4v-7.6c-1.2,1.1-2.3,2.4-2.9,3.3c-0.9,1.4-1.2,3.5-1.7,5.3
			c0.5,0.5,0.8,1.3,0.8,2.1V55.1z"/>
		<polygon class="st0" points="85.8,49.7 105.9,49.7 105.9,49.7 85.8,49.7 85.8,39.8 85.8,39.8 		"/>
		<polygon class="st0" points="108.6,39.8 108.6,39.8 108.6,32.3 77.2,32.3 77.2,32.3 108.6,32.3 		"/>
		<polygon class="st0" points="165.6,32.3 170.4,32.3 170.4,32.3 165.6,32.3 		"/>
		<path class="st0" d="M254.1,31.6C254.1,31.6,254.1,31.6,254.1,31.6c0.8-0.1,1.5-0.1,2.3-0.1c1.9,0,3.7,0.2,5.3,0.6c0,0,0,0,0,0
			c-1.7-0.4-3.4-0.6-5.3-0.6C255.6,31.5,254.9,31.6,254.1,31.6z"/>
		<path class="st0" d="M271.4,37.6c0.5,0.5,0.9,1,1.3,1.6C272.3,38.7,271.9,38.1,271.4,37.6c-0.6-0.7-1.3-1.3-2-1.8
			C270.2,36.3,270.8,36.9,271.4,37.6z"/>
		<rect x="176" y="49.7" class="st0" width="13.2" height="0"/>
		<path class="st0" d="M113.7,59.6v-8.9c-0.7,1.6-1.8,3.6-3.7,5.8v0.6c0,1.7-1.3,3-3,3h-0.3c-0.8,0.9-1.6,1.8-2.2,2.7
			c-1.1,1.6-1.6,2.6-2.6,3.3h7.5c0.1,0,0.2,0,0.4,0C109.8,62.5,111.8,61.2,113.7,59.6z"/>
		<path class="st0" d="M144.2,53.1c1,0.3,2,0.8,2.8,1.3c0,0,0,0,0,0C146.2,53.8,145.3,53.4,144.2,53.1z"/>
		<path class="st0" d="M131.2,76.7c0.5,0,1.1,0,1.6,0C132.2,76.7,131.7,76.7,131.2,76.7L131.2,76.7z"/>
		<path class="st0" d="M171.1,60.9v5.3h13.1c0.6-3.9,2.5-3.7,4.3-6h-16.9c-0.1,0.2-0.3,0.4-0.4,0.7
			C171.1,60.9,171.1,60.9,171.1,60.9z"/>
		<path class="st0" d="M113.6,61.9c-1.7,2.1-1.4,2.3-1.3,5.6c0,0.3,0,0.6,0,0.9c0.1,0.3,0.2,0.6,0.2,0.9v1.2c0.2,2.1,0.6,4,1.3,5.8
			V61.7C113.7,61.7,113.6,61.8,113.6,61.9z"/>
		<path class="st0" d="M248.1,65.9c-0.6-0.7-1.2-1.6-1.6-2.5C246.9,64.4,247.4,65.2,248.1,65.9c0.4,0.5,0.9,0.9,1.3,1.3
			C248.9,66.9,248.5,66.4,248.1,65.9z"/>
		<path class="st0" d="M187.5,63.1l-0.6,0.7c-0.5,1.1-0.9,1.8-1.1,2.5h3.2c0.1-0.1,0.1-0.2,0.3-0.6c1.9-0.5,2.8-2.8,6.7-1.5V53.9
			c-1.2-1.2-2.1-2.1-3.1-2.8c-0.3-0.6-0.1-0.5-0.6-0.7v1.3c0.1,0.1,0.1,0.1,0.2,0.2c0,1.7,0,2.9-0.2,3.9v1.4c0,1.4-0.9,2.5-2.1,2.9
			C189.3,61.2,188.3,62.3,187.5,63.1z"/>
		<path class="st0" d="M222.5,47.1c-0.1,0.4-0.2,0.8-0.3,1.2C222.4,47.9,222.5,47.5,222.5,47.1z"/>
		<path class="st0" d="M132.5,32.3C132.5,32.3,132.5,32.3,132.5,32.3l1.2,0c1.2,0,2.3,0,3.3,0.1c0,0,0,0,0,0c-1,0-2.1-0.1-3.3-0.1
			H132.5z"/>
		<path class="st0" d="M196,76.7v-11c-0.6-0.4-1.3-0.7-2.4-0.5c-0.8,0.1-1.6,0.5-2.2,1h0.3c1.7,0,3,1.3,3,3v7.3
			C195.1,76.6,195.6,76.7,196,76.7C196,76.7,196,76.7,196,76.7z"/>
		<path class="st0" d="M148.7,18.6c-0.3-0.5,0.4-0.3-0.5-0.4l-0.6,1.7c-0.1,2.7-0.1,1.5,1.1,3.6c1.3,2.4,2,7.3,3.9,11.9
			c0.7,1.6,2.3,4.9,3.8,8V32.3c0-0.6,0.2-1.2,0.5-1.7c-0.2-0.7-0.5-1.5-0.8-2.2C154.5,24.5,151.6,20.4,148.7,18.6z"/>
		<polygon class="st0" points="168.9,49.7 174,49.7 174,49.7 168.9,49.7 		"/>
		<path class="st0" d="M217.8,49c0.6-0.2,1-0.6,1.3-1c0.3-0.5,0.5-1.1,0.5-1.8c0-1.2-0.4-1.7-0.6-2.1c-0.5-0.5-1-0.9-1.7-1
			c-0.4-0.1-1.7-0.2-5.6-0.2h-1.1v6.6h1.7C216.5,49.5,217.6,49.1,217.8,49z"/>
		<path class="st0" d="M216.6,52.3c1-0.1,1.8-0.3,2.3-0.5c0.2-0.1,0.4-0.2,0.6-0.3c-0.2,0.1-0.4,0.2-0.6,0.3
			C218.4,52,217.7,52.2,216.6,52.3z"/>
		<path class="st0" d="M128.5,63.4c-0.1-0.2-0.1-0.4-0.1-0.6v3.5h1.2c0-0.1,0-0.1,0-0.2C129.2,64.9,128.8,64.4,128.5,63.4z"/>
		<path class="st0" d="M150.8,81.3l2.6-9.7l0.4-0.9l2.6-0.4v-6.1c-0.4-0.1-0.7-0.3-1.1-0.5c-0.1,0-0.1-0.1-0.2-0.1
			c0,0.1,0,0.1,0,0.2c0,2.5-0.5,4.9-1.6,7.2c-1.1,2.4-2.7,4.3-4.6,5.7c-0.7,0.5-1.5,0.9-2.2,1.3c0.1,0.1,0.2,0.3,0.3,0.4
			C148,79.7,149.1,80.7,150.8,81.3z"/>
		<path class="st0" d="M140,76.5c-0.3,0-0.6,0-0.9,0C139.4,76.6,139.7,76.5,140,76.5C140,76.5,140,76.5,140,76.5z"/>
		<path class="st0" d="M144.6,75.7c-0.2,0.1-0.5,0.1-0.8,0.2v0C144.1,75.8,144.4,75.8,144.6,75.7z"/>
		<path class="st0" d="M130.7,63.2c0.1,1,0.2,2,0.3,3h2.2c4.1,0,5.1-0.2,5.3-0.2c0.6-0.1,1-0.4,1.4-0.8c0.1-0.1,0.5-0.6,0.5-1.9
			c0-0.7-0.1-1.3-0.4-1.8c-0.3-0.4-0.6-0.7-1.2-0.9c-0.2-0.1-1.5-0.5-6.6-0.5h-1.6C130.5,61.1,130.6,61.9,130.7,63.2z"/>
		<path class="st0" d="M156.5,62v-5c-2.4-1.5-4.1-4.2-5.2-6.3c0,0,0-0.1-0.1-0.1c0,0,0,0.1,0,0.1c-0.4,0.6-0.8,1.2-1.3,1.8
			c1.1,0.8,2,1.7,2.8,2.8c1.2,1.7,2,3.6,2.4,5.7c0.1,0,0.2,0.1,0.4,0.2C155.7,61.5,156.1,61.8,156.5,62z"/>
		<polygon class="st0" points="127.6,32.3 127.6,32.3 130.7,32.3 130.7,32.3 		"/>
		<path class="st0" d="M238.1,42.8c-0.1,0.2-0.2,0.4-0.3,0.5c-0.3,0.6-0.5,1.3-0.7,1.9c0.2-0.7,0.4-1.3,0.7-1.9
			C237.9,43.2,238,43,238.1,42.8z"/>
		<polygon class="st0" points="190.9,32.3 190.9,32.3 171.7,32.3 171.7,32.3 		"/>
		<path class="st0" d="M171.1,46.7h2.3c-0.4-1.3-0.9-2.6-1.3-3.9h-1V46.7z"/>
		<path class="st0" d="M135.7,49.9c0.5,0,0.9,0,1.2-0.1v0C136.5,49.8,136.2,49.9,135.7,49.9z"/>
		<path class="st0" d="M141.2,32.8c-0.1,0-0.2,0-0.3,0v0C141,32.7,141.1,32.7,141.2,32.8c1,0.2,1.9,0.5,2.8,0.9v0
			C143.1,33.3,142.2,32.9,141.2,32.8z"/>
		<rect x="159.9" y="32.3" class="st0" width="4.4" height="0"/>
		<path class="st0" d="M130.9,24.5c1.6-1,3.4-1,5.2-1.8c7.7-3.4,4.1-10.3,6.7-14.1c2.1-3.2,7.4-2.1,11.1-1c0.3,4.7,2,6.4,3.9,9.7
			l0.5,0.8c0.5,0.4,4,5.7,4.7,6.8c1.3,2.1,1.8,3.4,2.1,4.5h4.5c-0.6-1.6-1.3-2.8-2.5-5c-1-1.8-1.6-2.1-2-4.4
			c-0.4-1.8-1.4-3.2-2.5-3.9c-0.3-0.5,0-0.3-0.7-0.6l-1.3-1.2c-0.3-0.7-0.1-0.4-0.6-0.7c-0.9-1.8-1.3-2.2-1.3-4.8
			c0.1-2.3,1.3-2.5,3.4-2.9c-0.1,0-0.1-0.2-0.2-0.1L160.4,5c-3.8-1.1-9.9-3.3-13.4-3.6c-2.5-0.2-4.8,2.2-6.5,3.1
			c-3.1,1.7-3.6,1.9-3.5,6.3c0.4,11.3-5.8,6.8-9.5,10.1c-2.1,1.9-4,5.2-5.3,8.4h5.2C128.2,27.3,129,25.6,130.9,24.5z"/>
		<path class="st0" d="M156.5,45.8c-2.3-4.1-5.2-9.5-5.9-11.2c-0.8-2.1-0.9-5.2-1.5-7c-0.3-0.7-0.1-0.4-0.6-0.7
			c-1.1-2-2.3-2.8-2.3-6c0-3.2,1.2-4.6,1.6-6.7l0.5-0.5l0.5,0.2l0.4,0.7c0.2,1,0.1,0.5,0.4,0.8l8.2,13.3c0.2,0.3,0.3,0.5,0.5,0.8
			c0.4-0.1,0.7-0.2,1.1-0.2h3.8c-1-2.6-2.5-5.4-3.6-7c-0.9-1.3-1.6-2-2.3-3.1l-0.5-0.8c-0.9-0.6-2.7-3.5-3.2-4.7
			c-0.8-2.1-0.7-4.7-2.6-5.8c-1.7-1-5.2-0.2-6.5,0.9c-1.8,1.6-1.2,4.2-1.7,6.8c-0.8,4.4-3.4,8-7.6,9.1c-3.1,0.8-4.2-0.2-5.7,2.8
			c-0.2,0.5-0.5,1.1-0.8,1.8h4.1c0.4-0.3,0.7-0.6,1.1-0.9c0.8-0.5,1.7-0.9,2.8-1.3c1.9-0.7,4.3-1.4,6.6-0.9c0.3,0.4,0,0.3,0.7,0.6
			c0.5,1.3,0.8,2.7,1.1,4c0.8,0.4,1.5,0.8,2.2,1.3c1.7,1.2,3,2.8,4.1,4.7c1.1,2,1.7,4.2,1.7,6.7c0,1.9-0.4,3.7-1.1,5.3
			c1.4,2.2,2.7,4.6,4.4,6.2V45.8z"/>
		<path class="st0" d="M233.7,70.6c0.7-0.4,1.6-0.8,2.7-1.1c-2.3-4-3.5-8.9-3.5-14.7c0-0.4,0-0.7,0-1.1c-0.1,0.2-0.2,0.3-0.2,0.5
			c-1.2,2.3-2.7,4.1-4.5,5.4c-1.8,1.3-3.6,2.2-5.5,2.6c0,0,0,0-0.1,0c-2.3,0.5-5.4,0.7-9.5,0.7h-2.6v6.9c5,0.3,9.8,0.6,14.8,1.2
			C229,71.4,230.7,72.4,233.7,70.6z"/>
		<path class="st0" d="M226.6,57.1c0.5-0.4,1.1-0.9,1.5-1.4C227.6,56.2,227.1,56.7,226.6,57.1z"/>
		<path class="st0" d="M269.3,23.9c2.5-3,2.5-1.5,5.4-3.2c1.9-1.1,3.4-2.3,5-3.6c6.2-4.7,8.5-2.5,12.6-4.4c2-0.9,3.7-2,5.4-3.2
			c2.6-1.7,3.4-1.4,2.9-5.5c-4.4-0.6-6.4,2-9.2,3.7c-4.3,2.6-5.6-0.7-10.9,1.1c-3.1,1-6.3,2.4-9.1,4.3c-5.8,3.8-3,2.5-6.4,6.9
			l-0.6,0.7c-0.6,1-1.9,2-2.9,2.7c-0.5,0.3-1.3,0.8-1.8,1l-1.9,1l2,1.6c-0.1,0.2-0.8,0.8-1.7,1.5c2.2,0.1,4.2,0.5,6.1,1.1
			C266,27.9,267.6,26,269.3,23.9z"/>
		<path class="st0" d="M134.5,88.4c3.2,0.9,6.7,1.7,9.6,2.9c2.8,1.2,7.6,2.2,10.3,0.5c-2.2-0.8-4.1-0.1-8.6-2.7
			c-3.9-2.2-4.1-4.5-6.5-4.8c-5.3-0.6-4.2,1.5-8.8-2c-0.9-0.7-2-1.6-2.9-2.6h-5.1c1.2,1.2,2.3,2.7,3.7,4.2
			C128.7,86.6,130.3,87.2,134.5,88.4z"/>
		<path class="st0" d="M237.7,77.3c1.9,1.4,4.9,1,7.8,0.8c-1.8-0.9-3.4-2-4.9-3.3C239.3,75.7,237.9,76.8,237.7,77.3z"/>
		<rect x="116.7" y="32.3" class="st0" width="3.5" height="0"/>
		<path class="st0" d="M165.5,87.5C165.6,87.4,164.9,87.5,165.5,87.5L165.5,87.5z"/>
		<path class="st0" d="M250.8,87.1C250.8,87.1,250.8,87.1,250.8,87.1C251.2,86.9,249.1,87.4,250.8,87.1z"/>
		<path class="st0" d="M94.1,62.8l-5.3,2.1v1.3h10.3c0,0,0-0.1,0.1-0.1c1.7-1.4,3.4-3.4,5.1-5.1c0.3-0.3,0.6-0.6,0.8-0.8h-6
			C98.7,61.2,97.5,61.7,94.1,62.8z"/>
		<polygon class="st0" points="126.5,32.3 126.5,32.3 121.2,32.3 121.2,32.3 		"/>
		<path class="st0" d="M230,52.9c0.9-1.9,1.4-4.1,1.4-6.9c0-1.7-0.2-3.2-0.5-4.5c0.4,1.4,0.5,2.9,0.5,4.5
			C231.4,48.7,231,51,230,52.9z"/>
		<path class="st0" d="M93.4,60.2h-4.6v2.2c0.9-0.5,1.8-1,3-1.5C92.3,60.7,92.9,60.5,93.4,60.2z"/>
		<path class="st0" d="M143.8,30.3c-0.3-2-1.4-3.4-4.8-2.8c-1.5,0.2-2.9,0.9-4.1,1.8c2.9,0,5.2,0.2,6.8,0.5
			C142.4,29.9,143.1,30.1,143.8,30.3z"/>
		<rect x="85.8" y="66.1" class="st0" width="0" height="3.1"/>
		<path class="st0" d="M108.9,42.8c-0.1,0-0.2,0-0.3,0H88.8v3.9H107c0.2,0,0.3,0,0.5,0.1c0.1-0.2,0.3-0.4,0.4-0.6
			C108.5,45,108.9,44.1,108.9,42.8z"/>
		<path class="st0" d="M222.9,33c0.6,0.2,1.2,0.4,1.7,0.6C224.1,33.4,223.5,33.2,222.9,33z"/>
		<path class="st0" d="M222.2,32.8c-1.8-0.3-4.9-0.5-9.5-0.5H199v0h13.7C217.3,32.3,220.4,32.5,222.2,32.8z"/>
		<rect x="85.8" y="57.2" class="st0" width="0" height="7"/>
		<g>
			<path class="st1" d="M241.7,123.8c-0.5,0.3-1,0.5-1.7,1.1c-1.4,1-2.1,2-3.2,3.3c0,0,0,0.1-0.1,0.1v1.7c1.2-1.7,3.1-3.9,5.8-4.9
				L241.7,123.8z"/>
			<path class="st1" d="M245.2,130l-0.1-0.2c-1.5,1.4-2.9,2.9-3.7,4.1c-0.8,1.2-1.3,2.5-1.9,3.7c0.7,0.6,1.1,1.4,1.1,2.3v1.9
				l1.5-2.6c0.1-1.5-1.1-2.5,0.7-5c0.9-1.2,2.1-2.1,3.2-3l-0.4-0.8L245.2,130z"/>
			<path class="st1" d="M171.6,140.4c1.8,2.6,3,5.6,3,9.7c2.9-0.3,4.6-1.1,6.7-1.7c0,0,0-0.1-0.1-0.1l-0.4-1l-4.1,0.4l-3.7-7.3
				H171.6z"/>
			<polygon class="st1" points="106.2,144.8 106.2,144.8 102.2,134.8 			"/>
			<path class="st1" d="M148.6,121.3c1.1-0.5,2.2-1,3.7-1.5c0.6-0.2,3.4-0.9,5.7-1.1l0.3-0.8c-1.8,0.1-3.6,0.2-5.8,0.7
				c-1.4,0.3-2.7,0.7-4,1.1V121.3z"/>
			<rect x="145.6" y="120.8" class="st1" width="0" height="2"/>
			<path class="st1" d="M66.1,98.7c4.7,1.3,7.8,1.3,11.2-1.7c2-1.8,4.3-7.9,4.8-10c-1.2,0.6-2.8,3-3.3,4.5c-2.1,7-9.4,7.6-15.2,5.8
				c-3.7-1.1-7-4.3-11.6-1.7c-0.9,0.5-3,2.9-4.8,4.9c0.6,0.1,1.1,0.1,1.6,0.2c0.4-0.4,0.7-0.7,1.1-1C55.3,94.5,57.9,96.5,66.1,98.7z
				"/>
			<path class="st1" d="M216.5,114.5c-0.5,0.7-1,1.5-1.4,2.2c0,0.5,0,1.1,0,1.6c0.7-0.9,1.5-1.9,1.9-2.4c0.2-0.3,0.7-0.8,1.1-1.3
				H216.5z"/>
			<path class="st1" d="M225.4,165c-0.4,0.7-0.3,0.9-0.6,1.6c-3.9-0.7-12.8-5.7-16.1-4.8c-1.8,0.5-2.3,1-4.3,1.2
				c-5.6,0.6-9.2-0.3-13.8-2.1c-1.3-5.3-2-4.2-6.5-3.1c-1.7,0.4-2.8-0.8-4.2,0.8c-1,1.2,0,3,0,4.6c-0.8,0.5-3.6,1.6-4.5,1.9
				c-1.7,0.6-2.7-1-4.7-1.3c-0.6-0.1-5.5-0.4-6.1-0.4c-2.1,0.1-2.4,1.6-3.9,2.5c-0.5-2-2-4-2.1-6.3c-0.1-4.1,5-7.4,4.8-11.5
				c0-0.6-0.2-1.2-0.4-1.9l-0.7,2c-0.2,0.5-0.5,0.9-0.9,1.3c0,0.6,0,1.2-0.1,1.7c-0.3,2.5-2.3,3.5-3.5,5.4c-2,3.1-0.2,5.6,1.4,10.4
				c0.4,1.2,1.1,4.8,2.5,2c0.2-0.5,0.4-0.9,0.6-1.3c0.4-0.8,0.7-1.8,1.2-2.5c1.5-2.1,3.5,0.2,5.2,0.5c1.1,0.2,2.5,0.1,3.5,0.3
				c1.3,0.3,1,1.1,2.4,1.1c1.9,0,2.9-2,4.8-2.3c0.5-0.4,0.6-0.2,1.2-0.4l0.4-1.2c0,0,0.1-0.1,0.1-0.1l0.4-3.7l7-0.5
				c1.1,1.7,0.1,4,3.3,4c1.8,0,1.6-0.3,3,0.5c5,3.2,9.6,0.2,15,0c4.1-0.1,7.7,1.9,11.2,3c5.4,1.7,7.1,0.2,7.5-5.2
				C227.7,161.6,225.9,164.1,225.4,165z"/>
			
				<rect x="159.5" y="143.9" transform="matrix(0.3447 -0.9387 0.9387 0.3447 -29.8534 245.0027)" class="st1" width="2.1" height="0"/>
			<polygon class="st1" points="176.5,105.2 176.5,105.2 177,106.5 			"/>
			<path class="st1" d="M200.9,106.8v-0.6v-0.1c-0.2,0-0.4,0-0.6,0c-0.3,0-0.5,0-0.6,0c-4,0.2-6.6-0.5-10.7-0.8
				c-2.3-0.1-4.6-0.1-6.8-0.2c-0.7,0-1.5,0-2.3,0l0.6,1.4l8.2,0.4c4.4,0.2,8.1,0.2,12.3,0.1V106.8z"/>
			<path class="st1" d="M211.3,96.3c-7,4.5-14.4,5.4-22.4,2.9c-3.4-1-9.5,0.1-13.4,0c-2.5-0.1-4.1-0.9-6.7-0.6
				c-4.3,0.5-7.1,4.4-15.3,5.6c-1.9,0.3-3.5,0.3-4.9,0.3v1.2c11.2,1,13.6-3.8,19.2-5.2c5.3-1.4,8.4,1.7,12.6,0.4
				c5.6-1.8,13.7,2.2,22.7,0.5c0.1,0,0.2,0,0.3-0.1c2.5-0.5,5.1-1.4,7.7-3c5.5-3.4,5.4,0.2,11.3,3h4.1
				C218.3,98.4,216.7,92.8,211.3,96.3z"/>
			<path class="st1" d="M96.4,87.6c2.6-1.3,5.6-2.2,8.5-3.3c4.6-1.7,4.4,0.1,6.7,3.3c4.6,6.4,9.9,11.5,17.4,13.5h6.7c0,0,0,0,0,0
				c-13-1.5-18.7-8.2-25-17.2c-1-1.4-2.1-2.6-4.8-1.8c-3.6,1.1-6.6,2.1-10,3.9c-3.9,2-4.5,3.7-6.1,7.8l-2.4,7.2h1.5
				c0.7-2.3,1.8-5.3,2.4-7C92.7,90.3,92.8,89.4,96.4,87.6z"/>
			<rect x="145.6" y="104.2" class="st1" width="0" height="1.1"/>
			<path class="st1" d="M101.5,106.7c-2.8-1.6-5.5-2.5-8.6-2.9l0.7,1.7c3.8,0.6,4.7,0.9,8.4,3.5c1.9,1.4,4,3,6.2,4.3V112
				c-0.6-0.5-1.1-1-2-1.9C104.9,108.9,103.2,107.6,101.5,106.7z"/>
			<path class="st1" d="M103.8,89.7c-4.1,0.4-8.4,4.8-8.2,9.4c0.8,0.6,3,1.3,4.2,1.9c2,1.1,5.7,3.2,8.5,4.7v-1.5c0,0,0,0,0,0
				c-1.3-0.9-2.6-1.9-3.8-2.6c-2-1.2-5.7-2.5-7.2-3.7c0-2.6,2.6-5.1,4.6-6.1c5.1-2.5,5.6,2.1,12.5,7.8c0.6,0.5,1.2,1.1,1.9,1.6h2.7
				c-2.1-1.5-4-3.1-5-4C109.5,93,108,89.3,103.8,89.7z"/>
			<path class="st1" d="M238.7,104.9c-0.2,0.1-0.8,0.3-1,0.4l-1,0.4v1.6c2.6-1,4.8-1.5,5.5-2.2c0-1.5-0.3-1.2-1.6-1.9
				c-1.8-0.9-2.9-0.9-4.4-0.7c0.2,0.3,0.4,0.7,0.5,1.1c1.3,0,2.2,0.1,2.8,0.5C239.2,104.9,239.8,104.3,238.7,104.9z"/>
			<path class="st1" d="M270.3,102.3c0-0.8-0.6-1.9-0.5-3.4c0.1-3.8,3.1-7.2,3.3-8.1c0.4-0.7,0.3-0.3,0-0.4c-1,0.3-3.3,1.5-4.4,2
				c-3.4,1.7-10,5.4-13.4,5.3c-7.4-0.2-5.3-7.6-17.8-7.3c-4.1,0.1-7.9,0-10.9-1.9c-3.4-2.1-3.2-4.7-6.8-5.7
				c-2.6-0.7-8.5,0.6-10.8,1.5c-3.4,1.5-2.8,2.4-8,4.4l1.3,0.1c4.5,0,6.9-4.1,10.8-4.2c0.7,0,5.3,1,6.3,1.2
				c3.1,0.7,7.8,6.1,15.5,6.3c2.6,0.1,7.8-1.9,11.6,2.1l0.6,0.6c6.4,5.5,8.5,5.5,16.4,2.1c1.5-0.6,4-2,5.6-2.4l-0.6,7.8
				c-3.2,1.5-6.5,3-9.8,4.7c-5.4,2.8-8.2,5.7-13.8,8.4h3.7c0,0,0.1,0,0.1,0c3.4-2.1,8-5.8,11.7-7.9
				C266.2,104.1,270.3,105,270.3,102.3z"/>
			<path class="st1" d="M236.7,118.7v1.6c0.8-0.6,1.7-1,2.4-1.2c-0.1-0.5-0.1-1,0-1.5C238.3,117.9,237.5,118.3,236.7,118.7z"/>
			<path class="st1" d="M38,129.5c-0.9,0.1-2-0.1-3.5-0.5c0-1.1,1.1-5.1-2.7-5.3c-0.8-0.3-0.4,0-0.9-0.8c-0.2-1-1.8-4.3-2.4-5.8
				l-1.1-0.2c-0.3-0.1-0.6-0.2-0.9-0.4c1,3.3,2.3,7.5,4.2,9.7l2.8,2.9c0.4,0.5,0.3,0.6,0.7,1c0.4,0.4,4.4,2.3,5.2,2.5l0.3-0.8
				C38.8,131.4,38.2,130.5,38,129.5z"/>
			<path class="st1" d="M30.5,104.5c0-0.1,0-0.1,0.1-0.2c0.8-2,2.8-2.9,3.9-5c1.9-3.7-1.1-3.2,4.4-4.4c1.9-0.4,1.3-1.1,2.2-2.4
				c0.6-0.8,1.2-1.8,1.9-2.5c2-2.1,10.2-5.4,11.3-6.3c0.5-0.5-0.8-0.4,0.8-0.5c-0.2-0.3-0.1-0.4-0.3-0.7c-3.2,0-3.9,0.1-6.3,1.8
				c-7,4.9-3.9,0.7-9.2,7.6c-2.6,3.4-4.5,2.5-5.1,3.2c-1.1,2.6,0.6,3.3-2.2,5.5c-3.1,2.4-2.5,0.3-3.4,4c-0.4,1.6-0.8,2.7-1.1,3.5
				C28.1,106.9,29.1,105.6,30.5,104.5z"/>
			<path class="st1" d="M25.4,112.5c0.3-0.9,0.6-1.9,1.1-2.8C25.6,111,25,110.8,25.4,112.5z"/>
			<path class="st1" d="M206.1,150.3v1.3c1.7-0.4,3.4-0.8,5.1-0.8c4.7-0.1,5.2,2.3,8.1,2.6l1.2-3.2h-1.2c0,0.4-0.1,0.8,0,1.2
				l-0.3,0.6c-0.6-0.3-0.4-0.2-0.6-0.5c-1.4-0.4-2.4-1-3.6-1.4h-8.1C206.4,150.2,206.2,150.3,206.1,150.3z"/>
			<path class="st1" d="M205.6,158.2c1.6-0.4,3-1,4-1.2c3.4-0.9,4.7,0.5,6.9,1.8c0.9,0.6,5.3,2.5,6.3,2.7l4-11.3H225
				c-0.4,1.3-0.8,2.6-1.1,3.5c-0.7,2.3-1.6,4-2.2,5.9c-1.2-0.1-4.1-1.9-5.3-2.6c-5.2-2.8-7.3-1.7-10.3-0.4
				C206.1,157.2,205.9,157.8,205.6,158.2z"/>
			<path class="st1" d="M176,158.9c0.3-4.1,5.3-4.5,9.3-5.1c1.9-0.3,4.5-1.2,6.5-0.7c0.4,0.1,0.7,0.2,0.9,0.3v-1.4
				c-0.7-0.2-1.4-0.4-2.4-0.4c-3.1-0.2-10.9,1.5-13.1,2.7c-2.9,1.5-2,2.7-3.4,4.3c-2,0.8-6.3-0.5-7.5-1.4c2.5-5.4,5-9.1,0.4-16
				c-0.1-0.1-0.2-0.3-0.4-0.5H165l-0.2,0.7c1.6,1.9,3.1,4.1,3.3,6.1c0.4,3.4-2.8,8-3.8,10.8l-0.1,0.7c1.3,0.1,0.2,0,0.7,0.3l9.3,1.5
				l1.5,0.2c0-0.2,0-0.9,0-1.1C175.8,158.5,175.7,159.1,176,158.9z"/>
			
				<rect x="162.2" y="138" transform="matrix(0.3447 -0.9387 0.9387 0.3447 -22.8647 243.1684)" class="st1" width="1.2" height="0"/>
			<path class="st1" d="M147.8,149.2c-0.1,0.1-0.2,0.2-0.3,0.3c1.1,1.6,0.8,0.8,0.7,3.6l-0.2,1.5c-0.6,0,0,0.2-0.8,0
				c-1-0.2-0.5-0.2-0.7-0.4c-3.4,0-1.6-0.5-4,1.2c-3.3,2.4-7.1-1.8-10.2-4.5c-1.4-1.2-6-4.7-9.4-6.8v2.1c3.7,2.5,9.1,6.8,10.6,8
				c5.5,4.4,3.8,4.3,7.2,3.2c6.4-2.1,4-1.9,8.6,0.1c-0.1-5.1,2-4.3,0.7-7.4C149.2,150.2,148.4,149.8,147.8,149.2z"/>
			<path class="st1" d="M148.6,142.8l1.2-3c-0.4,0.2-0.8,0.5-1.2,0.7V142.8z"/>
			<path class="st1" d="M144.3,150.7l0.1-0.5h-1.7l0,0.2l-0.7-0.2l-0.1,0h-4.2C139.6,151.2,142.4,152,144.3,150.7z"/>
			<polygon class="st1" points="145.6,146.3 145.6,146.3 145.6,142 145.6,142 			"/>
			<path class="st1" d="M129.2,141.1c-2-0.9-2.9-1.5-5.1-2.3c-0.3-0.1-0.7-0.2-1.1-0.4v1.5c3.3,1.3,6.7,3.3,8.6,4.9
				c0.9,0.7,1.6,1.4,2.3,2.1v-2.4c-0.3-0.2-0.5-0.5-0.8-0.7c-0.6-0.5-2.3-1.6-3-2.3C129.3,141.4,129.6,141.4,129.2,141.1z"/>
			<path class="st1" d="M133.8,123.7c-2.4-0.5-4.4-1.4-6.3-2.5c-1.4-0.8-3-1.6-4.5-2.4v2.8c1.5,1,3.1,2.1,3.8,2.5
				c2.4,1.4,4.5,1.6,7.1,1.7V123.7z"/>
			<path class="st1" d="M208.9,139C208.9,139,208.9,139,208.9,139c0.2-0.5,0.4-1,0.5-1.6C209.3,137.9,209.1,138.5,208.9,139z"/>
			<path class="st1" d="M213.3,134.4c-0.2,0.9-0.4,1.7-0.6,2.5h0.4c1.8-1.6,2.7-3.9,4.1-6.8c1.5-3.3,2.9-5.7,4.8-8.3v-3.1
				c-0.2,0.2-0.3,0.4-0.5,0.7c-5.3,7-4.8,10.3-7.4,14.1C213.8,133.8,213.6,134.1,213.3,134.4z"/>
			<polygon class="st1" points="35,115.5 35,115.5 32.6,115 			"/>
			<path class="st1" d="M43.6,113.5c-2.3,0-3.5,0.9-4.1,3.2c-0.4,1.3-1.6,2.2-2.9,2.2c-0.2,0-0.5,0-0.7-0.1l-1.6-0.4
				c0.1,0.1,0.1,0.2,0.2,0.3c0.6,1,1.7,2.5,2.1,3.6l0.7,0.1c0.1-0.8,1.3-3.1,1.8-4.3c0.6-1.4,1.3-2.8,2.6-3.4
				c1.3-0.7,3.4-0.1,5.5,0.5c-0.1-0.3-0.3-0.6-0.6-0.9C45.9,113.8,44.9,113.5,43.6,113.5z"/>
			<path class="st1" d="M64.9,120.9c-1.6,1.1-3.7,1.6-5.7,1.8c-0.4,0.5-0.8,1-1.3,1.4c0.4,0.3,0.8,0.6,1.2,0.9
				c1.7-0.1,3.4-0.5,5.2-1.4c0.8-0.4,1.5-0.8,2.1-1.2c2-1.4,2.8-1.1,4.1-0.3l0.5-1.4C69.1,119.9,67.3,119.3,64.9,120.9z"/>
			<path class="st1" d="M52.4,124.3c0.9-0.5,1.8-1.1,2.5-1.7v0C54.2,123.2,53.3,123.8,52.4,124.3L52.4,124.3z"/>
			<path class="st1" d="M133.8,137c-1.9-0.8-4-1.9-5.4-2.5c-1.8-0.8-3.5-1.5-5.5-2.1v2.3c2.2,0.6,4.8,1.5,5.9,1.8
				c1.9,0.6,3.5,1.4,5,2.2V137z"/>
			<path class="st1" d="M85.8,90.3l-0.6,0c-0.5,2.6-2.4,6.9-3.7,8.4c-1.2,1.5-3.6,3-5.3,4.1c-0.8,0.5-1.2,0.6-1.6,1.5
				c0.5,0.2,1.4,0.6,2.3,1l0.8-2.2c0.4-1.2,1.6-1.9,2.8-1.9h0.6c1.2-1.2,2.2-2.2,3.1-3.9C85.9,94.6,85.7,93.6,85.8,90.3z"/>
			<path class="st1" d="M133.8,130.2c-0.4-0.2-0.8-0.5-1.2-0.6l-8.6-3.7c-0.3-0.1-0.7-0.3-1.1-0.5v2.2c0.4,0.2,0.7,0.3,0.9,0.4
				c3.3,1.2,5.5,1.6,8.6,3.4c0.4,0.3,0.8,0.5,1.3,0.7V130.2z"/>
			<path class="st1" d="M62.6,108.8c-0.7,0.2-1.2,0.4-1.7,0.6c0.2,0.4,0.4,0.8,0.5,1.3c0.3-0.1,0.6-0.2,1-0.3
				c1.8-0.5,3.9-0.8,5.9-0.8c2.1,0.1,3.8,0.5,5.5,1.1c0.2,0.1,0.6,0.2,0.9,0.4l0.5-1.3c-0.4-0.2-0.8-0.4-1.2-0.5
				C70.3,107.8,66.5,107.6,62.6,108.8z"/>
			<path class="st1" d="M58.5,111.5c-0.1-0.4-0.3-0.7-0.4-1.1C58.3,110.7,58.4,111.1,58.5,111.5C58.5,111.5,58.5,111.5,58.5,111.5z"
				/>
			<path class="st1" d="M57.8,109.8C57.8,109.8,57.8,109.8,57.8,109.8c0.1,0.2,0.2,0.4,0.3,0.5C58,110.2,57.9,110,57.8,109.8z"/>
			<path class="st1" d="M151.9,123.8c-1,0.7-2.2,1.4-3.3,2.2v1.8c2.1-1.5,4.6-3.1,7.3-3.5l1-2.6C155,122,153.7,122.7,151.9,123.8z"
				/>
			<polygon class="st1" points="145.6,129.9 145.6,129.9 145.6,128 145.6,128 			"/>
			<path class="st1" d="M95.8,110.9l0.7,1.7c1.9,1.1,3.4,2.5,5.1,3.7c1.1,0.8,4.1,2.5,6.5,3.6v-1.5c-2.3-1.3-4.9-3.1-6.5-3.9
				C99.5,113.2,97.9,111.8,95.8,110.9z"/>
			<path class="st1" d="M68.1,114.1c-2,0.1-4.2,0.8-6.1,1.3c0,0.7-0.1,1.4-0.3,2c0.5-0.1,1-0.2,1.6-0.4c1.5-0.5,2.2-1.3,3.9-1.6
				c2.2-0.5,3.9,0.3,5.3,1.2l0.6-1.5c-0.1-0.1-0.2-0.1-0.3-0.2C71.6,114.2,69.9,114,68.1,114.1z"/>
			<path class="st1" d="M199.4,130.6c0.1-0.6,0.2-1.1,0.3-1.7c-0.5-0.2-1-0.3-1.4-0.4c-2.4-0.5-4.3,0.2-6.8-0.1
				c-1-0.1-1.8-0.3-2.6-0.6l0.4,1.1c2.4,0.2,5.5,0.4,9.7,1.6C199.1,130.6,199.3,130.6,199.4,130.6z"/>
			<path class="st1" d="M133.8,117c-0.2-0.1-0.5-0.1-0.7-0.2c-1.5-0.3-2.9-0.7-4.3-1.3c-0.5-0.2-1.4-0.6-2.4-1.1H123v0
				c1.3,0.8,3,1.6,4.9,2.3c1.5,0.5,3.2,0.8,4.8,1.3c0.4,0.1,0.8,0.3,1.1,0.5V117z"/>
			<polygon class="st1" points="100.6,130.7 100.6,130.7 99.8,128.8 			"/>
			<path class="st1" d="M103.3,129.5l0.7,1.7c1.7,0.4,3.1,1.3,4.2,2.4v-2.5c-0.5-0.4-1.1-0.7-1.7-1
				C105.3,129.6,104.5,129.6,103.3,129.5z"/>
			<path class="st1" d="M221.4,135.3c0.2-0.2,0.4-0.5,0.6-0.7v-4.4c-1.4,2.2-3,4.8-4.1,6.7h2.3C220.5,136.4,220.9,135.9,221.4,135.3
				z"/>
			<path class="st1" d="M63.6,104.2c-0.7-0.8-7.6-3.2-8.2-3.4c-0.4,0.4-0.8,1-1.2,1.7c1.1,0.5,2.1,1.2,3,1.9l4.2,0
				C62.1,104.5,62.9,104.6,63.6,104.2z"/>
			<path class="st1" d="M148.6,115c2.4-0.9,5.2-1.9,9.9-2.1c0.6,0,1.2,0,1.8,0l0.4-1.1c-0.7,0-1.4,0-2,0c-1.8,0.1-3.6,0.3-5.2,0.6
				c-1.6,0.3-3.4,0.9-5,1.4V115z"/>
			<polygon class="st1" points="145.6,116.1 145.6,116.1 145.6,114.6 145.6,114.6 			"/>
			<polygon class="st1" points="95.3,117.7 96.3,120 95.3,117.7 			"/>
			<path class="st1" d="M107.7,125c-1.3-0.9-3-0.5-7.7-3.8l1.5,3.6C102.7,125.2,104.4,125.2,107.7,125z"/>
			<polygon class="st1" points="145.6,137.3 145.6,137.3 145.6,134.8 145.6,134.8 			"/>
			<path class="st1" d="M148.6,135.2c0.5-0.4,1.1-0.8,1.5-1.1c0.7-0.5,1.6-1,2.5-1.5l0.7-1.8c-1.6,0.6-3.3,1.4-4.7,2.1V135.2z"/>
			<polygon class="st1" points="84.1,126.1 83.7,127.1 86.9,127.1 86.8,127 			"/>
			<path class="st1" d="M197.6,136.5c0.2-0.4,0.3-0.9,0.5-1.4c-1.2-0.3-2.3-0.7-3.4-0.9c-1.4-0.3-2.5-0.4-3.5-0.5l0.6,1.6l2.1,0.2
				C195.3,135.9,196.5,136.2,197.6,136.5z"/>
			<path class="st1" d="M43.4,119.6c1.2-0.1,2.2-0.5,2.8-1c0.2-0.1,0.3-0.3,0.4-0.5c-0.7-0.4-1.5-0.8-2.3-0.9L43.4,119.6z"/>
			<path class="st1" d="M169.9,127.1h0.4c-0.1-0.1-0.2-0.2-0.3-0.3L169.9,127.1z"/>
			<polygon class="st1" points="167,126.4 167.5,125 167.5,125 			"/>
			<polygon class="st1" points="145.6,111.3 145.6,111.3 145.6,110.1 145.6,110.1 			"/>
			<path class="st1" d="M148.6,111.4c2.4,0.1,4.3,0.3,7.7-0.5c0.8-0.2,3.2-0.9,5.4-1.5l0.4-0.9c-0.2,0.1-0.4,0.2-0.7,0.2
				c-1.5,0.5-3.3,1-5,1.4c-2.7,0.5-5.2,0.7-7.8,0.5V111.4z"/>
			<path class="st1" d="M228.8,159.5l0.3,0.3l0.2-0.4c-0.2-0.1-0.3-0.1-0.5-0.2C228.8,159.3,228.8,159.4,228.8,159.5z"/>
			<rect x="105.9" y="49.7" class="st1" width="1.1" height="0"/>
			<path class="st1" d="M110.9,42.4c0.6-0.9,1.7-2.1,2.9-3.3v-2.7c-0.8,0.4-1.5,0.9-2.1,1.5v2c0,1.5-1.2,2.8-2.7,3
				c-0.1,1.3-0.4,2.2-1,3.3c-0.1,0.2-0.2,0.4-0.4,0.6c0.6,0.1,1.2,0.4,1.7,0.9C109.7,45.8,109.9,43.8,110.9,42.4z"/>
			<path class="st1" d="M138.4,46.1c0.1-0.1,0.2-0.2,0.3-0.4c0-0.8-0.1-1.6-0.3-2.4c-0.3-0.3-0.8-0.4-1.2-0.5c-0.1,0-0.4,0-0.9-0.1
				c0,0.8,0,1.6,0.2,2.4c0.1,0.7,0.2,1.2,0.3,1.6C137.9,46.6,138.3,46.3,138.4,46.1z"/>
			<path class="st1" d="M136.8,49.8c0.1,0,0.2,0,0.3,0c0.4,0,0.8-0.1,1.1-0.2c-0.3,0.1-0.7,0.2-1.1,0.2
				C137,49.8,136.9,49.8,136.8,49.8L136.8,49.8z"/>
			<path class="st1" d="M81.8,82l4.4-2.3h-3.2c-1.4,0.8-2.3,1.6-1.8,2.1C81.5,82.2,80.9,82.1,81.8,82z"/>
			<path class="st1" d="M148.7,18.6c2.9,1.9,5.8,5.9,7.5,9.9c0.3,0.7,0.6,1.4,0.8,2.2c0.3-0.5,0.8-0.9,1.4-1.1
				c-0.2-0.3-0.3-0.5-0.5-0.8l-8.2-13.3c-0.3-0.3-0.3,0.2-0.4-0.8l-0.4-0.7l-0.5-0.2l-0.5,0.5c-0.4,2.2-1.6,3.6-1.6,6.7
				c0,3.2,1.1,4,2.3,6c0.5,0.3,0.3-0.1,0.6,0.7c0.7,1.8,0.7,4.8,1.5,7c0.7,1.7,3.6,7.1,5.9,11.2v-2.3c-1.6-3.1-3.2-6.4-3.8-8
				c-1.9-4.7-2.6-9.5-3.9-11.9c-1.2-2.1-1.2-0.9-1.1-3.6l0.6-1.7C149.1,18.3,148.4,18.1,148.7,18.6z"/>
			<polygon class="st1" points="121.2,32.3 120.2,32.3 120.2,32.3 121.2,32.3 			"/>
			<rect x="126.5" y="32.3" class="st1" width="1.1" height="0"/>
			<polygon class="st1" points="132.5,32.3 130.7,32.3 130.7,32.3 132.5,32.3 			"/>
			<polygon class="st1" points="165.6,32.3 165.6,32.3 164.3,32.3 164.3,32.3 			"/>
			<path class="st1" d="M144,26.9c-0.7-0.3-0.4-0.2-0.7-0.6c-2.4-0.4-4.7,0.3-6.6,0.9c-1.1,0.4-2,0.8-2.8,1.3
				c-0.4,0.2-0.8,0.6-1.1,0.9h0.9c0.4,0,0.9,0,1.3,0c1.2-0.9,2.5-1.5,4.1-1.8c3.4-0.6,4.4,0.8,4.8,2.8c0.5,0.2,0.9,0.3,1.4,0.5
				C144.9,29.5,144.6,28.1,144,26.9z"/>
			<rect x="159.5" y="32.3" class="st1" width="0.4" height="0"/>
			<path class="st1" d="M146.1,35L146.1,35c-0.2-0.1-0.3-0.3-0.5-0.4c-0.5-0.4-1.1-0.7-1.6-0.9v0c0.6,0.3,1.1,0.6,1.6,0.9
				C145.8,34.7,145.9,34.8,146.1,35z"/>
			<path class="st1" d="M140.9,32.7c-1-0.2-2.3-0.3-3.9-0.3c0,0,0,0,0,0C138.6,32.4,139.9,32.6,140.9,32.7L140.9,32.7z"/>
			<path class="st1" d="M127.6,20.9c3.7-3.3,9.9,1.3,9.5-10.1c-0.2-4.3,0.3-4.5,3.5-6.3c1.7-1,4-3.4,6.5-3.1
				c3.6,0.3,9.6,2.5,13.4,3.6l1.6,0.6c0,0,0.1,0.1,0.2,0.1c-2.1,0.3-3.3,0.5-3.4,2.9c-0.1,2.6,0.3,3,1.3,4.8
				c0.4,0.3,0.3,0.1,0.6,0.7l1.3,1.2c0.6,0.3,0.4,0.1,0.7,0.6c1,0.7,2.1,2.2,2.5,3.9c0.5,2.3,1.1,2.6,2,4.4c1.2,2.2,1.9,3.4,2.5,5
				h1.7c-0.8-3.6-2.3-6.6-4.2-9.8c-1.1-1.9-1.9-3.9-4-5.4c-2.3-1.6-3-2.7-3-6.5c1.4,0.3,2.3,1.4,3.5,1.6l0.4,0.1l0-0.6l-0.9-4.9
				l-0.5-0.6l-4.5-0.1l-0.2-1.6c-0.9,0.2-1.1,0.3-2,0c0,0-0.1,0-0.2-0.1c0-0.1-0.1-0.1-0.2-0.1c-2,0-6.3-0.7-7.8-1.4h-2.4
				c-0.9,0.5-2.2,0.8-3.2,1.4c-1.1,0.7-1.7,1.3-2.6,1.8c-0.3,0.4-0.1,0.3-0.7,0.5c-1.1,1.1-2.7,1.4-3,3.1c-0.6,3.4,1.6,7.7-1.8,10.2
				c-1.6,1.2-3.1,0.7-5.1,1.2c-5.5,1.3-6.2,6.9-7.5,11.2h0.8C123.6,26.1,125.4,22.8,127.6,20.9z"/>
			<polygon class="st1" points="170.4,32.3 171.7,32.3 171.7,32.3 170.4,32.3 			"/>
			<path class="st1" d="M158.2,18l-0.5-0.8c-1.8-3.3-3.5-4.9-3.9-9.7c-3.7-1.1-9-2.2-11.1,1c-2.6,3.8,1,10.8-6.7,14.1
				c-1.8,0.8-3.5,0.8-5.2,1.8c-1.9,1.1-2.7,2.8-3.4,4.9h1.3c0.3-0.7,0.6-1.3,0.8-1.8c1.5-3,2.6-2,5.7-2.8c4.2-1.1,6.8-4.7,7.6-9.1
				c0.5-2.6-0.1-5.2,1.7-6.8c1.3-1.1,4.7-2,6.5-0.9c1.9,1.1,1.8,3.7,2.6,5.8c0.5,1.2,2.3,4.1,3.2,4.7l0.5,0.8
				c0.7,1.1,1.4,1.8,2.3,3.1c1.1,1.6,2.5,4.4,3.6,7h1.8c-0.3-1.1-0.8-2.4-2.1-4.5C162.3,23.7,158.7,18.4,158.2,18z"/>
			<path class="st1" d="M95.9,80.4l0.3,1.2c0.8-0.1,3-1,4.7-1.8h-3.5L95.9,80.4z"/>
			<path class="st1" d="M113.7,61.7v-2.1c-1.9,1.6-3.9,2.9-3.9,6.6c1.2,0.1,2.1,1,2.5,2.1c0-0.3,0-0.6,0-0.9
				c-0.1-3.3-0.4-3.5,1.3-5.6C113.6,61.8,113.7,61.7,113.7,61.7z"/>
			<path class="st1" d="M242.5,98.9c1.2,0.8,7.4,5.6,8,6.5c-1.3,1.1-3.1,1.8-4.6,2.6c-3.2,1.8-6,3.1-9.2,4.6v1.2
				c1.9-0.8,4-1.4,6.4-2.4l0.3-0.2c0,0,0.1-0.1,0.2-0.1l1.1-0.6c1.7,0,7.7-4.8,8.6-5.9c-0.2-0.4-0.2-0.4-0.6-0.8
				c-1.4-0.8-3.1-1.4-4.4-2.2c-1.8-1-2.5-1.9-3.9-3c-5.8-4.5-11.5,1.4-21.6-5.7c-2.6-1.8-4.9-4.5-9.5-4.1c-3.9,0.4-4.6,2.9-9,4.6
				c-3.9,1.6-7.5,1.6-11.8,0.7c-1.9-0.4-3.6-1-5.2-1.5c-5-1.4-3.8,3.6-17.5-0.3c-5.9-1.7-9,6.9-20.4,6.4c-5.6-0.2-7.9-2.6-10.4-3.3
				c-2.9-0.8-6.3,0.5-11.2-2.4c-4.2-2.5-9.7-8.5-12.6-13.7c-0.8-0.5-1.4-1.5-1.4-2.5v-0.5c-0.7-1.8-1.1-3.7-1.3-5.8v6.3
				c0,0.3,0,0.5-0.1,0.8c2,1.7,2.6,5.8,6.5,10.2c8.7,10,17.1,7.8,19.9,9.2c2.6,1.3,4.2,2,7.3,2.5c6,0.9,11.7-0.4,16.1-2.9
				c3.2-1.8,3.8-3.6,6.2-3.4c3.5,0.3,7.3,2.7,12.6,1.8c1.7-0.3,2.4-0.9,3.6-1.2c0.9-0.2,6.2,1.5,7.9,1.7c8.2,1.2,10.4-0.4,16.4-2.4
				l0.6-0.5c0.2-0.1,0.4-0.2,0.7-0.3c1.9-0.6,2.6-1.6,5.5-1.5c2.3,0.1,3.8,1.1,5.1,2.2c4.8,3.8,9.6,6.2,16.3,4.9
				C239.9,97.2,240.5,97.5,242.5,98.9z"/>
			<path class="st1" d="M152.1,82.6l0.8-0.7c0.1-1.1,0.8-2.7,1-4.3c0.2-1.3,0.5-3.3,0.5-4.6c0.1-1.2,0.2-1.1,1.5-1.2l0.6,0v-1.3
				l-2.6,0.4l-0.4,0.9l-2.6,9.7c-1.8-0.6-2.8-1.6-3.8-2.9c-0.1-0.1-0.2-0.3-0.3-0.4c-0.7,0.3-1.4,0.6-2.2,0.8
				C148,80.5,149.6,84.3,152.1,82.6z"/>
			<path class="st1" d="M122.5,79.7h-2.3c2.6,3.9,8,9.4,12.5,10.5c2.5,0.6,5.8-0.2,7.7,0.7c0.9,0.5,1.5,1,2.6,1.5
				c10.6,5.1,18.8-3.2,21.9-4.6c0.2-0.2,0.1-0.1,0.5-0.3c0,0,0.1,0,0.1,0c-0.6,0.1,0.2-0.1,0,0c0.1,0,0.2,0,0.5-0.1
				c4.9-1.4,8.3,2.9,15.3,1.1c8.7-2.3,7.8,0.7,11.1,0.9c1.6,0.1,3.2-0.3,4.7-0.1c-0.1,0-0.4-0.1-0.4-0.1c-0.5-0.2-0.4-0.1-0.7-0.4
				c-2.2-0.1-5.7-1.4-7.4-2.2c-4.7-2.2-2.3-1.2-6.7,0.3c-9.3,3-13.1-2.6-15.8-2.1c-1.9,0.3-6.2,6.7-14.2,4.7
				c-2.6-0.6-7.8-3.2-9.5-5.2c-0.8-0.9-1.3-2.1-2-2.7c-4.1,0.4-3.8,2.7-7.7-0.3c-0.6-0.4-1.3-1-2.1-1.6h-2.9c0.9,1,2,1.9,2.9,2.6
				c4.6,3.4,3.5,1.4,8.8,2c2.4,0.3,2.6,2.6,6.5,4.8c4.5,2.5,6.4,1.9,8.6,2.7c-2.7,1.8-7.6,0.8-10.3-0.5c-2.8-1.2-6.3-2-9.6-2.9
				c-4.2-1.1-5.8-1.8-8.3-4.4C124.8,82.4,123.7,80.9,122.5,79.7z"/>
			<path class="st1" d="M143.9,75.9L143.9,75.9c-0.8,0.2-1.5,0.4-2.4,0.5c-0.4,0-0.9,0.1-1.5,0.1c0,0,0,0,0,0c0.6,0,1.1-0.1,1.5-0.1
				C142.3,76.3,143.1,76.1,143.9,75.9z"/>
			<path class="st1" d="M204.8,80.6c0.6-0.1,1.3-0.5,1.9-0.8h-2.1l-0.2,0.7C204.6,80.7,203.9,80.9,204.8,80.6z"/>
			<path class="st1" d="M270.2,111.1c3.5-1.2,4.3-1.1,6.7-3.3c4.1-3.7,2.8-3.6,1.9-6.5c-0.9-3,1-5.2,1.3-8.2
				c0.3-3.6-1-10.3-3.5-11.6c-1.2-0.6-3.2-0.3-3.9,0.7c-1.7,2.3-2.6,3.4-5.1,4.9c-18.7,11.1-9.4-1.2-19.1-1.4
				c-4.1-0.1-3.1-2.3-7-3.1c-4.2-0.9-5.5,1.2-8.2,1.4c-5.2,0.4-5.4-8.4-21.5-8.7c0.2,0.3,0.1,0.2,0.2,0.6c0.8,0.2,2,0.6,2.7,1.1
				c-0.8,0.1-2.5,0.1-4.3,0.3c-0.1,0.4-0.3,0.8-0.5,1.2c4.5-1.2,9.5-0.8,13.9,1.1c2.4,1,2.4,1.8,3.9,3.7c1.1,1.3,3,2.4,5.7,2.3
				c2.8-0.1,4-1.9,6.2-1.7c1.5,0.1,4,1.6,5.6,2.2c1.2,0.4,3.8,1.7,5.1,1.3c0.3-0.1,0.5-0.2,0.5-0.2c0,0,0,0,0,0
				c-1.7,0.3,0.4-0.2,0,0c1,2.1,3.8,6.6,6.7,6.5c1.4-0.1,7.3-3.4,9.3-3.9c0.5-0.6,0.6-0.6,1.4-0.9c1.3-0.5,3-2,3.8-3
				c1-1.3,2.6-2.1,4.3-2.4c1.4,3.8,3.3,8.7,1.3,12.9c-1.6,3.5-0.3,2.9,0.2,6.2c0.3,2.3-0.2,2.8-3.2,4.8c-5.6,3.8-5.8,1.3-11.5,4.8
				c-1.2,0.7-3.4,2-5.3,3.3h2.2c0.4,0,0.8,0.1,1.2,0.3C264,113.9,266.9,112.3,270.2,111.1z"/>
			<path class="st1" d="M296.9,2.6c-3.2,1-3.2,2.8-5.3,4.1c-2.9,1.9-4.8-0.1-7.6-0.2c-3-0.1-11.3,3.5-13.8,5.2
				c-0.9,0.6-1.8,1.2-2.9,1.9c-2.9,1.8,0.1,3.7-6.1,8c-1,0.7-5.1,3.1-5.8,3.9c0.5,1.1,0.9,1.1,1.1,2.5c-0.3,0.2-0.8,0.4-1.3,0.6
				c0.4,0,0.9,0,1.3,0c0.6,0,1.1,0,1.7,0.1c0.9-0.7,1.5-1.3,1.7-1.5l-2-1.6l1.9-1c0.5-0.3,1.4-0.7,1.8-1c1-0.7,2.3-1.7,2.9-2.7
				l0.6-0.7c3.4-4.4,0.6-3,6.4-6.9c2.9-1.9,6-3.3,9.1-4.3c5.3-1.7,6.5,1.5,10.9-1.1c2.8-1.7,4.8-4.3,9.2-3.7
				c0.5,4.1-0.3,3.8-2.9,5.5c-1.8,1.2-3.5,2.3-5.4,3.2c-4.1,1.9-6.5-0.3-12.6,4.4c-1.7,1.3-3.1,2.5-5,3.6c-2.9,1.7-2.9,0.2-5.4,3.2
				c-1.7,2.1-3.4,3.9-5.1,5.7c0.9,0.3,1.7,0.6,2.6,1c1.7-1.9,2.8-3.9,4.5-5.5c2.3-2.1,4.6-3.5,6.9-5.3c0.8-0.6,1.4-1.3,2.3-1.8
				c3.5-2.2,8.4-2.3,12.5-3.8c1.7-0.6,4.3-1.5,5.8-2.3c3-1.5,2.4-2.1,4-4.3V5.2C302.2,4.2,302.4,0.9,296.9,2.6z"/>
			<path class="st1" d="M261.8,32.1C261.8,32.1,261.8,32.1,261.8,32.1c0.9,0.2,1.7,0.4,2.5,0.7C263.5,32.5,262.6,32.3,261.8,32.1z"
				/>
			<path class="st1" d="M254.1,31.6c-0.7,0.1-1.3,0.1-1.9,0.3C252.8,31.8,253.5,31.7,254.1,31.6C254.1,31.6,254.1,31.6,254.1,31.6z"
				/>
			<path class="st1" d="M268.8,73.8L268.8,73.8c0.4-0.3,0.8-0.6,1.2-0.9C269.6,73.2,269.2,73.5,268.8,73.8z"/>
			<path class="st1" d="M282.3,88.1c0.5-1.7,2.5-3.7,1-5.8c-1.1-1.6-2.4-2.3-3.9-3.8c-1.1-1.1-3.9-3.3-5.9-4.9
				c-0.4,0.5-0.9,0.9-1.4,1.4c1.6,1,3.2,2.5,4.2,3.2l6.8,5.5c-0.6,1.1-1,0.9-1.8,2.1c-2.4,3.8,2,4.8,1.5,7.9
				c-0.4,2.4-1.8,2.9-2.6,4.9c-1,2.7,1.3,2.8,2.6,4c-1.1,1.9-1.7,0.9-1.6,3.8c0.1,1.8-1,2.6-2.1,3.2l-6.2,4.4
				c-1.8,1.3-5.9,1.3-8.3,2.5c-0.6,0.3-1.1,0.6-1.5,0.9l1.1,1.5c0.4-0.6,1.1-1,3.3-1.7c1.7-0.5,3.3-0.9,5.1-1.3
				c3.2-0.7,2.9-1.5,4.2-2.1c0.3-0.5-0.3-0.2,0.7-0.6c1.1-1.7,4.5-3.8,5.8-5.8c2.3-3.4,0.2-5.9-1.7-7.9c0.3-0.8,1.1-1.9,1.6-2.7
				C286.7,91.1,282.4,89.4,282.3,88.1z"/>
			<path class="st1" d="M47,92.2l-0.6,0.7c-0.7,0.5-4.3,4.4-7.3,8c0.7-0.1,1.5-0.2,2.3-0.3l7.2-8.4l0.6-0.6c1.7-1.4,6.6-4.2,9.7-2.1
				c0.8,0.5,1,1.1,1.5,1.6c2.1,2,4.7,2.3,7.7,2.3c5.6,0.1,5.8-1.7,6.8-6.5c0.3-1.5,0.8-4.7,1.4-7.3c-0.6-0.2-1.2-0.5-1.6-1.1
				c-0.1,1.4-0.3,2.7-0.4,4c-0.4,2.7-0.8,7.2-2.5,9.2c-0.9,1-1.8,0.7-3.4,0.6c-6.7-0.4-6-3.6-10.9-4.9c-2.5-0.7-4.4-0.3-6.4,0.8
				C50.1,88.9,47.7,91.2,47,92.2z"/>
			<path class="st1" d="M226.8,73.3c3.7,1.2,3.4,1.9,5.6,1.6c1.3-1.7,0.1-3.5,4.8-4.1c-0.3-0.4-0.6-0.9-0.8-1.3
				c-1.1,0.3-2.1,0.7-2.7,1.1c-2.9,1.8-4.7,0.9-8.3,0.5c-5-0.6-9.8-0.8-14.8-1.2v2.3C215.6,71.9,220.5,71.2,226.8,73.3z"/>
			<path class="st1" d="M235.1,77c0.8,2.1,3.4,3.2,6.9,3.1c1.7-0.1,2.9-0.3,4.5-0.5c1.4-0.1,2.2-0.1,3,0c-1.4-0.4-2.8-0.9-4-1.5
				c-2.8,0.2-5.9,0.6-7.8-0.8c0.2-0.5,1.6-1.6,2.9-2.5c-0.4-0.4-0.9-0.8-1.3-1.3c-0.1-0.1-0.1-0.2-0.2-0.2
				C237.6,74.7,235.8,76.2,235.1,77z"/>
			<path class="st1" d="M165.7,80.2c-0.4,1.5,1.3,1.7,3.6,1.9c1.8,0.2,3.7,0.4,5.5,0.7c7,1.4,5.3-0.3,8.6-2.7
				c0.2-0.2,0.4-0.3,0.6-0.4h-2.6c-0.8,0.6-1.5,1.3-2,2.2c-2.9,0-11.5-1.9-12.9-1.9C165.5,80,166.3,79.8,165.7,80.2z"/>
			<path class="st1" d="M189.2,79.7h-2.6c1.3,0.8,2.5,2.8,4.6,3.6c1.7,0.7,3.5,0.9,5.5,0.8c1.4-0.1,4.2-0.2,5.2-1.4
				C197.4,82.7,191.6,82.6,189.2,79.7z"/>
			<path class="st1" d="M192.3,50.4c0.5,0.2,0.3,0.1,0.6,0.7c1,0.7,2,1.6,3.1,2.8v-2.2c-0.2-0.2-0.3-0.4-0.5-0.5
				c-0.7-0.7-2-1.5-3.3-2.1c0,0.2,0.1,0.4,0.1,0.6V50.4z"/>
			<path class="st1" d="M192.3,51.7v4.2c0.2-1.1,0.2-2.2,0.2-3.9C192.4,51.8,192.3,51.8,192.3,51.7z"/>
			<path class="st1" d="M186.9,63.8l0.6-0.7c0.8-0.8,1.8-1.8,2.6-3c-0.3,0.1-0.6,0.1-0.9,0.1h-0.8c-1.8,2.3-3.8,2.1-4.3,6h1.6
				C186,65.5,186.4,64.9,186.9,63.8z"/>
			<path class="st1" d="M113.7,46.7c-1.2,2.8-2,6.2-3.7,8.4v1.4c1.9-2.2,3-4.2,3.7-5.8V46.7z"/>
			<path class="st1" d="M99.2,66.2h2.8c0.9-0.7,1.5-1.7,2.6-3.3c0.6-0.9,1.4-1.8,2.2-2.7h-1.6c-0.3,0.3-0.6,0.6-0.8,0.8
				c-1.7,1.7-3.5,3.6-5.1,5.1C99.2,66.1,99.2,66.2,99.2,66.2z"/>
			<path class="st1" d="M174.1,80.6c0.4-0.2,0.9-0.5,1.3-0.9h-1.1L174.1,80.6z"/>
			<path class="st1" d="M151.1,87.2c2.5-0.2,4.2,0.1,5.7-1.8c0.8-1,1.9-4,2.2-5.4c0-0.1,0.1-0.2,0.1-0.3c-0.6-0.1-1.1-0.3-1.5-0.7
				c-0.3,1.4-0.1,2.8-1.1,4.1c-0.7,0.9-1.5,1.4-2.6,1.9c-0.7,0.3-2.7,1.3-3.2,1.4C150.9,87.1,150.4,86.5,151.1,87.2z"/>
			
				<rect x="85.8" y="64.2" transform="matrix(0.8944 -0.4472 0.4472 0.8944 -20.0624 45.2528)" class="st1" width="0" height="1.9"/>
			<path class="st1" d="M99.2,60.2h-5.8c-0.5,0.3-1.1,0.5-1.6,0.7c-1.2,0.4-2.1,0.9-3,1.5v2.6l5.3-2.1
				C97.5,61.7,98.7,61.2,99.2,60.2z"/>
			<path class="st1" d="M256.8,59.4c1.2-3.9-0.8-6.2-1.4-9.6c-0.4-2.7,0.5-5.3,1.3-7.6c-0.1,0-0.1,0-0.2,0c-0.6,0-1.1,0-1.6,0.1
				c-0.8,3.6-1.7,5.7-0.2,11.2c0.3,1.1,1.1,2.7,1.3,3.9c-1-0.2-1.8-0.5-2.7-0.8c-2.1-0.6-1.7-0.7-2.4-0.6l-0.3,0.1
				C249,57.8,253.9,57.6,256.8,59.4z"/>
			<path class="st1" d="M147,54.3C147,54.3,147,54.3,147,54.3c1.2,0.7,2.3,1.7,3.1,2.8c0.8,1.1,1.3,2.3,1.7,3.6
				c-0.3-1.3-0.9-2.5-1.7-3.6C149.3,56,148.3,55.1,147,54.3z"/>
			<path class="st1" d="M155.2,63.6c0.1,0,0.1,0.1,0.2,0.1c0.3,0.2,0.7,0.3,1.1,0.5V62c-0.4-0.3-0.8-0.5-1.1-0.9
				c-0.2-0.1-0.3-0.1-0.4-0.2C155.1,61.9,155.2,62.7,155.2,63.6z"/>
			<path class="st1" d="M156.5,55c-1.6-1.6-3-4-4.4-6.2c-0.3,0.6-0.6,1.3-0.9,1.9c0,0,0,0.1,0.1,0.1c1.1,2.1,2.8,4.8,5.2,6.3V55z"/>
			<path class="st1" d="M128.3,60.3v2.4c0,0.2,0.1,0.4,0.1,0.6c0.3,1,0.7,1.5,1,2.7c0,0.1,0,0.1,0,0.2h1.5c-0.1-1-0.2-2-0.3-3
				c-0.1-1.3-0.1-2.1-0.1-2.9H128.3z"/>
			<path class="st1" d="M259.9,66.1c0.6-0.3,1.1-0.6,1.6-1c0.2-0.9,0.9-1.2,1.3-1.8l0.4-0.2c0.4-0.7,0.8-1.4,1-2.3c0,0,0,0,0,0
				c-1.7,0-1.2-0.1-2.3,1C261,63,259.6,63.8,259.9,66.1z"/>
			<path class="st1" d="M188.9,66.2h2.5c0.6-0.5,1.3-0.9,2.2-1c1.1-0.1,1.8,0.1,2.4,0.5v-1.7c-3.9-1.3-4.8,1-6.7,1.5
				C189.1,66,189.1,66.1,188.9,66.2z"/>
			<path class="st1" d="M175.6,46.7c-0.2-0.7-0.5-1.4-0.8-2.1c-0.5-0.9-0.9-1.3-1.2-1.8h-1.5c0.4,1.3,0.9,2.5,1.3,3.9H175.6z"/>
			<polygon class="st1" points="174,49.7 176,49.7 176,49.7 174,49.7 			"/>
			<path class="st1" d="M132.4,42.7c-0.4,0-0.9,0-1.4,0c0,1.1,0,2.2-0.3,3.2c-0.1,0.4-0.2,0.7-0.4,1h0.6c0.4,0,0.8,0,1.2,0
				C132.4,45.7,132.4,44.3,132.4,42.7z"/>
			<path class="st1" d="M249.7,55.7c-0.6-0.7-1.3-1.1-2-1.5c0,0.1,0,0.2,0,0.4c0,0.3,0,0.7,0,1C248.4,55.6,249.1,55.6,249.7,55.7z"
				/>
			<path class="st1" d="M194.7,76.7c0,0.5-0.1,0.9-0.3,1.3c0.3,0.1,0.7,0.1,1,0.2c0.4,0.1,0.7,0.1,1,0.1c-0.3-0.4-0.4-0.9-0.4-1.5
				c-0.4-0.1-0.9-0.2-1.3-0.3V76.7z"/>
			<path class="st1" d="M171.1,60.2v0.7c0,0,0.1,0,0.1-0.1c0.1-0.3,0.3-0.5,0.4-0.7H171.1z"/>
			<path class="st1" d="M261.1,83.3c1.2,0.1,1.8,0.7,3.1,0.1c0.7-0.3,1.4-1.2,1.6-2c0.3-0.9,0.3-1.7,0.3-2.6
				c-0.4,0.1-0.7,0.3-1.1,0.4c-0.2,1.9-1.3,3.2-3.9,3.6L261.1,83.3z"/>
		</g>
		<polygon class="st2" points="168.4,49.7 168.4,49.7 168.9,49.7 168.9,49.7 		"/>
		<g>
			<path class="st3" d="M207.6,76.7v-4.5v-2.6V60v0h5.6c1.4,0,2.7,0,3.9-0.1c0.4,0,0.9,0,1.3-0.1c1.1-0.1,2-0.2,2.9-0.3
				c0.3,0,0.6-0.1,0.8-0.1c0.4-0.1,0.7-0.2,1.1-0.3c0.3-0.1,0.6-0.2,0.8-0.3c0.5-0.2,0.9-0.5,1.4-0.8c0.4-0.2,0.7-0.4,1.1-0.7
				c0.1,0,0.1-0.1,0.2-0.1c0.5-0.4,1.1-0.9,1.5-1.4c0.4-0.5,0.8-0.9,1.1-1.5c0.3-0.4,0.5-0.9,0.8-1.3c0.9-1.9,1.4-4.1,1.4-6.9
				c0-1.7-0.2-3.2-0.5-4.5c-0.1-0.5-0.3-0.9-0.4-1.3c-0.4-1-0.9-1.9-1.5-2.8c-0.6-0.8-1.3-1.6-2-2.2s-1.5-1.1-2.3-1.5
				c-0.6-0.3-1.1-0.5-1.7-0.6c-0.2-0.1-0.4-0.1-0.7-0.2c-1.8-0.3-4.9-0.5-9.5-0.5H199v22v3.1v7.5v2.6v8.7v0.5h1.8H207.6z
				 M207.6,39.8L207.6,39.8l4.1,0c2.7,0,4.6,0.1,5.7,0.2c0.2,0,0.3,0,0.4,0.1c0.8,0.2,1.5,0.4,2.1,0.8c0.2,0.1,0.4,0.3,0.6,0.4
				c0.3,0.2,0.5,0.5,0.7,0.7c0.2,0.3,0.4,0.5,0.6,0.8c0.4,0.7,0.6,1.4,0.7,2.3c0,0.3,0,0.6,0,0.9c0,0.3,0,0.7-0.1,1
				c-0.1,0.4-0.2,0.8-0.3,1.2c-0.1,0.4-0.3,0.7-0.5,1.1c0,0.1-0.1,0.2-0.1,0.2c-0.2,0.3-0.3,0.5-0.5,0.7c0,0,0,0,0,0
				c-0.3,0.3-0.6,0.5-0.9,0.8c-0.2,0.1-0.4,0.3-0.6,0.4s-0.4,0.2-0.6,0.3c-0.5,0.2-1.3,0.4-2.3,0.5c-0.6,0.1-1.3,0.1-2.1,0.2
				c-0.7,0-1.5,0-2.3,0h-4.7V39.8z"/>
			<polygon class="st3" points="85.8,69.2 85.8,69.2 85.8,66.1 85.8,64.2 85.8,57.2 85.8,57.2 97.1,57.2 100,57.2 107,57.2 
				107,50.5 107,49.7 105.9,49.7 85.8,49.7 85.8,39.8 85.8,39.8 85.8,39.8 108.6,39.8 108.6,32.3 77.2,32.3 77.2,70 77.2,70 
				77.2,76.7 77.3,76.7 104.1,76.7 108.8,76.7 109.4,76.7 109.4,76.6 109.4,69.2 106.5,69.2 			"/>
			<path class="st3" d="M66.5,70.7c0.4-0.6,0.8-1.3,1.2-2c0.2-0.5,0.5-0.9,0.7-1.4c0.6-1.3,1.1-2.7,1.5-4.3l-8.3-2.7
				c-0.1,0.5-0.2,1-0.4,1.4c-0.7,2.5-1.8,4.4-3.2,5.7c-0.6,0.6-1.3,1-2,1.4c-1.2,0.6-2.5,0.9-3.9,0.9c-1.2,0-2.2-0.2-3.2-0.5
				c-0.3-0.1-0.7-0.2-1-0.4c-0.7-0.3-1.4-0.8-2-1.3c-0.2-0.2-0.4-0.4-0.6-0.6c-0.3-0.3-0.5-0.5-0.8-0.8c-1.9-2.4-2.9-6.4-2.9-12
				c0-2.6,0.2-4.9,0.7-6.8s1.2-3.5,2.2-4.6c0.2-0.3,0.5-0.6,0.8-0.8c0.3-0.3,0.5-0.5,0.8-0.7c0.6-0.4,1.2-0.8,1.8-1.1
				c0.6-0.3,1.3-0.5,2-0.7c0.7-0.1,1.5-0.2,2.2-0.2c2.3,0,4.2,0.7,5.8,2c1.6,1.3,2.6,3.2,3.1,5.4l8.5-2.1c-0.1-0.4-0.2-0.9-0.4-1.3
				C69,42,68.5,40.8,68,39.8c-0.2-0.3-0.4-0.7-0.6-1c-0.3-0.5-0.6-0.9-0.9-1.3c-0.3-0.4-0.7-0.8-1-1.2c-0.4-0.4-0.8-0.8-1.3-1.1
				c-0.9-0.7-1.8-1.3-2.8-1.8c-0.3-0.2-0.6-0.3-0.9-0.4c-1-0.4-2-0.7-3.1-1c-0.7-0.2-1.5-0.3-2.2-0.4c-0.4,0-0.8-0.1-1.2-0.1
				c-0.4,0-0.8,0-1.2,0c-2.2,0-4.3,0.3-6.2,0.9c-1.9,0.6-3.6,1.4-5.2,2.6c-1.1,0.8-2,1.7-2.9,2.7c-1.8,2-3.2,4.5-4.1,7.4
				c-0.5,1.4-0.8,3-1,4.6s-0.3,3.4-0.3,5.2c0,2.6,0.3,5,0.8,7.2c0.3,1.5,0.8,2.8,1.4,4.1c0.8,1.8,1.8,3.4,3.1,4.9
				c0.1,0.1,0.2,0.2,0.2,0.3c0,0,0,0,0,0c1,1.1,2.1,2.1,3.3,2.9c0.4,0.3,0.8,0.5,1.2,0.8c2.7,1.6,5.9,2.4,9.4,2.4
				c4.5,0,8.3-1.2,11.3-3.6C64.6,73,65.6,71.9,66.5,70.7z"/>
			<path class="st3" d="M271.4,37.6c-0.6-0.7-1.3-1.3-2-1.8c-0.4-0.4-0.9-0.7-1.3-1c-1.2-0.8-2.5-1.4-3.8-1.9
				c-0.8-0.3-1.6-0.5-2.5-0.7c-1.7-0.4-3.4-0.6-5.3-0.6c-0.8,0-1.6,0-2.3,0.1c-0.7,0.1-1.3,0.1-1.9,0.3c-0.8,0.1-1.6,0.3-2.3,0.5
				c-0.1,0-0.2,0.1-0.4,0.1c-0.8,0.2-1.5,0.5-2.2,0.8c-2,0.9-3.8,2.2-5.5,4c-0.4,0.4-0.8,0.9-1.2,1.4c-1,1.3-1.8,2.7-2.5,4.2
				c-0.1,0.2-0.2,0.4-0.3,0.5c-0.3,0.6-0.5,1.3-0.7,1.9c-0.2,0.7-0.4,1.4-0.5,2.1c-0.2,0.8-0.3,1.5-0.4,2.4c-0.2,1.6-0.3,3.2-0.3,5
				c0,0.9,0,1.7,0.1,2.6c0.1,0.8,0.1,1.7,0.3,2.4c0.2,1.6,0.6,3.1,1,4.5c0.1,0.4,0.3,0.8,0.4,1.2c0.5,1.2,1.1,2.3,1.7,3.3
				c0.4,0.6,0.8,1.2,1.3,1.8c0.1,0.2,0.3,0.3,0.4,0.5c0.1,0.1,0.2,0.3,0.3,0.4c0.4,0.4,0.8,0.9,1.3,1.3c0.6,0.5,1.1,1,1.7,1.4
				c1.1,0.8,2.3,1.4,3.5,1.9c1.3,0.5,2.6,0.9,4,1.1c1.4,0.3,2.9,0.4,4.5,0.4c2.3,0,4.5-0.3,6.5-0.9c0.5-0.1,0.9-0.3,1.4-0.5
				c0,0,0.1,0,0.1,0c0.7-0.3,1.4-0.6,2.1-0.9c0.1,0,0.1-0.1,0.2-0.1c0.7-0.4,1.4-0.9,2.1-1.4c0.4-0.3,0.8-0.6,1.2-0.9
				c0.4-0.3,0.8-0.7,1.1-1.1c0.1-0.1,0.2-0.2,0.3-0.3c1.9-2,3.3-4.4,4.2-7.3c0.4-1.3,0.7-2.7,1-4.1c0.1-0.9,0.2-1.7,0.3-2.6
				s0.1-1.8,0.1-2.8c0-6.3-1.4-11.5-4.3-15.4C272.3,38.7,271.9,38.1,271.4,37.6z M268.2,54.4c0,1.6-0.1,3.2-0.3,4.5s-0.6,2.6-1,3.7
				c-0.3,0.7-0.6,1.4-1,2.1c-0.3,0.4-0.6,0.9-0.9,1.3c-0.1,0.1-0.2,0.2-0.3,0.3c-0.5,0.5-0.9,1-1.4,1.3c-0.1,0.1-0.2,0.2-0.3,0.2
				c-0.1,0-0.1,0.1-0.2,0.1c-0.1,0.1-0.3,0.2-0.4,0.3c-0.5,0.3-1,0.5-1.5,0.7c0,0,0,0,0,0c0,0-0.1,0-0.1,0c-0.2,0.1-0.3,0.1-0.5,0.2
				c-0.7,0.2-1.5,0.4-2.3,0.5c-0.4,0-0.8,0.1-1.3,0.1c-0.4,0-0.8,0-1.3-0.1c-0.8-0.1-1.6-0.2-2.3-0.5c-0.7-0.2-1.4-0.6-2.1-1
				c-0.5-0.3-1-0.7-1.4-1c-0.5-0.4-0.9-0.8-1.3-1.3c-0.6-0.7-1.2-1.6-1.6-2.5c-0.1-0.3-0.3-0.6-0.4-1c-0.3-0.9-0.6-1.8-0.8-2.9
				s-0.3-2.1-0.4-3.3c0-0.6-0.1-1.2-0.1-1.8v0c0-0.2,0-0.3,0-0.5c0-0.5,0-1,0.1-1.5c0-0.3,0.1-0.6,0.1-1v0c0-0.4,0.1-0.8,0.1-1.1
				s0.1-0.7,0.2-1.1c0.1-0.6,0.2-1.1,0.4-1.6c0.1-0.4,0.3-0.9,0.4-1.3c0.1-0.2,0.2-0.4,0.3-0.6c0.1-0.2,0.2-0.4,0.3-0.7
				c0.2-0.4,0.4-0.8,0.7-1.1c0.2-0.4,0.5-0.7,0.8-1c2.2-2.5,5-3.8,8.5-3.8c3.5,0,6.4,1.3,8.5,3.8c1.1,1.3,1.9,2.8,2.4,4.7
				c0.4,1.4,0.7,3,0.8,4.8C268.2,53.1,268.2,53.7,268.2,54.4L268.2,54.4z"/>
			<polygon class="st3" points="174.8,76.7 177.5,76.7 190.2,76.7 191.7,76.7 191.7,75.2 191.7,69.2 189.9,69.2 188.7,69.2 
				185.3,69.2 184,69.2 171.4,69.2 168.1,69.2 168.1,68.4 168.1,63.4 168.1,61.7 168.1,57.2 171.7,57.2 173.5,57.2 189.3,57.2 
				189.3,49.7 176,49.7 174,49.7 168.9,49.7 168.4,49.7 168.1,49.7 168.1,49.7 168.1,39.8 168.1,39.8 171.4,39.8 172.6,39.8 
				190.9,39.8 190.9,32.3 171.7,32.3 170.4,32.3 165.6,32.3 164.3,32.3 159.9,32.3 159.5,32.3 159.5,41.5 159.5,49 159.5,50.8 
				159.5,56.7 159.5,58.1 159.5,63.2 159.5,64.9 159.5,69.9 159.5,71.4 159.5,76.3 159.5,76.7 169.4,76.7 			"/>
			<path class="st3" d="M150.9,69.7c0.4-1,0.8-1.9,1-2.9c0.2-1,0.3-2,0.3-3c0-0.3,0-0.6,0-0.9c-0.1-0.8-0.2-1.5-0.4-2.2
				c-0.3-1.3-0.9-2.5-1.7-3.6c-0.8-1.1-1.9-2-3.1-2.8c-0.8-0.5-1.8-0.9-2.8-1.3c0.5-0.2,0.9-0.5,1.3-0.7c0.1,0,0.1-0.1,0.1-0.1
				c0.6-0.4,1.1-0.8,1.5-1.3c0.1-0.1,0.2-0.2,0.3-0.4c0.4-0.4,0.7-0.9,1-1.4c0.2-0.3,0.3-0.5,0.4-0.8c0.1-0.3,0.2-0.5,0.4-0.8
				c0.3-0.7,0.5-1.5,0.6-2.3c0-0.1,0.1-0.2,0.1-0.3c0.1-0.5,0.1-1,0.1-1.5c0-1.9-0.4-3.6-1.3-5.2c-0.2-0.3-0.4-0.7-0.6-1
				c-0.6-0.9-1.4-1.7-2.2-2.4c-0.2-0.1-0.3-0.3-0.5-0.4c-0.5-0.4-1.1-0.7-1.6-0.9c-0.9-0.4-1.8-0.7-2.8-0.9c-0.1,0-0.2,0-0.3,0
				c-1-0.2-2.3-0.3-3.9-0.3c-1,0-2.1-0.1-3.3-0.1h-1.2h-1.8h-3.1h-1.1h-5.4h-1h-3.5v2.9v0v1.7v0v5.5v0v2.7v0v10.7v0V58v0v18.7h8.7
				h2.2h3.5c0.5,0,1.1,0,1.6,0c0.8,0,1.5,0,2.1,0c0.2,0,0.3,0,0.5,0c1.4,0,2.7-0.1,3.7-0.1c0.3,0,0.7,0,0.9,0c0.6,0,1.1-0.1,1.5-0.1
				c0.9-0.1,1.6-0.3,2.4-0.5c0.3-0.1,0.5-0.1,0.8-0.2c0.8-0.3,1.5-0.7,2.1-1.1c0.2-0.1,0.3-0.2,0.5-0.3c0.4-0.3,0.8-0.6,1.1-0.9
				s0.7-0.7,1-1.1c0.3-0.4,0.6-0.8,0.9-1.2C150.4,70.7,150.7,70.2,150.9,69.7z M141.8,43.8c0,0.3,0.1,0.6,0.1,1v0c0,0,0,0.1,0,0.1
				c0,1.4-0.4,2.5-1.2,3.4c-0.5,0.5-1.1,0.9-1.8,1.2c-0.2,0.1-0.3,0.1-0.5,0.2c-0.3,0.1-0.7,0.2-1.1,0.2c-0.1,0-0.2,0-0.3,0
				c-0.3,0-0.7,0-1.2,0.1c-0.9,0-2.1,0.1-3.6,0.1c-0.4,0-0.8,0-1.2,0h0h-0.2h-2.5h-3V39.7v0h4.9c0.2,0,0.4,0,0.5,0
				c0.6,0,1.1,0,1.6,0c0.8,0,1.5,0,2.1,0c0.2,0,0.4,0,0.6,0c0.2,0,0.4,0,0.6,0s0.4,0,0.6,0c0.1,0,0.2,0,0.3,0c0.4,0,0.7,0,0.9,0.1
				c0.2,0,0.3,0.1,0.4,0.1c0.3,0,0.5,0.1,0.8,0.2c0.2,0.1,0.5,0.2,0.7,0.3c0.5,0.3,1,0.6,1.3,1C141.3,42.1,141.6,42.8,141.8,43.8z
				 M139.1,68.9c-0.3,0.1-0.8,0.1-1.4,0.2c-1,0.1-2.5,0.1-4.5,0.1h-2h-1.4h-4.5V57.3h3.7h2.2h1.1h0c0.5,0,1,0,1.4,0
				c0.4,0,0.9,0,1.3,0c0.8,0,1.5,0.1,2.2,0.1c1,0.1,1.7,0.2,2.3,0.3c0.2,0,0.4,0.1,0.5,0.1c0.6,0.2,1.1,0.5,1.5,0.8
				c0.4,0.3,0.8,0.7,1.1,1.2c0.6,0.9,0.9,2.1,0.9,3.4c0,0.4,0,0.8-0.1,1.1c0,0.3-0.1,0.5-0.2,0.8c-0.2,0.7-0.5,1.4-1,1.9
				c-0.2,0.2-0.4,0.4-0.6,0.6c-0.2,0.2-0.5,0.4-0.7,0.5C140.3,68.6,139.8,68.8,139.1,68.9z"/>
			<polygon class="st3" points="16.8,52.4 11.3,60.6 20.5,74.6 26.8,74.6 26.8,74.6 19.4,60.6 26.8,47 26.8,47 20.5,47 			"/>
			<polygon class="st3" points="15.5,47 15.5,47 9.2,47 0,60.6 9.2,74.6 15.5,74.6 15.5,74.6 8,60.6 			"/>
			<rect x="282.7" y="56.4" class="st3" width="16" height="8.5"/>
			<polygon class="st3" points="254.7,127.3 253.7,125.8 251.4,122.6 250.1,120.7 248.5,118.4 242,118.4 244.4,122.6 245.7,124.8 
				247.4,127.9 248.1,129.1 249.7,131.9 242,145.2 248.5,145.2 257.9,131.9 			"/>
			<polygon class="st3" points="124,104.2 120.3,104.2 111.2,104.2 111.2,104.5 111.2,105.1 111.2,135.4 111.2,138.5 111.2,144 
				111.2,146.6 111.2,147.2 120,147.2 120,147 120,146.8 120,144.5 120,142.6 120,138.9 120,137.7 120,133.9 120,131.6 120,126.4 
				120,124.1 120,119.8 120,117.5 120,112.8 120,111.8 120,111.5 120,111.5 136.8,111.5 136.8,111.5 136.8,118 136.8,119.8 
				136.8,125.9 136.8,131.7 136.8,138.1 136.8,146.7 136.8,147.2 137.2,147.2 142.8,147.2 145,147.2 145.6,147.2 145.6,146.3 
				145.6,142 145.6,137.3 145.6,134.8 145.6,129.9 145.6,128 145.6,122.8 145.6,120.8 145.6,116.1 145.6,114.6 145.6,111.3 
				145.6,110.1 145.6,105.3 145.6,104.2 141.8,104.2 			"/>
			<path class="st3" d="M58.4,128.7c-0.2-0.2-0.4-0.4-0.6-0.7c-0.4-0.4-0.9-0.8-1.3-1.2c-1.2-0.9-2.7-1.7-4.5-2.3
				c0.1-0.1,0.3-0.2,0.4-0.2c0.9-0.5,1.8-1.1,2.5-1.7c1-0.8,1.8-1.6,2.4-2.5c0.6-0.8,1-1.7,1.3-2.6c0.2-0.5,0.3-1,0.4-1.5
				c0-0.1,0-0.2,0-0.3c0-0.4,0.1-0.8,0.1-1.2c0-0.8-0.1-1.5-0.2-2.2c-0.1-0.3-0.2-0.6-0.3-0.9c-0.1-0.4-0.3-0.7-0.4-1.1
				c-0.1-0.2-0.2-0.4-0.3-0.5c-0.6-1.1-1.5-2.1-2.6-3.1c-2.1-1.8-5-2.9-8.8-3.2c-0.3,0-0.6-0.1-0.9-0.1c-0.2,0-0.4,0-0.7,0
				c-0.4,0-0.8,0-1.2,0c-1.9,0-3.6,0.2-5.1,0.5c-0.9,0.2-1.8,0.5-2.6,0.8c-4,1.6-6.6,4.7-7.8,9.2l4.5,1.1l2.3,0.5l1.6,0.4
				c0.3-0.9,0.6-1.7,1-2.4c0.2-0.3,0.4-0.6,0.7-0.9c0.5-0.6,1.1-1,1.8-1.4c0.3-0.2,0.7-0.3,1.1-0.4c0.7-0.2,1.6-0.3,2.5-0.3h0
				c0.5,0,1,0,1.5,0.1c0.9,0.1,1.8,0.4,2.5,0.8c0.3,0.2,0.7,0.4,1,0.7c0.3,0.3,0.5,0.6,0.8,0.9c0.2,0.3,0.4,0.6,0.5,0.9
				c0,0,0,0.1,0,0.1c0.3,0.6,0.4,1.3,0.4,2c0,0,0,0,0,0.1c0,0.2,0,0.5,0,0.7c-0.1,0.7-0.2,1.4-0.5,1.9c-0.1,0.3-0.3,0.6-0.5,0.9
				c-0.3,0.4-0.6,0.7-1,1.1c-0.1,0-0.1,0.1-0.1,0.1c-0.2,0.1-0.4,0.3-0.6,0.4c-0.4,0.3-0.8,0.5-1.3,0.7c-0.7,0.3-1.5,0.5-2.4,0.6
				c0,0,0,0,0,0c-0.5,0.1-1,0.1-1.6,0.1c-0.1,0-0.2,0-0.3,0h-1v3.5v2.6v0.4h2c0.4,0,0.7,0,1,0c1.3,0.1,2.5,0.3,3.5,0.6
				c0.7,0.3,1.4,0.6,1.9,1c0.2,0.1,0.3,0.3,0.5,0.4c0.3,0.3,0.6,0.6,0.8,0.9c0.6,0.8,0.8,1.8,0.8,2.9c0,1.2-0.4,2.2-1.1,3.2
				c-0.2,0.3-0.5,0.6-0.8,0.9c-1,0.9-2.3,1.4-4.1,1.7c-0.6,0.1-1.2,0.1-1.9,0.1c-0.5,0-1,0-1.4-0.1c-1.4-0.1-2.6-0.5-3.6-1.1
				c-0.5-0.3-1-0.7-1.4-1.2c-0.7-0.9-1.4-2.2-1.9-3.8l-8,2.6c0.2,0.5,0.3,1,0.5,1.5c0.7,1.9,1.6,3.5,2.7,4.7
				c0.5,0.6,1.1,1.2,1.7,1.6c0.3,0.2,0.6,0.4,1,0.6c2.6,1.5,6.2,2.3,10.7,2.3c0.7,0,1.4,0,2-0.1c2.6-0.1,4.9-0.6,6.8-1.3
				c1.4-0.5,2.7-1.3,3.7-2.1c1.7-1.5,2.9-3.2,3.6-5.2c0.4-1.2,0.6-2.5,0.6-3.9c0-2-0.4-3.7-1.2-5.2
				C59.1,129.6,58.8,129.1,58.4,128.7z"/>
			<path class="st3" d="M233.7,135v-2.7v-9.4v-2.2v-5.4V114v-5.4V107v-2.7h-17.2h-0.6H213h-4.1h-5v2v0.4v2.1c0,3.7-0.1,7.1-0.2,10.2
				s-0.4,5.8-0.6,8.2c-0.1,0.9-0.3,1.9-0.4,2.8c-0.1,0.6-0.2,1.1-0.3,1.6c-0.1,0.3-0.1,0.5-0.2,0.8c-0.3,1.2-0.6,2.4-1,3.6
				c-0.2,0.5-0.3,0.9-0.5,1.4c-0.3,0.9-0.7,1.8-1.1,2.6h-3.7v0.2v1.5v4.7v1.3v5.6v2.2v0.8v0.3h0.3h2.1h4.9v-4.2v-1.4v-3.7h16.6h1.9
				h4.1h1.9h2.6v9.1v0.3h0.8h6.6v-12.2v-3.4v-1h-3.8V135z M224.9,111.5v19.3v9.2h-16.4h0c0.1-0.3,0.2-0.6,0.4-0.9
				c0.2-0.5,0.4-1,0.5-1.6c1.8-6,2.7-14.6,2.7-25.9L224.9,111.5L224.9,111.5z"/>
			<path class="st3" d="M193.2,146.7l-2.2-5.5l-0.6-1.5l-1.9-4.6l-0.6-1.4l-2.2-5.4l-1.2-3.1l-7.5-18.7l-0.5-1.3l-0.4-1h-9.2
				l-1.1,2.8l-0.6,1.5l-1.3,3.3l-0.6,1.4l-1.7,4.4l-0.4,1.1l-1.1,2.7l-1.2,3.1l-2.1,5.3l-0.6,1.5l-2,5.1l-1.2,3.1l-2.9,7.5l-0.1,0.2
				h3.4h5.8l0.8-2.3l0.7-2l1.6-4.4l0.4-1.1h0v0h0.7h5.6h2.6h3.9h3.7h0.8l1.2,3.1l0.5,1.3l2,5.2l0.1,0.2h3h6.4l0-0.1L193.2,146.7z
				 M167,126.4l0.5-1.4l1.3-3.4l0.7-1.8l2-5.5l2.8,7.4l1.1,2.9l2.1,5.6h-6.7h-0.8h-4.3L167,126.4z"/>
			<path class="st3" d="M102.2,134.8l-1.7-4.1l-0.8-1.9l-3.6-8.8l-0.9-2.3l-2.7-6.8l-0.4-1l-2.1-5.2l-0.2-0.5h-3.5h-5.7l-0.5,1.4
				l-0.5,1.3l-1.6,4.2l-0.6,1.5l-1.7,4.2l-0.5,1.4l-1.4,3.5l-0.6,1.7l-9.3,23.9h9.3l3.6-9.8h17.3l3.7,9.8h9.4l-1-2.4L102.2,134.8z
				 M79.4,130.1l1-2.8l0.8-2.2l1.2-3.2l0.6-1.5l1.3-3.7l0.6-1.5l0.4-1l0.3,0.8l0.6,1.7l1.5,3.8l0.8,2.2l2,5.2l0.8,2.1l0,0.1H79.4z"
				/>
			<polygon class="st3" points="261.1,119.8 260.1,118.4 257.4,118.4 253.8,118.4 253.6,118.4 253.7,118.5 253.8,118.6 253.9,118.9 
				255.3,121.4 256.8,124 257.9,125.9 261.3,131.9 253.6,145.2 260.1,145.2 269.5,131.9 262.3,121.6 			"/>
		</g>
	</g>
</g>
</svg>
